<svg width="550" height="805" viewBox="0 0 550 805" fill="none" xmlns="http://www.w3.org/2000/svg">
<g clip-path="url(#clip0_18_501)">
<path d="M530.75 751.333C530.692 760.567 526.907 769.407 520.215 775.937C513.523 782.467 504.464 786.16 495 786.217H55C45.5363 786.16 36.4767 782.467 29.7847 775.937C23.0927 769.407 19.3077 760.567 19.25 751.333V53.6665C19.3077 44.4323 23.0927 35.5922 29.7847 29.0625C36.4767 22.5328 45.5363 18.8395 55 18.7832H495C504.464 18.8395 513.523 22.5328 520.215 29.0625C526.907 35.5922 530.692 44.4323 530.75 53.6665V751.333Z" fill="#3B3B3B"/>
<path d="M495 0H55C40.4131 0 26.4236 5.65415 16.1091 15.7186C5.79463 25.7831 0 39.4334 0 53.6667L0 751.333C0 765.567 5.79463 779.217 16.1091 789.281C26.4236 799.346 40.4131 805 55 805H495C509.587 805 523.576 799.346 533.891 789.281C544.205 779.217 550 765.567 550 751.333V53.6667C550 39.4334 544.205 25.7831 533.891 15.7186C523.576 5.65415 509.587 0 495 0ZM530.75 751.333C530.692 760.568 526.907 769.408 520.215 775.937C513.523 782.467 504.464 786.16 495 786.217H55C45.5363 786.16 36.4767 782.467 29.7847 775.937C23.0927 769.408 19.3077 760.568 19.25 751.333V53.6667C19.3077 44.4324 23.0927 35.5924 29.7847 29.0626C36.4767 22.5329 45.5363 18.8396 55 18.7833H495C504.464 18.8396 513.523 22.5329 520.215 29.0626C526.907 35.5924 530.692 44.4324 530.75 53.6667V751.333Z" fill="white"/>
<path d="M135.245 441.408L453.365 133.63L433.565 114.417C431.782 112.687 429.37 111.715 426.855 111.715C424.34 111.715 421.928 112.687 420.145 114.417L97.46 426.65C76.6158 446.765 60.1736 470.799 49.1294 497.297C38.0852 523.796 32.669 552.206 33.209 580.806C33.7489 609.407 40.2338 637.603 52.2706 663.687C64.3075 689.77 81.6457 713.197 103.235 732.55C127.396 754.377 156.432 770.418 188.045 779.401C170.952 770.788 155.133 759.956 141.02 747.201C119.469 727.837 102.164 704.412 90.1504 678.34C78.1373 652.268 71.6654 624.09 71.1256 595.509C70.5858 566.928 75.9895 538.537 87.01 512.051C98.0306 485.564 114.439 461.533 135.245 441.408ZM489.885 759.222C500.206 764.939 510.963 769.873 522.06 773.98C522.665 773.283 523.215 772.531 523.765 771.834C511.74 764.85 500.399 756.801 489.885 747.791V759.222ZM401.5 773.98V786.216H439.45V747.791C427.758 757.773 415.041 766.549 401.5 773.98Z" fill="#252525"/>
<path d="M401.5 733.033C367.941 761.696 326.538 780.179 282.37 786.216H375.87C384.669 782.668 393.229 778.581 401.5 773.98V733.033ZM457.93 129.175L453.365 133.63L530.75 208.763V186.652L471.35 129.175C469.567 127.445 467.155 126.474 464.64 126.474C462.125 126.474 459.713 127.445 457.93 129.175ZM202.4 786.216H219.45C208.829 784.752 198.332 782.528 188.045 779.562C192.775 781.977 197.56 784.177 202.4 786.216ZM452.045 733.033V786.216H489.72V759.383C476.291 751.85 463.67 743.022 452.045 733.033Z" fill="#2E2F2F"/>
<path d="M135.245 441.408C114.422 461.535 97.9988 485.573 86.968 512.069C75.9372 538.565 70.5282 566.969 71.068 595.563C71.6078 624.158 78.0853 652.348 90.1087 678.43C102.132 704.512 119.452 727.943 141.02 747.308C155.133 760.063 170.952 770.895 188.045 779.508C198.332 782.474 208.829 784.698 219.45 786.163H282.48C326.604 780.121 367.965 761.658 401.5 733.033V773.98C415.003 766.543 427.683 757.767 439.34 747.791V786.216H452.1V733.033C463.784 742.975 476.461 751.749 489.94 759.222V747.791C500.454 756.801 511.795 764.85 523.82 771.834C528.304 765.892 530.731 758.711 530.75 751.333V208.495L453.365 133.361L135.245 441.408Z" fill="#2E2F2F"/>
<path d="M156.035 277.94L110.935 234.309C110.681 234.079 110.347 233.951 110 233.951C109.653 233.951 109.319 234.079 109.065 234.309L63.965 277.94C61.0211 280.753 58.6973 284.124 57.1363 287.846C55.5753 291.567 54.8099 295.56 54.8872 299.58C54.9644 303.6 55.8826 307.563 57.5855 311.224C59.2884 314.886 61.7401 318.169 64.79 320.873C70.5254 325.871 77.9456 328.633 85.635 328.633C93.3244 328.633 100.745 325.871 106.48 320.873V326.938C106.692 334.735 104.039 342.349 99 348.404H121C115.961 342.349 113.308 334.735 113.52 326.938V320.712C119.255 325.71 126.676 328.472 134.365 328.472C142.054 328.472 149.475 325.71 155.21 320.712C158.234 318.01 160.664 314.736 162.351 311.089C164.039 307.443 164.949 303.499 165.026 299.499C165.103 295.498 164.346 291.524 162.8 287.818C161.255 284.112 158.953 280.751 156.035 277.94ZM132.44 190.732H104.5V85.8669L71.17 95.9562V73.5772L129.47 53.1839H132.44V190.732ZM253 134.167C253 153.165 248.985 167.691 240.955 177.744C236.71 182.83 231.28 186.852 225.119 189.475C218.958 192.098 212.243 193.246 205.535 192.825C198.904 193.164 192.283 191.987 186.2 189.388C180.117 186.788 174.741 182.838 170.5 177.852C162.415 167.977 158.235 153.809 158.07 135.348V110.071C158.07 90.9295 162.14 76.3858 170.28 66.4396C174.532 61.4274 179.935 57.4643 186.051 54.872C192.167 52.2798 198.824 51.1314 205.48 51.5202C212.115 51.1121 218.754 52.2357 224.861 54.7999C230.967 57.3641 236.368 61.2967 240.625 66.2786C248.765 76.0996 252.945 90.2676 253.11 108.675L253 134.167ZM225.06 106.368C225.67 97.822 224.022 89.2667 220.275 81.5199C218.78 78.9932 216.594 76.9222 213.962 75.5385C211.33 74.1547 208.355 73.5128 205.37 73.6846C202.48 73.5063 199.594 74.1019 197.026 75.4072C194.457 76.7124 192.302 78.6776 190.795 81.0906C187.142 88.279 185.438 96.2609 185.845 104.275V137.709C185.298 146.292 186.902 154.876 190.52 162.718C191.969 165.33 194.151 167.485 196.81 168.929C199.47 170.374 202.496 171.049 205.535 170.875C208.509 171.071 211.478 170.438 214.097 169.051C216.716 167.664 218.878 165.579 220.33 163.04C223.865 155.532 225.488 147.302 225.06 139.051V106.368ZM204.655 714.25H159.5V423.484L69.355 455.684V416.185L197.67 369.227H204.655V714.25ZM482.075 567.794C482.075 618.956 473.128 656.934 455.235 681.728C437.342 706.522 409.402 718.99 371.415 719.134C333.868 719.134 306.057 706.987 287.98 682.694C269.903 658.401 260.572 622.068 259.985 573.697V515.469C259.985 464.986 268.913 427.419 286.77 402.769C304.627 378.118 332.677 365.846 370.92 365.953C408.76 365.953 436.627 377.778 454.52 401.427C472.413 425.076 481.58 461.605 482.02 511.014L482.075 567.794ZM437.36 508.17C437.36 471.176 432.043 444.235 421.41 427.348C410.777 410.461 393.947 402.017 370.92 402.017C348.04 402.017 331.357 410.425 320.87 427.241C310.383 444.056 304.993 469.923 304.7 504.843V574.609C304.7 611.675 310.2 639.063 321.2 656.773C326.234 665.305 333.577 672.321 342.424 677.053C351.271 681.786 361.281 684.053 371.36 683.606C393.36 683.606 409.75 675.27 420.53 658.598C431.31 641.925 436.81 615.664 437.03 579.815L437.36 508.17Z" fill="white"/>
</g>
<defs>
<clipPath id="clip0_18_501">
<rect width="550" height="805" fill="white"/>
</clipPath>
</defs>
</svg>
