<svg width="550" height="805" viewBox="0 0 550 805" fill="none" xmlns="http://www.w3.org/2000/svg">
<g clip-path="url(#clip0_18_331)">
<path d="M530.75 751.333C530.692 760.567 526.907 769.407 520.215 775.937C513.523 782.467 504.464 786.16 495 786.217H55C45.5363 786.16 36.4767 782.467 29.7847 775.937C23.0927 769.407 19.3077 760.567 19.25 751.333V53.6665C19.3077 44.4323 23.0927 35.5922 29.7847 29.0625C36.4767 22.5328 45.5363 18.8395 55 18.7832H495C504.464 18.8395 513.523 22.5328 520.215 29.0625C526.907 35.5922 530.692 44.4323 530.75 53.6665V751.333Z" fill="#E22521"/>
<path d="M483.395 268.333L470.415 281.75C469.992 282.209 469.475 282.577 468.897 282.828C468.319 283.08 467.693 283.21 467.06 283.21C466.427 283.21 465.801 283.08 465.223 282.828C464.645 282.577 464.128 282.209 463.705 281.75L451 268.333C357.17 171.733 201.41 169.587 109.45 267.85C20.295 363.055 21.45 514.717 112.64 608.473L285.395 786.109H286.935L142.175 637.614C50.875 543.751 49.83 392.25 138.985 296.991C231 198.567 386.76 201.089 480.535 297.528L493.46 310.837C493.897 311.284 494.421 311.639 495.003 311.882C495.584 312.125 496.21 312.25 496.842 312.25C497.475 312.25 498.101 312.125 498.682 311.882C499.264 311.639 499.788 311.284 500.225 310.837L513.15 297.528C518.65 291.678 524.7 286.258 530.75 281.106V230.767C513.414 241.304 497.505 253.925 483.395 268.333Z" fill="#B31F23"/>
<path d="M513.15 297.528L500.5 310.837C500.063 311.284 499.539 311.639 498.957 311.882C498.376 312.125 497.75 312.25 497.118 312.25C496.485 312.25 495.859 312.125 495.278 311.882C494.696 311.639 494.172 311.284 493.735 310.837L480.81 297.528C387.035 200.928 231.275 198.781 139.26 296.991C50.105 392.249 51.26 543.858 142.45 637.613L286.715 786.216H495C504.464 786.16 513.523 782.467 520.215 775.937C526.907 769.407 530.692 760.567 530.75 751.333V281.106C524.7 286.258 518.815 291.678 513.15 297.528Z" fill="#C72325"/>
<path d="M156.42 243.11C153.593 240.128 150.165 237.749 146.35 236.122C142.536 234.495 138.418 233.655 134.255 233.655C130.092 233.655 125.974 234.495 122.16 236.122C118.345 237.749 114.917 240.128 112.09 243.11L110.44 244.881C110.319 244.987 110.162 245.045 110 245.045C109.838 245.045 109.681 244.987 109.56 244.881L107.91 243.11C105.083 240.128 101.655 237.749 97.8403 236.122C94.026 234.495 89.908 233.655 85.745 233.655C81.5821 233.655 77.4641 234.495 73.6497 236.122C69.8354 237.749 66.407 240.128 63.58 243.11C57.9898 249.205 54.931 257.115 55.0023 265.294C55.0735 273.472 58.2695 281.331 63.965 287.332L109.12 333.7C109.228 333.824 109.363 333.924 109.515 333.993C109.667 334.061 109.833 334.097 110 334.097C110.167 334.097 110.333 334.061 110.485 333.993C110.637 333.924 110.772 333.824 110.88 333.7L156.035 287.332C161.731 281.331 164.927 273.472 164.998 265.294C165.069 257.115 162.01 249.205 156.42 243.11ZM132.44 190.732H104.5V85.8669L71.17 95.9562V73.5773L129.47 53.1839H132.44V190.732ZM253 134.167C253 153.165 248.967 167.691 240.9 177.744C236.666 182.829 231.246 186.851 225.094 189.474C218.942 192.098 212.235 193.247 205.535 192.825C198.898 193.166 192.271 191.985 186.187 189.375C180.102 186.766 174.73 182.8 170.5 177.798C162.415 167.923 158.235 153.809 158.015 135.348V110.071C158.015 90.9116 162.14 76.3679 170.28 66.3859C174.54 61.3868 179.947 57.4363 186.062 54.8538C192.177 52.2713 198.829 51.1293 205.48 51.5203C212.123 51.1122 218.77 52.2355 224.886 54.7994C231.001 57.3633 236.411 61.2957 240.68 66.2786C248.82 76.0996 253 90.2676 253.165 108.675L253 134.167ZM225.06 106.368C225.662 97.8051 224.015 89.2344 220.275 81.4663C218.736 78.9699 216.532 76.9277 213.898 75.5573C211.263 74.1869 208.297 73.5397 205.315 73.6846C202.434 73.5163 199.56 74.1167 197.002 75.4215C194.444 76.7262 192.298 78.686 190.795 81.0906C187.146 88.2819 185.424 96.2581 185.79 104.275V137.709C185.255 146.297 186.879 154.882 190.52 162.718C191.969 165.33 194.151 167.485 196.81 168.929C199.47 170.374 202.496 171.049 205.535 170.875C208.508 171.071 211.478 170.438 214.097 169.051C216.716 167.664 218.878 165.579 220.33 163.04C223.865 155.532 225.488 147.302 225.06 139.051V106.368Z" fill="white"/>
<path d="M495 0H55C40.4131 0 26.4236 5.65415 16.1091 15.7186C5.79463 25.7831 0 39.4334 0 53.6667L0 751.333C0 765.567 5.79463 779.217 16.1091 789.281C26.4236 799.346 40.4131 805 55 805H495C509.587 805 523.576 799.346 533.891 789.281C544.205 779.217 550 765.567 550 751.333V53.6667C550 39.4334 544.205 25.7831 533.891 15.7186C523.576 5.65415 509.587 0 495 0ZM530.75 751.333C530.692 760.568 526.907 769.408 520.215 775.937C513.523 782.467 504.464 786.16 495 786.217H55C45.5363 786.16 36.4767 782.467 29.7847 775.937C23.0927 769.408 19.3077 760.568 19.25 751.333V53.6667C19.3077 44.4324 23.0927 35.5924 29.7847 29.0626C36.4767 22.5329 45.5363 18.8396 55 18.7833H495C504.464 18.8396 513.523 22.5329 520.215 29.0626C526.907 35.5924 530.692 44.4324 530.75 53.6667V751.333Z" fill="white"/>
<path d="M204.655 708.4H159.5V417.634L69.355 449.834V410.282L197.45 363.377H204.435L204.655 708.4ZM482.075 561.944C482.075 613.035 473.128 651.013 455.235 675.878C437.342 700.744 409.402 713.159 371.415 713.123C333.868 713.123 306.057 700.976 287.98 676.683C269.903 652.39 260.572 616.112 259.985 567.847V509.834C259.985 459.387 268.913 421.82 286.77 397.134C304.627 372.447 332.677 360.193 370.92 360.372C408.76 360.372 436.627 372.197 454.52 395.846C472.413 419.495 481.58 456.006 482.02 505.379L482.075 561.944ZM437.36 502.267C437.36 465.344 432.043 438.511 421.41 421.767C410.777 405.023 393.947 396.579 370.92 396.436C348.04 396.436 331.357 404.844 320.87 421.659C310.383 438.475 304.993 464.289 304.7 499.1V568.867C304.7 606.004 310.2 633.41 321.2 651.084C326.249 659.581 333.605 666.552 342.455 671.23C351.306 675.908 361.308 678.111 371.36 677.596C393.36 677.596 409.75 669.259 420.53 652.587C431.31 635.915 436.81 609.672 437.03 573.858L437.36 502.267Z" fill="white"/>
</g>
<defs>
<clipPath id="clip0_18_331">
<rect width="550" height="805" fill="white"/>
</clipPath>
</defs>
</svg>
