<svg width="550" height="805" viewBox="0 0 550 805" fill="none" xmlns="http://www.w3.org/2000/svg">
<g clip-path="url(#clip0_18_241)">
<path d="M530.75 751.333C530.692 760.567 526.907 769.407 520.215 775.937C513.523 782.467 504.464 786.16 495 786.216H55C45.5363 786.16 36.4767 782.467 29.7847 775.937C23.0927 769.407 19.3077 760.567 19.25 751.333V53.6665C19.3077 44.4323 23.0927 35.5922 29.7847 29.0625C36.4767 22.5328 45.5363 18.8395 55 18.7832H495C504.464 18.8395 513.523 22.5328 520.215 29.0625C526.907 35.5922 530.692 44.4323 530.75 53.6665V751.333Z" fill="#3A992C"/>
<path d="M495 0H55C40.4131 0 26.4236 5.65415 16.1091 15.7186C5.79463 25.7831 0 39.4334 0 53.6667L0 751.333C0 765.567 5.79463 779.217 16.1091 789.281C26.4236 799.346 40.4131 805 55 805H495C509.587 805 523.576 799.346 533.891 789.281C544.205 779.217 550 765.567 550 751.333V53.6667C550 39.4334 544.205 25.7831 533.891 15.7186C523.576 5.65415 509.587 0 495 0ZM530.75 751.333C530.692 760.568 526.907 769.408 520.215 775.937C513.523 782.467 504.464 786.16 495 786.217H55C45.5363 786.16 36.4767 782.467 29.7847 775.937C23.0927 769.408 19.3077 760.568 19.25 751.333V53.6667C19.3077 44.4324 23.0927 35.5924 29.7847 29.0626C36.4767 22.5329 45.5363 18.8396 55 18.7833H495C504.464 18.8396 513.523 22.5329 520.215 29.0626C526.907 35.5924 530.692 44.4324 530.75 53.6667V751.333Z" fill="white"/>
<path d="M63.525 777.468C44.69 759.223 29.6548 737.59 19.25 713.766V738.346C31.9599 753.437 46.8783 766.619 63.525 777.468ZM456.17 741.888C456.642 743.476 456.9 745.118 456.94 746.771C461.945 750.742 467.17 754.553 472.505 758.31C466.785 752.997 461.285 747.576 456.17 741.888ZM198.88 254.004C198.88 311.374 224.895 377.062 263.175 426.435C235.127 415.681 205.309 409.989 175.175 409.637C145.286 409.599 115.768 416.091 88.7869 428.637C61.8054 441.183 38.0453 459.465 19.25 482.141V554.967C34.6374 519.147 60.5047 488.547 93.6179 466.994C126.731 445.441 165.621 433.891 205.425 433.787C235.557 434.161 265.37 439.851 293.425 450.585C254.925 401.265 228.855 335.524 229.13 278.154C229.68 167.064 320.925 78.2456 431.86 78.7286C466.655 78.854 500.801 87.9241 530.86 105.025V101.966C494.93 71.5922 449.038 54.7809 401.5 54.5786C290.62 54.0419 199.43 142.914 198.88 254.004ZM370.48 775.536C369.71 779.025 368.83 782.62 367.895 786.27H403.425C406.154 771.552 407.845 756.67 408.485 741.727C396.949 754.152 384.223 765.473 370.48 775.536Z" fill="#297A38"/>
<path d="M73.095 786.217H78.155C73.15 783.533 68.255 780.582 63.525 777.469C66.605 780.474 69.795 783.533 73.095 786.217ZM506 784.553C508.284 783.804 510.494 782.852 512.6 781.709C498.729 774.89 485.4 767.069 472.725 758.31C483.148 767.835 494.269 776.606 506 784.553ZM425.975 717.684C428.291 740.736 432.075 763.624 437.305 786.217H462C458.81 768.453 457.49 754.017 456.5 746.772C445.528 737.905 435.319 728.177 425.975 717.684ZM378.235 717.47C350.831 746.681 317.564 770.081 280.5 786.217H355.19C360.69 782.836 365.475 779.24 370.48 775.483C374.765 756.398 377.359 736.989 378.235 717.47Z" fill="#328840"/>
<path d="M229.075 278.154C229.075 335.524 255.09 401.265 293.37 450.585C265.315 439.851 235.502 434.16 205.37 433.787C165.575 433.901 126.697 445.457 93.595 467.009C60.4926 488.562 34.6338 519.155 19.25 554.967V713.766C29.6424 737.629 44.6782 759.299 63.525 777.576C68.255 780.689 73.15 783.64 78.155 786.324H280.5C317.662 770.22 351.026 746.818 378.51 717.577C377.637 737.114 375.043 756.541 370.755 775.644C384.5 765.563 397.226 754.224 408.76 741.78C408.12 756.723 406.429 771.606 403.7 786.324H437.58C432.35 763.731 428.566 740.843 426.25 717.791C435.734 728.301 446.091 738.03 457.215 746.879C457.175 745.225 456.917 743.583 456.445 741.995C461.56 747.684 467.06 753.104 472.945 758.417C485.62 767.176 498.949 774.997 512.82 781.816C518.287 778.717 522.822 774.269 525.97 768.918C529.117 763.567 530.766 757.502 530.75 751.333V105.025C500.691 87.924 466.545 78.8539 431.75 78.7285C320.87 78.2455 229.625 167.064 229.075 278.154Z" fill="#328840"/>
<path d="M119.955 337.778H100.265C106.7 331.392 106.975 318.458 106.975 318.458C103.636 322.039 99.6033 324.94 95.1102 326.994C90.6171 329.047 85.752 330.214 80.795 330.426C73.8371 330.426 67.1641 327.728 62.2441 322.928C57.324 318.127 54.56 311.616 54.56 304.827C54.56 298.037 57.324 291.526 62.2441 286.725C67.1641 281.925 73.8371 279.228 80.795 279.228C84.5594 279.287 88.2833 279.996 91.795 281.321C86.7284 275.014 83.8057 267.322 83.435 259.317C83.2738 255.911 83.8223 252.507 85.0473 249.313C86.2723 246.119 88.1484 243.201 90.5621 240.735C92.9758 238.268 95.877 236.305 99.0904 234.964C102.304 233.622 105.762 232.931 109.258 232.931C112.753 232.931 116.211 233.622 119.425 234.964C122.638 236.305 125.539 238.268 127.953 240.735C130.367 243.201 132.243 246.119 133.468 249.313C134.693 252.507 135.241 255.911 135.08 259.317C134.78 267.471 131.769 275.307 126.5 281.643C130.521 279.98 134.838 279.105 139.205 279.067C146.163 279.067 152.836 281.764 157.756 286.564C162.676 291.365 165.44 297.876 165.44 304.666C165.44 311.455 162.676 317.966 157.756 322.767C152.836 327.567 146.163 330.265 139.205 330.265C134.255 330.073 129.393 328.926 124.899 326.89C120.406 324.854 116.37 321.97 113.025 318.404C113.3 318.565 113.52 331.284 119.955 337.778ZM116.655 190.731H88.715V85.8665L55.33 95.9558V73.5769L113.63 53.1835H116.655V190.731ZM237.325 134.167C237.325 153.165 233.255 167.708 225.225 177.744C220.988 182.825 215.568 186.845 209.416 189.468C203.265 192.091 196.56 193.242 189.86 192.824C183.219 193.219 176.575 192.09 170.462 189.527C164.349 186.964 158.937 183.039 154.66 178.066C146.52 168.191 142.358 154.023 142.175 135.562V110.07C142.175 90.9291 146.245 76.3854 154.385 66.4392C158.645 61.4228 164.058 57.4574 170.184 54.8651C176.309 52.2729 182.975 51.1268 189.64 51.5199C196.281 51.1289 202.923 52.26 209.035 54.8227C215.147 57.3854 220.56 61.3085 224.84 66.2782C232.98 76.0992 237.105 90.2672 237.325 108.675V134.167ZM209.385 106.367C209.995 97.8216 208.347 89.2663 204.6 81.5195C203.068 79.0132 200.867 76.9603 198.232 75.5802C195.597 74.2001 192.627 73.5447 189.64 73.6842C186.751 73.5118 183.867 74.1101 181.3 75.4147C178.732 76.7194 176.577 78.6813 175.065 81.0902C171.44 88.2879 169.737 96.2627 170.115 104.274V137.709C169.568 146.292 171.172 154.875 174.79 162.717C176.243 165.338 178.433 167.499 181.104 168.944C183.774 170.389 186.812 171.059 189.86 170.875C192.833 171.064 195.799 170.428 198.417 169.042C201.035 167.655 203.198 165.574 204.655 163.039C208.163 155.523 209.785 147.3 209.385 139.05V106.367ZM204.655 714.035H159.5V423.215L69.355 455.415V415.917L197.45 368.958H204.435L204.655 714.035ZM482.075 567.579C482.075 618.669 473.147 656.629 455.29 681.459C437.433 706.289 409.475 718.811 371.415 719.026C333.868 719.026 306.075 706.879 288.035 682.586C269.995 658.293 260.645 622.014 259.985 573.75V515.2C259.985 464.753 268.913 427.187 286.77 402.5C304.627 377.813 332.677 365.541 370.92 365.685C408.76 365.685 436.627 377.527 454.52 401.212C472.413 424.897 481.58 461.408 482.02 510.746L482.075 567.579ZM437.36 507.901C437.36 470.943 432.043 444.109 421.41 427.401C410.777 410.693 393.947 402.232 370.92 402.017C348.04 402.017 331.357 410.443 320.87 427.294C310.383 444.145 304.993 469.869 304.7 504.467V574.233C304.7 611.371 310.2 638.776 321.2 656.451C326.277 664.922 333.638 671.873 342.482 676.548C351.326 681.222 361.314 683.441 371.36 682.962C393.36 682.962 409.75 674.626 420.53 657.953C431.31 641.281 436.81 615.02 437.03 579.171L437.36 507.901Z" fill="white"/>
</g>
<defs>
<clipPath id="clip0_18_241">
<rect width="550" height="805" fill="white"/>
</clipPath>
</defs>
</svg>
