<svg width="550" height="805" viewBox="0 0 550 805" fill="none" xmlns="http://www.w3.org/2000/svg">
<g clip-path="url(#clip0_18_406)">
<path d="M530.75 751.333C530.692 760.567 526.907 769.407 520.215 775.937C513.523 782.467 504.464 786.16 495 786.217H55C45.5363 786.16 36.4767 782.467 29.7847 775.937C23.0927 769.407 19.3077 760.567 19.25 751.333V53.6665C19.3077 44.4323 23.0927 35.5922 29.7847 29.0625C36.4767 22.5328 45.5363 18.8395 55 18.7832H495C504.464 18.8395 513.523 22.5328 520.215 29.0625C526.907 35.5922 530.692 44.4323 530.75 53.6665V751.333Z" fill="#1F86BF"/>
<path d="M495 0H55C40.4131 0 26.4236 5.65415 16.1091 15.7186C5.79463 25.7831 0 39.4334 0 53.6667L0 751.333C0 765.567 5.79463 779.217 16.1091 789.281C26.4236 799.346 40.4131 805 55 805H495C509.587 805 523.576 799.346 533.891 789.281C544.205 779.217 550 765.567 550 751.333V53.6667C550 39.4334 544.205 25.7831 533.891 15.7186C523.576 5.65415 509.587 0 495 0ZM530.75 751.333C530.692 760.568 526.907 769.408 520.215 775.937C513.523 782.467 504.464 786.16 495 786.217H55C45.5363 786.16 36.4767 782.467 29.7847 775.937C23.0927 769.408 19.3077 760.568 19.25 751.333V53.6667C19.3077 44.4324 23.0927 35.5924 29.7847 29.0626C36.4767 22.5329 45.5363 18.8396 55 18.7833H495C504.464 18.8396 513.523 22.5329 520.215 29.0626C526.907 35.5924 530.692 44.4324 530.75 53.6667V751.333Z" fill="white"/>
<path d="M69.3 588.885C68.6491 587.981 68.2998 586.903 68.2998 585.799C68.2998 584.694 68.6491 583.617 69.3 582.713L392.7 136.528L374 110.983C373.504 110.218 372.818 109.588 372.005 109.152C371.193 108.715 370.28 108.486 369.352 108.486C368.425 108.486 367.512 108.715 366.7 109.152C365.887 109.588 365.201 110.218 364.705 110.983L22 583.572C21.3368 584.481 20.9804 585.569 20.9804 586.684C20.9804 587.8 21.3368 588.888 22 589.797L162.36 786.217H210.045L69.3 588.885Z" fill="#1B71A1"/>
<path d="M411.95 110.016L392.7 136.474L530.75 326.83V261.195L421.19 110.016C420.694 109.251 420.008 108.622 419.195 108.185C418.383 107.748 417.47 107.52 416.543 107.52C415.615 107.52 414.702 107.748 413.89 108.185C413.077 108.622 412.391 109.251 411.895 110.016H411.95ZM69.3 582.712C68.6491 583.616 68.2998 584.694 68.2998 585.798C68.2998 586.903 68.6491 587.98 69.3 588.884L210.32 786.216H495C504.464 786.16 513.523 782.467 520.215 775.937C526.907 769.407 530.692 760.567 530.75 751.333V326.937L392.7 136.528L69.3 582.712Z" fill="#1E7BAF"/>
<path d="M132.44 190.731H104.5V85.8663L71.17 95.9557V73.523L129.47 53.1297H132.44V190.731ZM253 134.166C253 153.129 248.967 167.654 240.9 177.744C236.672 182.835 231.253 186.862 225.1 189.486C218.946 192.11 212.236 193.255 205.535 192.824C198.904 193.164 192.282 191.987 186.2 189.387C180.117 186.788 174.741 182.837 170.5 177.851C162.415 167.976 158.235 153.808 158.07 135.347V110.124C158.07 90.9826 162.14 76.4389 170.28 66.4927C174.532 61.4805 179.935 57.5174 186.051 54.9251C192.167 52.3329 198.824 51.1845 205.48 51.5733C212.114 51.1695 218.752 52.2951 224.858 54.859C230.963 57.4229 236.365 61.3531 240.625 66.3317C248.765 76.1527 252.945 90.3207 253.11 108.728L253 134.166ZM225.06 106.367C225.67 97.8214 224.022 89.2661 220.275 81.5193C218.78 78.9927 216.594 76.9216 213.962 75.5379C211.33 74.1541 208.355 73.5122 205.37 73.684C202.48 73.5057 199.594 74.1013 197.026 75.4066C194.457 76.7118 192.302 78.6771 190.795 81.09C187.142 88.2785 185.438 96.2603 185.845 104.274V137.708C185.298 146.291 186.902 154.875 190.52 162.717C191.969 165.329 194.151 167.484 196.81 168.929C199.47 170.374 202.496 171.049 205.535 170.874C208.508 171.07 211.478 170.437 214.097 169.05C216.716 167.663 218.878 165.578 220.33 163.039C223.865 155.532 225.488 147.301 225.06 139.05V106.367ZM204.6 714.035H159.5V423.161L69.3 455.361V415.916L197.45 368.958H204.435L204.6 714.035ZM482.075 567.525C482.075 618.615 473.128 656.576 455.235 681.405C437.342 706.235 409.383 718.757 371.36 718.972C333.85 718.972 306.057 706.807 287.98 682.479C269.903 658.15 260.553 621.835 259.93 573.535V515.2C259.93 464.753 268.858 427.186 286.715 402.5C304.572 377.813 332.622 365.541 370.865 365.684C408.705 365.684 436.572 377.527 454.465 401.212C472.358 424.897 481.525 461.39 481.965 510.692L482.075 567.525ZM437.36 507.847C437.36 470.889 432.043 444.056 421.41 427.347C410.777 410.639 393.947 402.178 370.92 401.963C348.04 401.963 331.357 410.371 320.87 427.186C310.42 444.038 304.92 470.12 304.7 504.788V574.555C304.7 611.692 310.2 639.098 321.2 656.772C326.273 665.236 333.625 672.181 342.458 676.855C351.292 681.529 361.268 683.752 371.305 683.284C393.305 683.284 409.805 674.947 420.805 658.275C431.805 641.603 437.305 615.342 437.305 579.492L437.36 507.847ZM154 301.177L105.16 233.986C105.083 233.886 104.983 233.805 104.869 233.749C104.754 233.693 104.628 233.664 104.5 233.664C104.372 233.664 104.246 233.693 104.131 233.749C104.016 233.805 103.917 233.886 103.84 233.986L55 301.177C54.8974 301.308 54.8418 301.468 54.8418 301.633C54.8418 301.798 54.8974 301.958 55 302.089L103.84 370.3C103.917 370.4 104.016 370.481 104.131 370.537C104.246 370.593 104.372 370.622 104.5 370.622C104.628 370.622 104.754 370.593 104.869 370.537C104.983 370.481 105.083 370.4 105.16 370.3L154 302.143C154.103 302.012 154.158 301.852 154.158 301.687C154.158 301.522 154.103 301.362 154 301.231V301.177Z" fill="white"/>
</g>
<defs>
<clipPath id="clip0_18_406">
<rect width="550" height="805" fill="white"/>
</clipPath>
</defs>
</svg>
