<svg width="550" height="805" viewBox="0 0 550 805" fill="none" xmlns="http://www.w3.org/2000/svg">
<g clip-path="url(#clip0_18_296)">
<path d="M530.75 751.333C530.692 760.567 526.907 769.407 520.215 775.937C513.523 782.467 504.464 786.16 495 786.216H55C45.5363 786.16 36.4767 782.467 29.7847 775.937C23.0927 769.407 19.3077 760.567 19.25 751.333V53.6665C19.3077 44.4323 23.0927 35.5922 29.7847 29.0625C36.4767 22.5328 45.5363 18.8395 55 18.7832H495C504.464 18.8395 513.523 22.5328 520.215 29.0625C526.907 35.5922 530.692 44.4323 530.75 53.6665V751.333Z" fill="#E22521"/>
<path d="M483.45 268.333L470.47 281.75C470.047 282.209 469.53 282.577 468.952 282.828C468.374 283.08 467.748 283.21 467.115 283.21C466.482 283.21 465.856 283.08 465.278 282.828C464.7 282.577 464.183 282.209 463.76 281.75L451 268.333C357.17 171.733 201.41 169.587 109.45 267.797C20.3501 363.001 21.4501 514.663 112.64 608.419L285.34 786.056H286.88L142.175 637.56C50.8751 543.643 49.7751 392.196 138.985 296.938C231 198.567 386.76 201.089 480.535 297.528L493.46 310.837C493.897 311.284 494.421 311.639 495.003 311.882C495.584 312.125 496.21 312.25 496.843 312.25C497.475 312.25 498.101 312.125 498.682 311.882C499.264 311.639 499.789 311.284 500.225 310.837L513.15 297.528C518.65 291.625 524.7 286.258 530.75 281.106V230.767C513.415 241.304 497.505 253.925 483.395 268.333H483.45Z" fill="#B31F23"/>
<path d="M513.15 297.528L500.5 310.837C500.064 311.284 499.539 311.639 498.957 311.882C498.376 312.125 497.75 312.25 497.118 312.25C496.485 312.25 495.859 312.125 495.278 311.882C494.697 311.639 494.172 311.284 493.735 310.837L480.81 297.528C387.035 200.928 231.275 198.781 139.26 296.991C50.1601 392.249 51.2601 543.858 142.45 637.613L286.715 786.27H495C504.464 786.214 513.524 782.52 520.215 775.991C526.907 769.461 530.692 760.621 530.75 751.387V281.106C524.7 286.258 518.815 291.678 513.15 297.528Z" fill="#C72325"/>
<path d="M156.42 243.11C153.593 240.128 150.165 237.749 146.35 236.122C142.536 234.495 138.418 233.655 134.255 233.655C130.092 233.655 125.974 234.495 122.16 236.122C118.345 237.749 114.917 240.128 112.09 243.11L110.44 244.881C110.319 244.987 110.162 245.045 110 245.045C109.838 245.045 109.681 244.987 109.56 244.881L107.91 243.11C105.083 240.128 101.655 237.749 97.8403 236.122C94.0259 234.495 89.908 233.655 85.745 233.655C81.582 233.655 77.4641 234.495 73.6497 236.122C69.8353 237.749 66.407 240.128 63.58 243.11C57.9898 249.204 54.931 257.115 55.0022 265.293C55.0734 273.472 58.2695 281.331 63.965 287.331L109.065 333.699C109.173 333.824 109.308 333.924 109.46 333.992C109.612 334.061 109.778 334.096 109.945 334.096C110.112 334.096 110.278 334.061 110.43 333.992C110.582 333.924 110.717 333.824 110.825 333.699L155.925 287.331C161.621 281.331 164.817 273.472 164.888 265.293C164.959 257.115 161.9 249.204 156.31 243.11H156.42ZM161.04 190.731H64.57V172.055L110 124.721C115.255 119.408 119.936 113.581 123.97 107.333C126.753 103.093 128.312 98.1981 128.48 93.1653C128.782 87.9651 127.097 82.8402 123.75 78.7827C122.036 76.975 119.935 75.5573 117.597 74.6299C115.259 73.7025 112.741 73.2881 110.22 73.416C107.392 73.2912 104.572 73.8021 101.978 74.9094C99.384 76.0167 97.0856 77.6908 95.26 79.8023C91.4322 84.5616 89.4807 90.5026 89.76 96.5463H61.71C61.6139 88.5062 63.742 80.5897 67.87 73.6307C71.9635 66.7695 77.9722 61.1857 85.195 57.5307C93.0162 53.4955 101.759 51.4643 110.605 51.6273C122.778 50.8768 134.812 54.5043 144.43 61.824C148.514 65.4346 151.717 69.8932 153.801 74.8715C155.886 79.8498 156.8 85.2209 156.475 90.5893C156.341 97.8209 154.456 104.919 150.975 111.305C145.972 120.299 139.736 128.586 132.44 135.938L100.43 168.889H160.93L161.04 190.731ZM495 0H55C40.4131 0 26.4236 5.65415 16.1091 15.7186C5.79463 25.7831 0 39.4334 0 53.6667L0 751.333C0 765.567 5.79463 779.217 16.1091 789.281C26.4236 799.346 40.4131 805 55 805H495C509.587 805 523.576 799.346 533.891 789.281C544.205 779.217 550 765.567 550 751.333V53.6667C550 39.4334 544.205 25.7831 533.891 15.7186C523.576 5.65415 509.587 0 495 0ZM530.75 751.333C530.692 760.568 526.907 769.408 520.215 775.937C513.523 782.467 504.464 786.16 495 786.217H55C45.5363 786.16 36.4767 782.467 29.7847 775.937C23.0927 769.408 19.3077 760.568 19.25 751.333V53.6667C19.3077 44.4324 23.0927 35.5924 29.7847 29.0626C36.4767 22.5329 45.5363 18.8396 55 18.7833H495C504.464 18.8396 513.523 22.5329 520.215 29.0626C526.907 35.5924 530.692 44.4324 530.75 53.6667V751.333ZM476.85 708.4H246.29V677.059L368.115 545.039C382.317 530.148 394.837 513.811 405.46 496.309C412.14 484.411 415.675 471.075 415.745 457.508C416.417 441.257 410.487 425.403 399.245 413.394C393.5 407.633 386.569 403.124 378.91 400.164C371.25 397.204 363.035 395.86 354.805 396.221C332.548 396.221 315.26 402.393 302.94 414.736C290.62 427.079 284.46 444.253 284.46 466.256H239.525C239.525 434.628 249.975 409.083 270.875 389.62C291.775 370.157 319.697 360.407 354.64 360.372C387.273 360.372 413.123 368.744 432.19 385.488C451.257 402.232 460.79 424.521 460.79 452.356C460.79 486.095 438.79 526.345 394.79 573.106L300.3 672.819H476.85V708.4Z" fill="white"/>
</g>
<defs>
<clipPath id="clip0_18_296">
<rect width="550" height="805" fill="white"/>
</clipPath>
</defs>
</svg>
