<svg width="550" height="805" viewBox="0 0 550 805" fill="none" xmlns="http://www.w3.org/2000/svg">
<g clip-path="url(#clip0_18_393)">
<path d="M530.75 751.333C530.692 760.567 526.907 769.407 520.215 775.937C513.523 782.467 504.464 786.16 495 786.217H55C45.5363 786.16 36.4767 782.467 29.7847 775.937C23.0927 769.407 19.3077 760.567 19.25 751.333V53.6665C19.3077 44.4323 23.0927 35.5922 29.7847 29.0625C36.4767 22.5328 45.5363 18.8395 55 18.7832H495C504.464 18.8395 513.523 22.5328 520.215 29.0625C526.907 35.5922 530.692 44.4323 530.75 53.6665V751.333Z" fill="#3A992C"/>
<path d="M495 0H55C40.4131 0 26.4236 5.65415 16.1091 15.7186C5.79463 25.7831 0 39.4334 0 53.6667L0 751.333C0 765.567 5.79463 779.217 16.1091 789.281C26.4236 799.346 40.4131 805 55 805H495C509.587 805 523.576 799.346 533.891 789.281C544.205 779.217 550 765.567 550 751.333V53.6667C550 39.4334 544.205 25.7831 533.891 15.7186C523.576 5.65415 509.587 0 495 0ZM530.75 751.333C530.692 760.568 526.907 769.408 520.215 775.937C513.523 782.467 504.464 786.16 495 786.217H55C45.5363 786.16 36.4767 782.467 29.7847 775.937C23.0927 769.408 19.3077 760.568 19.25 751.333V53.6667C19.3077 44.4324 23.0927 35.5924 29.7847 29.0626C36.4767 22.5329 45.5363 18.8396 55 18.7833H495C504.464 18.8396 513.523 22.5329 520.215 29.0626C526.907 35.5924 530.692 44.4324 530.75 53.6667V751.333Z" fill="white"/>
<path d="M63.525 777.469C44.69 759.223 29.6548 737.591 19.25 713.766V738.346C31.9599 753.437 46.8783 766.619 63.525 777.469ZM370.425 775.483L367.84 786.216H403.37C406.099 771.499 407.79 756.616 408.43 741.673C396.881 754.085 384.156 765.405 370.425 775.483ZM198.825 254.004C198.825 311.427 224.84 377.062 263.175 426.435C235.127 415.681 205.309 409.989 175.175 409.637C145.286 409.599 115.768 416.091 88.7869 428.637C61.8054 441.183 38.0453 459.465 19.25 482.141V554.967C34.6374 519.147 60.5047 488.547 93.6179 466.994C126.731 445.441 165.621 433.891 205.425 433.787C235.557 434.161 265.37 439.851 293.425 450.585C254.925 401.212 228.855 335.524 229.075 278.154C229.625 167.064 320.925 78.2456 431.805 78.7286C466.6 78.854 500.746 87.9241 530.805 105.025V101.966C494.89 71.6042 449.02 54.7938 401.5 54.5786C290.62 54.0419 199.43 142.914 198.88 254.004H198.825ZM456.115 741.834C456.587 743.423 456.845 745.064 456.885 746.718L472.45 758.256L456.115 741.834Z" fill="#297A38"/>
<path d="M506 784.607C508.284 783.857 510.494 782.905 512.6 781.762C498.729 774.944 485.4 767.122 472.725 758.364C483.148 767.889 494.269 776.66 506 784.607ZM425.975 717.684C428.291 740.736 432.075 763.624 437.305 786.217H462L456.5 746.772C445.528 737.905 435.319 728.177 425.975 717.684ZM378.235 717.523C350.826 746.715 317.559 770.097 280.5 786.217H355.19C360.69 782.836 365.475 779.24 370.48 775.483C374.764 756.398 377.359 736.989 378.235 717.47V717.523ZM63.5249 777.469L73.0949 786.217H78.1549L63.5249 777.469Z" fill="#328840"/>
<path d="M229.075 278.154C229.075 335.578 255.09 401.266 293.425 450.585C265.37 439.852 235.557 434.161 205.425 433.788C165.621 433.891 126.731 445.442 93.6179 466.995C60.5047 488.548 34.6374 519.147 19.25 554.967V713.767C29.6424 737.629 44.6782 759.299 63.525 777.576C68.255 780.689 73.15 783.641 78.155 786.324H280.5C317.662 770.22 351.026 746.818 378.51 717.577C377.637 737.114 375.043 756.541 370.755 775.644C384.488 765.55 397.213 754.212 408.76 741.781C408.12 756.724 406.429 771.607 403.7 786.324H437.58C432.35 763.731 428.566 740.843 426.25 717.792C435.734 728.302 446.091 738.03 457.215 746.879C457.175 745.225 456.917 743.584 456.445 741.995C461.56 747.684 467.06 753.104 472.945 758.417C485.62 767.176 498.949 774.997 512.82 781.816C518.287 778.717 522.822 774.269 525.97 768.918C529.117 763.567 530.766 757.503 530.75 751.333V105.026C500.691 87.9245 466.545 78.8544 431.75 78.729C320.87 78.1923 229.625 167.064 229.075 278.154Z" fill="#328840"/>
<path d="M119.9 337.778H100.21C106.645 331.338 106.92 318.458 106.92 318.458C103.581 322.039 99.5482 324.94 95.0551 326.994C90.562 329.048 85.6969 330.214 80.7399 330.426C73.7819 330.426 67.109 327.729 62.1889 322.928C57.2689 318.127 54.5049 311.616 54.5049 304.827C54.5049 298.037 57.2689 291.526 62.1889 286.725C67.109 281.925 73.7819 279.228 80.7399 279.228C84.5043 279.287 88.2282 279.996 91.7399 281.321C86.6732 275.014 83.7506 267.322 83.3799 259.317C83.2187 255.911 83.7672 252.507 84.9922 249.313C86.2172 246.119 88.0933 243.201 90.507 240.735C92.9207 238.268 95.8219 236.305 99.0353 234.964C102.249 233.622 105.707 232.931 109.202 232.931C112.697 232.931 116.156 233.622 119.37 234.964C122.583 236.305 125.484 238.268 127.898 240.735C130.312 243.201 132.188 246.119 133.413 249.313C134.638 252.507 135.186 255.911 135.025 259.317C134.741 267.464 131.749 275.3 126.5 281.643C130.521 279.98 134.838 279.105 139.205 279.067C146.163 279.067 152.836 281.764 157.756 286.564C162.676 291.365 165.44 297.876 165.44 304.666C165.44 311.455 162.676 317.966 157.756 322.767C152.836 327.568 146.163 330.265 139.205 330.265C134.255 330.073 129.392 328.926 124.899 326.89C120.405 324.854 116.37 321.97 113.025 318.404C113.3 318.565 113.575 331.284 119.955 337.724L119.9 337.778ZM161.04 190.731H64.5699V172.055L110 124.721C115.238 119.394 119.918 113.569 123.97 107.333C126.753 103.093 128.311 98.198 128.48 93.1652C128.782 87.965 127.097 82.8401 123.75 78.7825C122.036 76.9749 119.935 75.5572 117.597 74.6298C115.259 73.7023 112.74 73.2879 110.22 73.4159C107.392 73.2911 104.572 73.802 101.978 74.9093C99.3839 76.0166 97.0855 77.6906 95.2599 79.8022C91.4321 84.5615 89.4806 90.5025 89.7599 96.5462H61.7099C61.6138 88.5061 63.7419 80.5896 67.8699 73.6305C71.9634 66.7694 77.972 61.1855 85.1949 57.5305C93.0161 53.4954 101.759 51.4641 110.605 51.6272C122.778 50.8767 134.812 54.5042 144.43 61.8239C148.514 65.4345 151.717 69.8931 153.801 74.8714C155.886 79.8497 156.8 85.2208 156.475 90.5892C156.34 97.8208 154.456 104.919 150.975 111.305C145.95 120.286 139.717 128.57 132.44 135.938L100.43 168.889H160.93L161.04 190.731ZM476.85 713.981H246.29V682.586L368.115 550.566C382.313 535.693 394.834 519.374 405.46 501.891C412.123 489.988 415.639 476.652 415.69 463.09C416.368 446.837 410.438 430.981 399.19 418.976C393.456 413.196 386.529 408.672 378.867 405.702C371.206 402.732 362.985 401.385 354.75 401.749C332.493 401.749 315.205 407.92 302.885 420.264C290.565 432.607 284.405 449.78 284.405 471.784H239.525C239.525 440.228 249.975 414.682 270.875 395.148C291.775 375.613 319.697 365.863 354.64 365.899C387.273 365.899 413.123 374.271 432.19 391.015C451.257 407.759 460.79 430.049 460.79 457.884C460.79 491.694 438.79 531.944 394.79 578.634L300.3 678.454H476.85V713.981Z" fill="white"/>
</g>
<defs>
<clipPath id="clip0_18_393">
<rect width="550" height="805" fill="white"/>
</clipPath>
</defs>
</svg>
