<svg width="550" height="805" viewBox="0 0 550 805" fill="none" xmlns="http://www.w3.org/2000/svg">
<g clip-path="url(#clip0_34_595)">
<path d="M530.75 751.333C530.692 760.568 526.907 769.407 520.215 775.937C513.523 782.467 504.464 786.16 495 786.217H55C45.5363 786.16 36.4767 782.467 29.7847 775.937C23.0927 769.407 19.3077 760.568 19.25 751.333V53.6665C19.3077 44.4323 23.0927 35.5922 29.7847 29.0625C36.4767 22.5328 45.5363 18.8395 55 18.7832H495C504.464 18.8395 513.523 22.5328 520.215 29.0625C526.907 35.5922 530.692 44.4323 530.75 53.6665V751.333Z" fill="#3B3B3B"/>
<path d="M495 0H55C40.4131 0 26.4236 5.65415 16.1091 15.7186C5.79463 25.7831 0 39.4334 0 53.6667L0 751.333C0 765.567 5.79463 779.217 16.1091 789.281C26.4236 799.346 40.4131 805 55 805H495C509.587 805 523.576 799.346 533.891 789.281C544.205 779.217 550 765.567 550 751.333V53.6667C550 39.4334 544.205 25.7831 533.891 15.7186C523.576 5.65415 509.587 0 495 0ZM530.75 751.333C530.692 760.568 526.907 769.408 520.215 775.937C513.523 782.467 504.464 786.16 495 786.217H55C45.5363 786.16 36.4767 782.467 29.7847 775.937C23.0927 769.408 19.3077 760.568 19.25 751.333V53.6667C19.3077 44.4324 23.0927 35.5924 29.7847 29.0626C36.4767 22.5329 45.5363 18.8396 55 18.7833H495C504.464 18.8396 513.523 22.5329 520.215 29.0626C526.907 35.5924 530.692 44.4324 530.75 53.6667V751.333Z" fill="white"/>
<path d="M489.885 759.222C500.206 764.939 510.963 769.873 522.06 773.98C522.665 773.283 523.215 772.531 523.765 771.834C511.74 764.85 500.399 756.801 489.885 747.791V759.222ZM135.245 441.408L453.365 133.63L433.565 114.417C431.782 112.687 429.37 111.715 426.855 111.715C424.34 111.715 421.928 112.687 420.145 114.417L97.4599 426.65C76.6157 446.765 60.1734 470.799 49.1293 497.297C38.0851 523.796 32.6689 552.206 33.2089 580.806C33.7488 609.407 40.2336 637.603 52.2705 663.687C64.3073 689.77 81.6456 713.197 103.235 732.55C127.396 754.377 156.432 770.418 188.045 779.401C170.952 770.788 155.133 759.956 141.02 747.201C119.468 727.837 102.163 704.412 90.1503 678.34C78.1372 652.268 71.6652 624.09 71.1255 595.509C70.5857 566.928 75.9893 538.537 87.0099 512.051C98.0305 485.564 114.439 461.533 135.245 441.408ZM401.5 773.98V786.216H439.45V747.791C427.758 757.773 415.041 766.549 401.5 773.98Z" fill="#252525"/>
<path d="M457.93 129.175L453.365 133.63L530.75 208.763V186.652L471.35 129.175C469.567 127.445 467.155 126.474 464.64 126.474C462.125 126.474 459.713 127.445 457.93 129.175ZM452.045 733.033V786.216H489.72V759.383C476.291 751.85 463.67 743.022 452.045 733.033ZM202.4 786.216H219.45C208.829 784.752 198.332 782.528 188.045 779.562C192.775 781.977 197.56 784.177 202.4 786.216ZM401.5 733.033C367.941 761.696 326.538 780.179 282.37 786.216H375.87C384.669 782.668 393.229 778.581 401.5 773.98V733.033Z" fill="#2E2F2F"/>
<path d="M135.245 441.408C114.422 461.535 97.9988 485.573 86.968 512.069C75.9372 538.565 70.5282 566.969 71.068 595.563C71.6078 624.158 78.0853 652.348 90.1087 678.43C102.132 704.512 119.452 727.943 141.02 747.308C155.133 760.063 170.952 770.895 188.045 779.508C198.332 782.474 208.829 784.698 219.45 786.163H282.48C326.604 780.121 367.965 761.658 401.5 733.033V773.98C415.003 766.543 427.683 757.767 439.34 747.791V786.216H452.1V733.033C463.784 742.975 476.461 751.749 489.94 759.222V747.791C500.454 756.801 511.795 764.85 523.82 771.834C528.304 765.892 530.731 758.711 530.75 751.333V208.495L453.365 133.361L135.245 441.408Z" fill="#2E2F2F"/>
<path d="M156.035 277.94L110.935 234.309C110.681 234.079 110.347 233.951 110 233.951C109.653 233.951 109.319 234.079 109.065 234.309L63.965 277.94C61.0211 280.753 58.6973 284.124 57.1363 287.845C55.5753 291.567 54.8099 295.56 54.8872 299.58C54.9644 303.6 55.8826 307.563 57.5855 311.224C59.2884 314.886 61.7401 318.169 64.79 320.873C70.5254 325.871 77.9456 328.633 85.635 328.633C93.3244 328.633 100.745 325.871 106.48 320.873V326.937C106.692 334.735 104.039 342.349 99 348.404H121C115.961 342.349 113.308 334.735 113.52 326.937V320.712C119.255 325.71 126.676 328.472 134.365 328.472C142.054 328.472 149.475 325.71 155.21 320.712C158.234 318.01 160.664 314.736 162.351 311.089C164.039 307.442 164.949 303.499 165.026 299.499C165.103 295.498 164.346 291.524 162.8 287.818C161.255 284.112 158.953 280.751 156.035 277.94ZM93.005 110.017H107.91C110.768 110.213 113.637 109.838 116.342 108.916C119.047 107.993 121.53 106.541 123.64 104.65C127.073 101 128.908 96.1853 128.755 91.2333C128.891 88.8515 128.511 86.4684 127.639 84.2398C126.767 82.0111 125.423 79.987 123.695 78.2997C119.925 75.0507 115.028 73.3238 110 73.4697C105.148 73.3152 100.396 74.8355 96.58 77.763C94.8273 79.0819 93.4165 80.7839 92.4612 82.7321C91.5059 84.6803 91.0328 86.8201 91.08 88.9793H62.92C62.8477 82.1342 64.9202 75.4308 68.86 69.7667C72.998 63.9183 78.7067 59.295 85.36 56.4037C92.7597 53.167 100.791 51.5373 108.9 51.6273C121.458 50.9258 133.861 54.6173 143.88 62.0387C148.092 65.5668 151.422 69.9881 153.614 74.9644C155.807 79.9407 156.804 85.3403 156.53 90.7503C156.554 97.0159 154.488 103.119 150.645 108.138C146.688 113.448 141.354 117.635 135.19 120.267C142.236 122.305 148.383 126.579 152.657 132.411C156.931 138.244 159.088 145.303 158.785 152.467C158.985 158.06 157.853 163.623 155.477 168.717C153.1 173.811 149.545 178.297 145.09 181.823C134.707 189.463 121.884 193.266 108.9 192.556C96.459 193.121 84.223 189.312 74.415 181.823C70.0736 178.375 66.6082 173.994 64.2897 169.022C61.9712 164.051 60.8624 158.624 61.05 153.165H88.99C88.9452 155.575 89.4556 157.964 90.4837 160.157C91.5118 162.349 93.0313 164.288 94.93 165.83C99.1631 169.212 104.536 170.935 110 170.66C115.724 170.924 121.328 168.999 125.62 165.293C127.475 163.531 128.924 161.405 129.872 159.055C130.82 156.705 131.246 154.185 131.12 151.662C131.12 137.995 123.383 131.143 107.91 131.108H93.005V110.017ZM311.3 521.372H344.905C366.025 521.05 382.617 515.683 394.68 505.272C400.773 499.872 405.562 493.22 408.701 485.796C411.84 478.371 413.25 470.359 412.83 462.338C412.83 422.088 392.278 401.963 351.175 401.963C342.758 401.541 334.339 402.746 326.401 405.509C318.463 408.272 311.163 412.539 304.92 418.063C299.102 423.63 294.552 430.33 291.567 437.728C288.582 445.126 287.228 453.054 287.595 460.997H242.88C242.601 448.198 245.193 435.495 250.476 423.777C255.758 412.059 263.603 401.61 273.46 393.162C293.847 375.273 319.752 366.329 351.175 366.329C384.395 366.329 410.428 374.897 429.275 392.035C448.122 409.173 457.545 433.001 457.545 463.519C457.316 479.133 452.106 494.29 442.64 506.882C432.605 521.003 418.524 531.924 402.16 538.277C419.989 543.229 435.72 553.631 447.04 567.954C457.85 582.717 463.396 600.534 462.825 618.669C462.825 649.474 452.522 673.928 431.915 692.032C411.308 710.135 384.487 719.169 351.45 719.133C318.45 719.133 291.573 710.404 270.82 692.944C260.644 684.458 252.564 673.839 247.184 661.879C241.803 649.919 239.26 636.928 239.745 623.875H284.735C284.364 631.949 285.789 640.006 288.913 647.491C292.037 654.977 296.784 661.713 302.83 667.238C316.301 678.525 333.721 684.293 351.45 683.338C373.01 683.338 389.51 677.828 400.95 666.808C412.39 655.789 418.073 640.011 418 619.474C418 599.51 411.73 584.18 399.19 573.482C386.65 562.784 368.518 557.275 344.795 556.953H311.3V521.372Z" fill="white"/>
</g>
<defs>
<clipPath id="clip0_34_595">
<rect width="550" height="805" fill="white"/>
</clipPath>
</defs>
</svg>
