<svg width="550" height="805" viewBox="0 0 550 805" fill="none" xmlns="http://www.w3.org/2000/svg">
<g clip-path="url(#clip0_18_496)">
<path d="M530.75 751.333C530.692 760.567 526.907 769.407 520.215 775.937C513.523 782.467 504.464 786.16 495 786.217H55C45.5363 786.16 36.4767 782.467 29.7847 775.937C23.0927 769.407 19.3077 760.567 19.25 751.333V53.6665C19.3077 44.4323 23.0927 35.5922 29.7847 29.0625C36.4767 22.5328 45.5363 18.8395 55 18.7832H495C504.464 18.8395 513.523 22.5328 520.215 29.0625C526.907 35.5922 530.692 44.4323 530.75 53.6665V751.333Z" fill="#E22521"/>
<path d="M483.45 268.333L470.47 281.75C470.047 282.209 469.53 282.577 468.952 282.828C468.374 283.08 467.748 283.21 467.115 283.21C466.482 283.21 465.856 283.08 465.278 282.828C464.7 282.577 464.183 282.209 463.76 281.75L451 268.333C357.17 171.733 201.41 169.587 109.45 267.797C20.3501 363.001 21.4501 514.663 112.64 608.419L285.34 786.056H286.88L142.175 637.56C50.8751 543.643 49.7751 392.196 138.985 296.938C231 198.567 386.76 201.089 480.535 297.528L493.46 310.837C493.897 311.284 494.421 311.639 495.003 311.882C495.584 312.125 496.21 312.25 496.843 312.25C497.475 312.25 498.101 312.125 498.682 311.882C499.264 311.639 499.789 311.284 500.225 310.837L513.15 297.528C518.65 291.625 524.7 286.258 530.75 281.106V230.767C513.415 241.304 497.505 253.925 483.395 268.333H483.45Z" fill="#B31F23"/>
<path d="M513.15 297.528L500.5 310.837C500.064 311.284 499.539 311.639 498.957 311.882C498.376 312.125 497.75 312.25 497.118 312.25C496.485 312.25 495.859 312.125 495.278 311.882C494.697 311.639 494.172 311.284 493.735 310.837L480.81 297.528C387.035 200.928 231.275 198.781 139.26 296.991C50.1601 392.249 51.2601 543.858 142.45 637.613L286.715 786.27H495C504.464 786.214 513.524 782.52 520.215 775.991C526.907 769.461 530.692 760.621 530.75 751.387V281.106C524.7 286.258 518.815 291.678 513.15 297.528Z" fill="#C72325"/>
<path d="M156.42 243.11C153.593 240.128 150.165 237.749 146.35 236.122C142.536 234.495 138.418 233.655 134.255 233.655C130.092 233.655 125.974 234.495 122.16 236.122C118.345 237.749 114.917 240.128 112.09 243.11L110.44 244.881C110.319 244.987 110.162 245.045 110 245.045C109.838 245.045 109.681 244.987 109.56 244.881L107.91 243.11C105.083 240.128 101.655 237.749 97.8403 236.122C94.0259 234.495 89.908 233.655 85.745 233.655C81.582 233.655 77.4641 234.495 73.6497 236.122C69.8353 237.749 66.407 240.128 63.58 243.11C57.9898 249.204 54.931 257.115 55.0022 265.293C55.0734 273.472 58.2695 281.331 63.965 287.331L109.065 333.699C109.173 333.824 109.308 333.924 109.46 333.992C109.612 334.061 109.778 334.096 109.945 334.096C110.112 334.096 110.278 334.061 110.43 333.992C110.582 333.924 110.717 333.824 110.825 333.699L155.925 287.331C161.621 281.331 164.817 273.472 164.888 265.293C164.959 257.115 161.9 249.204 156.31 243.11H156.42ZM92.95 110.017H107.8C110.667 110.217 113.546 109.845 116.26 108.922C118.974 107.999 121.467 106.546 123.585 104.65C127.008 100.994 128.841 96.1834 128.7 91.2333C128.836 88.8515 128.456 86.4684 127.584 84.2397C126.712 82.0111 125.368 79.987 123.64 78.2997C119.87 75.0507 114.973 73.3238 109.945 73.4697C105.093 73.3152 100.341 74.8355 96.525 77.763C94.7723 79.0819 93.3614 80.7839 92.4061 82.7321C91.4508 84.6803 90.9778 86.8201 91.025 88.9793H62.865C62.8089 82.1285 64.9007 75.4246 68.86 69.7667C72.998 63.9183 78.7067 59.295 85.36 56.4037C92.7596 53.167 100.791 51.5373 108.9 51.6273C121.458 50.9257 133.861 54.6173 143.88 62.0387C148.089 65.5694 151.416 69.9911 153.609 74.9668C155.801 79.9424 156.8 85.3408 156.53 90.7503C156.526 97.0116 154.463 103.106 150.645 108.138C146.667 113.429 141.339 117.61 135.19 120.267C142.298 122.478 148.501 126.839 152.9 132.718C156.891 138.516 158.946 145.377 158.785 152.36C158.985 157.953 157.853 163.516 155.476 168.609C153.1 173.703 149.545 178.19 145.09 181.715C134.707 189.355 121.884 193.158 108.9 192.449C96.4589 193.014 84.223 189.205 74.415 181.715C70.0635 178.273 66.5876 173.894 64.2594 168.923C61.9313 163.951 60.814 158.521 60.995 153.057H89.045C88.974 155.469 89.4787 157.864 90.5191 160.053C91.5595 162.241 93.1073 164.164 95.04 165.669C99.2063 169.071 104.516 170.849 109.945 170.66C115.669 170.924 121.273 168.999 125.565 165.293C127.42 163.531 128.869 161.405 129.817 159.055C130.765 156.705 131.191 154.185 131.065 151.662C131.065 137.995 123.328 131.143 107.855 131.108H93.005L92.95 110.017ZM495 0H55C40.4131 0 26.4236 5.65415 16.1091 15.7186C5.79463 25.7831 0 39.4334 0 53.6667L0 751.333C0 765.567 5.79463 779.217 16.1091 789.281C26.4236 799.346 40.4131 805 55 805H495C509.587 805 523.576 799.346 533.891 789.281C544.205 779.217 550 765.567 550 751.333V53.6667C550 39.4334 544.205 25.7831 533.891 15.7186C523.576 5.65415 509.587 0 495 0ZM530.75 751.333C530.692 760.568 526.907 769.408 520.215 775.937C513.523 782.467 504.464 786.16 495 786.217H55C45.5363 786.16 36.4767 782.467 29.7847 775.937C23.0927 769.408 19.3077 760.568 19.25 751.333V53.6667C19.3077 44.4324 23.0927 35.5924 29.7847 29.0626C36.4767 22.5329 45.5363 18.8396 55 18.7833H495C504.464 18.8396 513.523 22.5329 520.215 29.0626C526.907 35.5924 530.692 44.4324 530.75 53.6667V751.333ZM311.3 515.468H344.85C365.97 515.111 382.562 509.744 394.625 499.368C400.718 493.969 405.507 487.317 408.646 479.892C411.784 472.468 413.195 464.456 412.775 456.435C412.775 416.185 392.242 396.06 351.175 396.06C342.758 395.638 334.339 396.843 326.401 399.606C318.463 402.369 311.163 406.635 304.92 412.16C299.098 417.721 294.549 424.422 291.572 431.822C288.596 439.222 287.259 447.153 287.65 455.093H242.935C242.638 442.3 245.222 429.599 250.506 417.887C255.79 406.175 263.644 395.738 273.515 387.312C293.865 369.423 319.752 360.479 351.175 360.479C384.395 360.479 410.428 369.066 429.275 386.239C448.122 403.412 457.545 427.205 457.545 457.616C457.321 473.239 452.132 488.409 442.695 501.032C432.63 515.114 418.557 526.01 402.215 532.373C420.026 537.36 435.734 547.779 447.04 562.105C457.892 576.85 463.459 594.675 462.88 612.82C462.88 643.589 452.558 668.043 431.915 686.182C411.272 704.286 384.45 713.23 351.45 713.015C318.45 713.015 291.573 704.286 270.82 686.826C260.654 678.332 252.58 667.712 247.2 655.754C241.82 643.796 239.272 630.808 239.745 617.757H284.735C284.382 625.829 285.816 633.88 288.938 641.363C292.061 648.846 296.799 655.584 302.83 661.12C316.318 672.377 333.726 678.142 351.45 677.22C373.01 677.22 389.51 671.728 400.95 660.744C412.39 649.76 418.073 634.018 418 613.517C418 593.553 411.675 578.258 399.135 567.525C386.595 556.792 368.445 551.425 344.685 551.049H311.3V515.468Z" fill="white"/>
</g>
<defs>
<clipPath id="clip0_18_496">
<rect width="550" height="805" fill="white"/>
</clipPath>
</defs>
</svg>
