<svg width="550" height="805" viewBox="0 0 550 805" fill="none" xmlns="http://www.w3.org/2000/svg">
<g clip-path="url(#clip0_34_582)">
<path d="M530.75 751.333C530.692 760.568 526.907 769.407 520.215 775.937C513.523 782.467 504.464 786.16 495 786.217H55C45.5363 786.16 36.4767 782.467 29.7847 775.937C23.0927 769.407 19.3077 760.568 19.25 751.333V53.6665C19.3077 44.4323 23.0927 35.5922 29.7847 29.0625C36.4767 22.5328 45.5363 18.8395 55 18.7832H495C504.464 18.8395 513.523 22.5328 520.215 29.0625C526.907 35.5922 530.692 44.4323 530.75 53.6665V751.333Z" fill="#3A992C"/>
<path d="M495 0H55C40.4131 0 26.4236 5.65415 16.1091 15.7186C5.79463 25.7831 0 39.4334 0 53.6667L0 751.333C0 765.567 5.79463 779.217 16.1091 789.281C26.4236 799.346 40.4131 805 55 805H495C509.587 805 523.576 799.346 533.891 789.281C544.205 779.217 550 765.567 550 751.333V53.6667C550 39.4334 544.205 25.7831 533.891 15.7186C523.576 5.65415 509.587 0 495 0ZM530.75 751.333C530.692 760.568 526.907 769.408 520.215 775.937C513.523 782.467 504.464 786.16 495 786.217H55C45.5363 786.16 36.4767 782.467 29.7847 775.937C23.0927 769.408 19.3077 760.568 19.25 751.333V53.6667C19.3077 44.4324 23.0927 35.5924 29.7847 29.0626C36.4767 22.5329 45.5363 18.8396 55 18.7833H495C504.464 18.8396 513.523 22.5329 520.215 29.0626C526.907 35.5924 530.692 44.4324 530.75 53.6667V751.333Z" fill="white"/>
<path d="M370.48 775.483L367.895 786.216H403.425C406.154 771.499 407.845 756.616 408.485 741.673C396.936 754.085 384.211 765.405 370.48 775.483ZM63.58 777.415C44.7311 759.19 29.6773 737.576 19.25 713.766V738.346C31.9599 753.437 46.8783 766.619 63.525 777.469L63.58 777.415ZM456.28 741.834C456.752 743.423 457.01 745.064 457.05 746.718L472.615 758.256L456.28 741.834ZM198.99 254.004C198.99 311.427 225.005 377.062 263.34 426.435C235.292 415.681 205.474 409.989 175.34 409.637C145.424 409.575 115.873 416.055 88.8614 428.602C61.8495 441.149 38.0627 459.444 19.25 482.141V554.967C34.6374 519.147 60.5047 488.547 93.6179 466.994C126.731 445.441 165.621 433.891 205.425 433.787C235.557 434.161 265.37 439.851 293.425 450.585C254.925 401.212 228.855 335.524 229.075 278.154C229.625 167.064 320.925 78.2456 431.805 78.7286C466.6 78.854 500.746 87.9241 530.805 105.025V101.966C494.89 71.6042 449.02 54.7938 401.5 54.5786C290.62 54.0419 199.43 142.914 198.88 254.004H198.99Z" fill="#297A38"/>
<path d="M378.235 717.523C350.826 746.715 317.559 770.097 280.5 786.217H355.19C360.69 782.836 365.475 779.24 370.48 775.483C374.765 756.398 377.359 736.989 378.235 717.47V717.523ZM425.975 717.738C428.291 740.789 432.075 763.678 437.305 786.27H462L456.5 746.825C445.529 737.959 435.319 728.231 425.975 717.738ZM506 784.607C508.285 783.857 510.494 782.905 512.6 781.762C498.729 774.944 485.4 767.122 472.725 758.364C483.148 767.889 494.269 776.66 506 784.607ZM73.1501 786.217H78.2101L63.5801 777.469L73.1501 786.217Z" fill="#328840"/>
<path d="M229.075 278.154C229.075 335.578 255.09 401.266 293.425 450.585C265.37 439.852 235.557 434.161 205.425 433.788C165.621 433.891 126.731 445.442 93.6179 466.995C60.5047 488.548 34.6374 519.147 19.25 554.967V713.767C29.6424 737.629 44.6782 759.299 63.525 777.576C68.255 780.689 73.15 783.641 78.155 786.324H280.5C317.662 770.22 351.026 746.818 378.51 717.577C377.637 737.114 375.043 756.542 370.755 775.644C384.488 765.55 397.213 754.212 408.76 741.781C408.12 756.724 406.429 771.607 403.7 786.324H437.58C432.35 763.731 428.566 740.843 426.25 717.792C435.734 728.302 446.091 738.031 457.215 746.879C457.175 745.226 456.917 743.584 456.445 741.995C461.56 747.684 467.06 753.104 472.945 758.417C485.62 767.176 498.949 774.997 512.82 781.816C518.287 778.717 522.822 774.269 525.97 768.918C529.117 763.567 530.766 757.503 530.75 751.333V105.026C500.691 87.9245 466.545 78.8544 431.75 78.729C320.87 78.1923 229.625 167.064 229.075 278.154Z" fill="#328840"/>
<path d="M119.955 337.778H100.265C106.7 331.392 106.975 318.458 106.975 318.458C103.636 322.039 99.6034 324.94 95.1103 326.994C90.6172 329.048 85.7521 330.214 80.7951 330.426C73.8371 330.426 67.1641 327.729 62.2441 322.928C57.3241 318.127 54.5601 311.616 54.5601 304.827C54.5601 298.037 57.3241 291.526 62.2441 286.725C67.1641 281.925 73.8371 279.228 80.7951 279.228C84.5595 279.287 88.2834 279.996 91.7951 281.321C86.7284 275.014 83.8058 267.322 83.4351 259.317C83.2739 255.911 83.8224 252.507 85.0474 249.313C86.2724 246.119 88.1484 243.201 90.5621 240.735C92.9759 238.268 95.8771 236.305 99.0904 234.964C102.304 233.622 105.763 232.931 109.258 232.931C112.753 232.931 116.211 233.622 119.425 234.964C122.638 236.305 125.539 238.268 127.953 240.735C130.367 243.201 132.243 246.119 133.468 249.313C134.693 252.507 135.241 255.911 135.08 259.317C134.78 267.471 131.769 275.307 126.5 281.643C130.521 279.98 134.838 279.105 139.205 279.067C146.163 279.067 152.836 281.764 157.756 286.564C162.676 291.365 165.44 297.876 165.44 304.666C165.44 311.455 162.676 317.966 157.756 322.767C152.836 327.568 146.163 330.265 139.205 330.265C134.255 330.073 129.393 328.926 124.899 326.89C120.406 324.854 116.37 321.97 113.025 318.404C113.3 318.565 113.52 331.284 119.955 337.778ZM93.0051 110.017H107.855C110.722 110.217 113.601 109.845 116.315 108.922C119.029 107.999 121.522 106.545 123.64 104.65C127.073 100.999 128.908 96.1851 128.755 91.2332C128.894 88.8592 128.515 86.4834 127.642 84.263C126.77 82.0427 125.425 80.0283 123.695 78.3532C119.945 75.0656 115.039 73.3163 110 73.4695C105.132 73.3162 100.363 74.8357 96.5251 77.7629C94.7788 79.0875 93.3727 80.7907 92.418 82.7375C91.4634 84.6843 90.9865 86.8213 91.0251 88.9792H62.9201C62.8478 82.1341 64.9202 75.4307 68.8601 69.7665C73.0064 63.9257 78.7128 59.3043 85.3601 56.4035C92.7634 53.1783 100.793 51.5491 108.9 51.6272C121.476 50.9174 133.899 54.6092 143.935 62.0385C148.138 65.5744 151.461 69.997 153.652 74.9714C155.844 79.9458 156.847 85.3416 156.585 90.7502C156.581 97.0114 154.519 103.106 150.7 108.138C146.722 113.429 141.394 117.61 135.245 120.267C142.291 122.304 148.438 126.578 152.712 132.411C156.986 138.244 159.143 145.302 158.84 152.467C159.04 158.06 157.908 163.623 155.532 168.717C153.155 173.811 149.6 178.297 145.145 181.823C134.747 189.475 121.903 193.278 108.9 192.556C96.477 193.113 84.2611 189.304 74.4701 181.823C70.1186 178.38 66.6427 174.002 64.3145 169.03C61.9863 164.058 60.869 158.628 61.0501 153.165H89.1001C89.0552 155.575 89.5657 157.964 90.5938 160.156C91.6219 162.349 93.1413 164.287 95.0401 165.83C99.2595 169.16 104.578 170.877 110 170.66C115.724 170.924 121.328 168.999 125.62 165.293C127.477 163.533 128.929 161.407 129.877 159.057C130.826 156.706 131.249 154.185 131.12 151.662C131.12 137.995 123.402 131.143 107.965 131.108H93.0051V110.017ZM311.3 521.103H344.905C366.025 520.781 382.617 515.415 394.68 505.003C400.761 499.594 405.542 492.941 408.679 485.519C411.817 478.096 413.234 470.089 412.83 462.07C412.83 421.82 392.278 401.695 351.175 401.695C334.179 400.866 317.541 406.657 304.92 417.795C299.102 423.361 294.552 430.062 291.567 437.459C288.582 444.857 287.228 452.786 287.595 460.728H242.88C242.601 447.93 245.193 435.226 250.476 423.508C255.758 411.791 263.603 401.341 273.46 392.894C293.847 375.005 319.752 366.06 351.175 366.06C384.395 366.06 410.428 374.629 429.275 391.767C448.122 408.904 457.545 432.732 457.545 463.251C457.332 478.859 452.141 494.015 442.695 506.613C432.626 520.726 418.531 531.642 402.16 538.008C420.003 542.961 435.739 553.385 447.04 567.74C457.857 582.479 463.404 600.281 462.825 618.401C462.825 649.277 452.522 673.731 431.915 691.763C411.308 709.795 384.487 718.793 351.45 718.758C318.45 718.758 291.573 710.028 270.82 692.568C260.652 684.064 252.579 673.433 247.199 661.467C241.82 649.5 239.272 636.505 239.745 623.446H284.735C284.374 631.526 285.804 639.588 288.927 647.081C292.05 654.573 296.792 661.32 302.83 666.862C316.312 678.129 333.725 683.895 351.45 682.962C373.01 682.962 389.51 677.452 400.95 666.433C412.39 655.413 418.073 639.671 418 619.206C418 599.242 411.73 583.911 399.19 573.214C386.65 562.516 368.518 557.006 344.795 556.684H311.3V521.103Z" fill="white"/>
</g>
<defs>
<clipPath id="clip0_34_582">
<rect width="550" height="805" fill="white"/>
</clipPath>
</defs>
</svg>
