<svg width="550" height="805" viewBox="0 0 550 805" fill="none" xmlns="http://www.w3.org/2000/svg">
<g clip-path="url(#clip0_16_153)">
<path d="M530.75 751.333C530.692 760.567 526.907 769.407 520.215 775.937C513.523 782.467 504.464 786.16 495 786.216H55C45.5363 786.16 36.4767 782.467 29.7847 775.937C23.0927 769.407 19.3077 760.567 19.25 751.333V53.6665C19.3077 44.4323 23.0927 35.5922 29.7847 29.0625C36.4767 22.5328 45.5363 18.8395 55 18.7832H495C504.464 18.8395 513.523 22.5328 520.215 29.0625C526.907 35.5922 530.692 44.4323 530.75 53.6665V751.333Z" fill="#1F86BF"/>
<path d="M495 0H55C40.4131 0 26.4236 5.65415 16.1091 15.7186C5.79463 25.7831 0 39.4334 0 53.6667L0 751.333C0 765.567 5.79463 779.217 16.1091 789.281C26.4236 799.346 40.4131 805 55 805H495C509.587 805 523.576 799.346 533.891 789.281C544.205 779.217 550 765.567 550 751.333V53.6667C550 39.4334 544.205 25.7831 533.891 15.7186C523.576 5.65415 509.587 0 495 0ZM530.75 751.333C530.692 760.568 526.907 769.408 520.215 775.937C513.523 782.467 504.464 786.16 495 786.217H55C45.5363 786.16 36.4767 782.467 29.7847 775.937C23.0927 769.408 19.3077 760.568 19.25 751.333V53.6667C19.3077 44.4324 23.0927 35.5924 29.7847 29.0626C36.4767 22.5329 45.5363 18.8396 55 18.7833H495C504.464 18.8396 513.523 22.5329 520.215 29.0626C526.907 35.5924 530.692 44.4324 530.75 53.6667V751.333Z" fill="white"/>
<path d="M69.3001 588.885C68.6492 587.981 68.2999 586.903 68.2999 585.799C68.2999 584.694 68.6492 583.617 69.3001 582.713L392.7 136.528L374 110.983C373.504 110.218 372.818 109.588 372.005 109.152C371.193 108.715 370.28 108.486 369.353 108.486C368.425 108.486 367.512 108.715 366.7 109.152C365.887 109.588 365.201 110.218 364.705 110.983L22.0001 583.572C21.3369 584.481 20.9805 585.569 20.9805 586.684C20.9805 587.8 21.3369 588.888 22.0001 589.797L162.36 786.217H210.045L69.3001 588.885Z" fill="#1B71A1"/>
<path d="M411.95 110.016L392.7 136.474L530.75 326.83V261.195L421.19 110.016C420.694 109.251 420.008 108.622 419.195 108.185C418.383 107.748 417.47 107.52 416.542 107.52C415.615 107.52 414.702 107.748 413.89 108.185C413.077 108.622 412.391 109.251 411.895 110.016H411.95ZM69.3 582.712C68.6491 583.616 68.2998 584.694 68.2998 585.798C68.2998 586.903 68.6491 587.98 69.3 588.884L210.32 786.216H495C504.464 786.16 513.523 782.467 520.215 775.937C526.907 769.407 530.692 760.567 530.75 751.333V326.937L392.7 136.528L69.3 582.712Z" fill="#1E7BAF"/>
<path d="M92.95 110.017H107.8C110.667 110.217 113.546 109.845 116.26 108.922C118.974 107.999 121.467 106.546 123.585 104.65C127.018 101 128.853 96.1853 128.7 91.2333C128.836 88.8515 128.456 86.4684 127.584 84.2398C126.712 82.0111 125.368 79.987 123.64 78.2997C119.869 75.0507 114.973 73.3238 109.945 73.4697C105.093 73.3152 100.341 74.8355 96.525 77.763C94.7722 79.0819 93.3614 80.7839 92.4061 82.7321C91.4508 84.6803 90.9777 86.8201 91.025 88.9793H62.865C62.8089 82.1285 64.9007 75.4246 68.86 69.7667C72.9979 63.9183 78.7067 59.295 85.36 56.4037C92.7596 53.167 100.791 51.5373 108.9 51.6273C121.458 50.9258 133.861 54.6173 143.88 62.0387C148.083 65.5745 151.405 69.9971 153.597 74.9715C155.789 79.9459 156.792 85.3418 156.53 90.7503C156.526 97.0116 154.463 103.106 150.645 108.138C146.667 113.429 141.339 117.61 135.19 120.267C142.236 122.305 148.383 126.579 152.657 132.411C156.931 138.244 159.088 145.303 158.785 152.467C158.985 158.06 157.853 163.623 155.476 168.717C153.1 173.811 149.545 178.297 145.09 181.823C134.706 189.463 121.884 193.266 108.9 192.556C96.4589 193.121 84.2229 189.312 74.415 181.823C70.0635 178.38 66.5876 174.002 64.2594 169.03C61.9312 164.058 60.8139 158.628 60.995 153.165H89.045C88.9781 155.584 89.4843 157.985 90.5242 160.182C91.564 162.378 93.1093 164.311 95.04 165.83C99.2301 169.175 104.537 170.894 109.945 170.66C115.669 170.924 121.273 168.999 125.565 165.293C127.419 163.531 128.869 161.405 129.817 159.055C130.765 156.705 131.191 154.185 131.065 151.662C131.065 137.995 123.328 131.143 107.855 131.108H93.005L92.95 110.017ZM311.3 521.103H344.85C365.97 520.746 382.562 515.379 394.625 505.003C400.706 499.594 405.486 492.941 408.624 485.519C411.762 478.096 413.179 470.089 412.775 462.07C412.775 421.82 392.242 401.695 351.175 401.695C334.179 400.866 317.541 406.657 304.92 417.795C299.102 423.361 294.552 430.062 291.567 437.46C288.582 444.857 287.228 452.786 287.595 460.728H242.88C242.601 447.93 245.193 435.226 250.476 423.509C255.758 411.791 263.603 401.342 273.46 392.894C293.847 375.005 319.752 366.06 351.175 366.06C384.395 366.06 410.428 374.647 429.275 391.82C448.122 408.994 457.545 432.822 457.545 463.304C457.332 478.913 452.141 494.069 442.695 506.667C432.626 520.779 418.531 531.696 402.16 538.062C420.003 543.014 435.739 553.439 447.04 567.793C457.857 582.532 463.404 600.335 462.825 618.455C462.825 649.331 452.522 673.785 431.915 691.817C411.308 709.849 384.487 718.847 351.45 718.811C318.45 718.811 291.573 710.082 270.82 692.622C260.652 684.117 252.579 673.487 247.199 661.52C241.819 649.554 239.272 636.558 239.745 623.499H284.735C284.374 631.58 285.804 639.642 288.927 647.134C292.049 654.627 296.792 661.374 302.83 666.916C316.312 678.183 333.725 683.949 351.45 683.016C373.01 683.016 389.51 677.506 400.95 666.486C412.39 655.467 418.073 639.725 418 619.26C418 599.296 411.73 583.965 399.19 573.267C386.65 562.534 368.5 557.024 344.74 556.738H311.19L311.3 521.103ZM154 301.177L105.16 233.987C105.083 233.887 104.983 233.806 104.869 233.75C104.754 233.694 104.628 233.665 104.5 233.665C104.372 233.665 104.246 233.694 104.131 233.75C104.016 233.806 103.917 233.887 103.84 233.987L55 301.177C54.8974 301.308 54.8418 301.469 54.8418 301.634C54.8418 301.798 54.8974 301.959 55 302.09L103.84 370.3C103.917 370.4 104.016 370.481 104.131 370.537C104.246 370.593 104.372 370.622 104.5 370.622C104.628 370.622 104.754 370.593 104.869 370.537C104.983 370.481 105.083 370.4 105.16 370.3L154 302.143C154.103 302.012 154.158 301.852 154.158 301.687C154.158 301.522 154.103 301.362 154 301.231V301.177Z" fill="white"/>
</g>
<defs>
<clipPath id="clip0_16_153">
<rect width="550" height="805" fill="white"/>
</clipPath>
</defs>
</svg>
