<svg width="550" height="805" viewBox="0 0 550 805" fill="none" xmlns="http://www.w3.org/2000/svg">
<g clip-path="url(#clip0_18_545)">
<path d="M530.75 751.333C530.692 760.567 526.907 769.407 520.215 775.937C513.523 782.467 504.464 786.16 495 786.217H55C45.5363 786.16 36.4767 782.467 29.7847 775.937C23.0927 769.407 19.3077 760.567 19.25 751.333V53.6665C19.3077 44.4323 23.0927 35.5922 29.7847 29.0625C36.4767 22.5328 45.5363 18.8395 55 18.7832H495C504.464 18.8395 513.523 22.5328 520.215 29.0625C526.907 35.5922 530.692 44.4323 530.75 53.6665V751.333Z" fill="#3B3B3B"/>
<path d="M495 0H55C40.4131 0 26.4236 5.65415 16.1091 15.7186C5.79463 25.7831 0 39.4334 0 53.6667L0 751.333C0 765.567 5.79463 779.217 16.1091 789.281C26.4236 799.346 40.4131 805 55 805H495C509.587 805 523.576 799.346 533.891 789.281C544.205 779.217 550 765.567 550 751.333V53.6667C550 39.4334 544.205 25.7831 533.891 15.7186C523.576 5.65415 509.587 0 495 0ZM530.75 751.333C530.692 760.568 526.907 769.408 520.215 775.937C513.523 782.467 504.464 786.16 495 786.217H55C45.5363 786.16 36.4767 782.467 29.7847 775.937C23.0927 769.408 19.3077 760.568 19.25 751.333V53.6667C19.3077 44.4324 23.0927 35.5924 29.7847 29.0626C36.4767 22.5329 45.5363 18.8396 55 18.7833H495C504.464 18.8396 513.523 22.5329 520.215 29.0626C526.907 35.5924 530.692 44.4324 530.75 53.6667V751.333Z" fill="white"/>
<path d="M401.5 773.981V776.557C401.5 779.848 401.5 783.068 401.5 786.217H439.45V747.791C427.758 757.774 415.041 766.55 401.5 773.981ZM135.3 441.409L453.365 133.63L433.565 114.418C431.782 112.687 429.37 111.716 426.855 111.716C424.34 111.716 421.928 112.687 420.145 114.418L97.4599 426.65C76.6157 446.765 60.1734 470.8 49.1293 497.298C38.0851 523.796 32.6689 552.206 33.2089 580.807C33.7488 609.408 40.2336 637.604 52.2705 663.687C64.3073 689.77 81.6456 713.198 103.235 732.55C127.396 754.378 156.432 770.418 188.045 779.401C170.952 770.788 155.133 759.957 141.02 747.201C119.468 727.838 102.163 704.413 90.1503 678.341C78.1372 652.268 71.6652 624.091 71.1255 595.51C70.5857 566.929 75.9893 538.537 87.0099 512.051C98.0305 485.565 114.439 461.533 135.245 441.409H135.3ZM489.885 759.223C500.206 764.94 510.963 769.874 522.06 773.981L523.71 771.834C511.685 764.85 500.344 756.802 489.83 747.791L489.885 759.223Z" fill="#252525"/>
<path d="M401.5 733.087C367.941 761.75 326.538 780.233 282.37 786.27H375.87C384.669 782.722 393.229 778.636 401.5 774.034V733.087ZM457.93 129.176L453.365 133.63L530.75 208.764V186.653L471.35 129.23C469.567 127.499 467.155 126.528 464.64 126.528C462.125 126.528 459.713 127.499 457.93 129.23V129.176ZM452.1 733.087V776.557C452.1 779.848 452.1 783.068 452.1 786.217H489.775V759.383C476.346 751.85 463.724 743.023 452.1 733.033V733.087ZM202.4 786.217H219.45C208.829 784.752 198.332 782.528 188.045 779.562L202.345 786.217H202.4Z" fill="#2E2F2F"/>
<path d="M135.3 441.408C114.477 461.535 98.0537 485.573 87.0229 512.069C75.9921 538.566 70.5831 566.97 71.123 595.564C71.6628 624.158 78.1402 652.348 90.1636 678.43C102.187 704.512 119.507 727.944 141.075 747.308C155.188 760.064 171.007 770.896 188.1 779.508C198.387 782.474 208.884 784.699 219.505 786.163H282.535C326.659 780.121 368.02 761.658 401.555 733.033V773.981C415.058 766.544 427.738 757.767 439.395 747.791V786.217H452.155C452.155 783.068 452.155 779.848 452.155 776.557V733.087C463.839 743.029 476.516 751.803 489.995 759.276V747.845C500.509 756.856 511.85 764.904 523.875 771.888C528.35 765.925 530.759 758.724 530.75 751.333V208.495L453.365 133.362L135.3 441.408Z" fill="#2E2F2F"/>
<path d="M156.035 277.993L110.935 234.362C110.681 234.132 110.347 234.004 110 234.004C109.653 234.004 109.319 234.132 109.065 234.362L63.965 277.993C61.0211 280.807 58.6973 284.178 57.1363 287.899C55.5753 291.62 54.8099 295.613 54.8872 299.633C54.9644 303.654 55.8826 307.616 57.5855 311.278C59.2884 314.939 61.7401 318.223 64.79 320.927C70.5254 325.924 77.9456 328.686 85.635 328.686C93.3244 328.686 100.745 325.924 106.48 320.927V326.991C106.692 334.788 104.039 342.402 99 348.458H121C115.961 342.402 113.308 334.788 113.52 326.991V320.766C119.255 325.763 126.676 328.525 134.365 328.525C142.054 328.525 149.475 325.763 155.21 320.766C158.234 318.063 160.664 314.789 162.351 311.143C164.039 307.496 164.949 303.553 165.026 299.552C165.103 295.552 164.346 291.577 162.8 287.871C161.255 284.165 158.953 280.804 156.035 277.993ZM147.235 138.997H163.185V161H147.235V190.678H119.35V161H61.6L60.5 143.827L119.02 53.6665H147.235V138.997ZM88 138.997H119.13V90.6965L117.315 93.8092L88 138.997ZM435.05 598.92H484V634.555H435.05V714.249H390.115V634.555H229.9V608.795L387.42 370.837H435.05V598.92ZM280.5 598.92H390.115V430.568L385 440.067L280.5 598.92Z" fill="white"/>
</g>
<defs>
<clipPath id="clip0_18_545">
<rect width="550" height="805" fill="white"/>
</clipPath>
</defs>
</svg>
