<svg width="550" height="805" viewBox="0 0 550 805" fill="none" xmlns="http://www.w3.org/2000/svg">
<g clip-path="url(#clip0_34_552)">
<path d="M530.75 751.333C530.692 760.568 526.907 769.407 520.215 775.937C513.523 782.467 504.464 786.16 495 786.217H55C45.5363 786.16 36.4767 782.467 29.7847 775.937C23.0927 769.407 19.3077 760.568 19.25 751.333V53.6665C19.3077 44.4323 23.0927 35.5922 29.7847 29.0625C36.4767 22.5328 45.5363 18.8395 55 18.7832H495C504.464 18.8395 513.523 22.5328 520.215 29.0625C526.907 35.5922 530.692 44.4323 530.75 53.6665V751.333Z" fill="#3B3B3B"/>
<path d="M495 0H55C40.4131 0 26.4236 5.65415 16.1091 15.7186C5.79463 25.7831 0 39.4334 0 53.6667L0 751.333C0 765.567 5.79463 779.217 16.1091 789.281C26.4236 799.346 40.4131 805 55 805H495C509.587 805 523.576 799.346 533.891 789.281C544.205 779.217 550 765.567 550 751.333V53.6667C550 39.4334 544.205 25.7831 533.891 15.7186C523.576 5.65415 509.587 0 495 0ZM530.75 751.333C530.692 760.568 526.907 769.408 520.215 775.937C513.523 782.467 504.464 786.16 495 786.217H55C45.5363 786.16 36.4767 782.467 29.7847 775.937C23.0927 769.408 19.3077 760.568 19.25 751.333V53.6667C19.3077 44.4324 23.0927 35.5924 29.7847 29.0626C36.4767 22.5329 45.5363 18.8396 55 18.7833H495C504.464 18.8396 513.523 22.5329 520.215 29.0626C526.907 35.5924 530.692 44.4324 530.75 53.6667V751.333Z" fill="white"/>
<path d="M135.245 441.408L453.365 133.63L433.565 114.417C431.782 112.687 429.37 111.715 426.855 111.715C424.34 111.715 421.928 112.687 420.145 114.417L97.46 426.65C76.6158 446.765 60.1736 470.799 49.1294 497.297C38.0852 523.796 32.669 552.206 33.209 580.806C33.7489 609.407 40.2338 637.603 52.2706 663.687C64.3074 689.77 81.6457 713.197 103.235 732.55C127.396 754.377 156.432 770.418 188.045 779.401C170.952 770.788 155.133 759.956 141.02 747.201C119.469 727.837 102.164 704.412 90.1504 678.34C78.1373 652.268 71.6654 624.09 71.1256 595.509C70.5858 566.928 75.9895 538.537 87.01 512.051C98.0306 485.564 114.439 461.533 135.245 441.408ZM489.885 759.222C500.206 764.939 510.963 769.873 522.06 773.98C522.665 773.283 523.215 772.531 523.765 771.834C511.74 764.85 500.399 756.801 489.885 747.791V759.222ZM401.5 773.98V786.216H439.45V747.791C427.758 757.773 415.041 766.549 401.5 773.98Z" fill="#252525"/>
<path d="M457.93 129.175L453.365 133.63L530.75 208.763V186.652L471.35 129.175C469.567 127.445 467.155 126.474 464.64 126.474C462.125 126.474 459.713 127.445 457.93 129.175ZM452.045 733.033V786.216H489.72V759.383C476.291 751.85 463.67 743.022 452.045 733.033ZM202.4 786.216H219.45C208.829 784.752 198.332 782.528 188.045 779.562C192.775 781.977 197.56 784.177 202.4 786.216ZM401.5 733.033C367.941 761.696 326.538 780.179 282.37 786.216H375.87C384.669 782.668 393.229 778.581 401.5 773.98V733.033Z" fill="#2E2F2F"/>
<path d="M135.245 441.408C114.422 461.535 97.9988 485.573 86.968 512.069C75.9372 538.565 70.5282 566.969 71.068 595.563C71.6078 624.158 78.0853 652.348 90.1087 678.43C102.132 704.512 119.452 727.943 141.02 747.308C155.133 760.063 170.952 770.895 188.045 779.508C198.332 782.474 208.829 784.698 219.45 786.163H282.48C326.604 780.121 367.965 761.658 401.5 733.033V773.98C415.003 766.543 427.683 757.767 439.34 747.791V786.216H452.1V733.033C463.784 742.975 476.461 751.749 489.94 759.222V747.791C500.454 756.801 511.795 764.85 523.82 771.834C528.304 765.892 530.731 758.711 530.75 751.333V208.495L453.365 133.361L135.245 441.408Z" fill="#2E2F2F"/>
<path d="M156.035 277.94L110.935 234.309C110.681 234.078 110.347 233.951 110 233.951C109.653 233.951 109.319 234.078 109.065 234.309L63.965 277.94C61.0211 280.753 58.6973 284.124 57.1363 287.845C55.5753 291.566 54.8099 295.56 54.8872 299.58C54.9644 303.6 55.8826 307.562 57.5855 311.224C59.2884 314.886 61.7401 318.169 64.79 320.873C70.5254 325.87 77.9456 328.633 85.635 328.633C93.3244 328.633 100.745 325.87 106.48 320.873V326.937C106.692 334.734 104.039 342.348 99 348.404H121C115.961 342.348 113.308 334.734 113.52 326.937V320.712C119.255 325.709 126.676 328.472 134.365 328.472C142.054 328.472 149.475 325.709 155.21 320.712C158.234 318.01 160.664 314.736 162.351 311.089C164.039 307.442 164.949 303.499 165.026 299.498C165.103 295.498 164.346 291.524 162.8 287.818C161.255 284.112 158.953 280.751 156.035 277.94ZM68.75 123.433L77 53.6665H155.76V76.4212H99.77L96.305 105.938C102.788 102.438 110.071 100.592 117.48 100.571C123.318 100.266 129.154 101.191 134.592 103.284C140.031 105.377 144.943 108.588 148.995 112.7C157.081 122.219 161.151 134.384 160.38 146.725C160.591 154.988 158.701 163.175 154.88 170.553C151.114 177.379 145.376 182.977 138.38 186.652C130.575 190.668 121.846 192.664 113.025 192.449C104.853 192.525 96.7687 190.801 89.375 187.404C82.387 184.329 76.4091 179.425 72.105 173.236C67.8366 167.061 65.5049 159.807 65.395 152.36H92.895C93.1096 157.457 95.2902 162.288 99 165.884C102.792 169.163 107.743 170.876 112.805 170.66C115.608 170.802 118.403 170.27 120.945 169.109C123.486 167.949 125.696 166.196 127.38 164.005C131.118 158.427 132.912 151.821 132.495 145.168C132.896 138.668 130.753 132.262 126.5 127.243C124.341 125.148 121.76 123.513 118.92 122.441C116.079 121.37 113.042 120.885 110 121.018C104.045 120.685 98.1728 122.5 93.5 126.117L90.805 128.585L68.75 123.433ZM266.86 542.033L284.735 370.837H465.025V411.14H322.685L312.015 504.842C329.85 494.778 350.155 489.639 370.755 489.977C402.838 489.977 428.303 500.316 447.15 520.996C465.997 541.675 475.42 569.618 475.42 604.823C475.42 640.207 465.63 668.078 446.05 688.436C426.47 708.793 399.117 719.026 363.99 719.133C332.897 719.133 307.523 710.725 287.87 693.91C268.217 677.094 257.015 653.839 254.265 624.143H296.56C299.31 643.857 306.478 658.687 318.065 668.633C330.919 679.046 347.302 684.387 363.99 683.606C373.234 684.027 382.453 682.374 390.939 678.774C399.425 675.173 406.952 669.721 412.94 662.837C424.783 648.991 430.705 629.885 430.705 605.521C430.705 582.552 424.307 564.126 411.51 550.244C405.077 543.315 397.159 537.852 388.319 534.244C379.479 530.637 369.934 528.972 360.36 529.368C340.89 529.368 325.545 533.5 314.435 541.872L302.5 551.049L266.86 542.033Z" fill="white"/>
</g>
<defs>
<clipPath id="clip0_34_552">
<rect width="550" height="805" fill="white"/>
</clipPath>
</defs>
</svg>
