<svg width="550" height="805" viewBox="0 0 550 805" fill="none" xmlns="http://www.w3.org/2000/svg">
<g clip-path="url(#clip0_14_89)">
<path d="M530.75 751.333C530.692 760.567 526.907 769.407 520.215 775.937C513.523 782.467 504.464 786.16 495 786.216H55C45.5363 786.16 36.4767 782.467 29.7847 775.937C23.0927 769.407 19.3077 760.567 19.25 751.333V53.6665C19.3077 44.4323 23.0927 35.5922 29.7847 29.0625C36.4767 22.5328 45.5363 18.8395 55 18.7832H495C504.464 18.8395 513.523 22.5328 520.215 29.0625C526.907 35.5922 530.692 44.4323 530.75 53.6665V751.333Z" fill="#E22521"/>
<path d="M483.45 268.333L470.47 281.75C470.047 282.209 469.53 282.577 468.952 282.828C468.374 283.08 467.748 283.21 467.115 283.21C466.482 283.21 465.856 283.08 465.278 282.828C464.7 282.577 464.183 282.209 463.76 281.75L451 268.333C357.17 171.733 201.41 169.587 109.45 267.797C20.3501 363.001 21.4501 514.663 112.64 608.419L285.34 786.056H286.88L142.175 637.56C50.8751 543.643 49.7751 392.196 138.985 296.938C231 198.567 386.76 201.089 480.535 297.528L493.46 310.837C493.897 311.284 494.421 311.639 495.003 311.882C495.584 312.125 496.21 312.25 496.843 312.25C497.475 312.25 498.101 312.125 498.682 311.882C499.264 311.639 499.789 311.284 500.225 310.837L513.15 297.528C518.65 291.625 524.7 286.258 530.75 281.106V230.767C513.415 241.304 497.505 253.925 483.395 268.333H483.45Z" fill="#B31F23"/>
<path d="M513.15 297.528L500.5 310.837C500.063 311.284 499.539 311.639 498.957 311.882C498.376 312.125 497.75 312.25 497.117 312.25C496.485 312.25 495.859 312.125 495.278 311.882C494.696 311.639 494.171 311.284 493.735 310.837L480.81 297.528C387.035 200.928 231.275 198.781 139.26 296.991C50.1599 392.249 51.2599 543.858 142.45 637.613L286.715 786.27H495C504.464 786.214 513.523 782.52 520.215 775.991C526.907 769.461 530.692 760.621 530.75 751.387V281.106C524.7 286.258 518.815 291.678 513.15 297.528Z" fill="#C72325"/>
<path d="M156.42 243.11C153.593 240.128 150.165 237.749 146.35 236.122C142.536 234.495 138.418 233.655 134.255 233.655C130.092 233.655 125.974 234.495 122.16 236.122C118.345 237.749 114.917 240.128 112.09 243.11L110.44 244.881C110.319 244.987 110.162 245.045 110 245.045C109.838 245.045 109.681 244.987 109.56 244.881L107.91 243.11C105.083 240.128 101.655 237.749 97.8403 236.122C94.0259 234.495 89.908 233.655 85.745 233.655C81.582 233.655 77.4641 234.495 73.6497 236.122C69.8353 237.749 66.407 240.128 63.58 243.11C57.9898 249.204 54.931 257.115 55.0022 265.293C55.0734 273.472 58.2695 281.331 63.965 287.331L109.065 333.699C109.173 333.824 109.308 333.924 109.46 333.992C109.612 334.061 109.778 334.096 109.945 334.096C110.112 334.096 110.278 334.061 110.43 333.992C110.582 333.924 110.717 333.824 110.825 333.699L155.925 287.331C161.621 281.331 164.817 273.472 164.888 265.293C164.959 257.115 161.9 249.204 156.31 243.11H156.42ZM68.75 123.433L77 53.6667H155.76V76.4213H99.77L96.305 105.938C102.788 102.438 110.071 100.592 117.48 100.571C123.318 100.266 129.154 101.191 134.592 103.284C140.03 105.377 144.943 108.588 148.995 112.7C157.081 122.219 161.151 134.384 160.38 146.725C160.531 155.014 158.545 163.208 154.605 170.553C150.86 177.395 145.117 182.998 138.105 186.653C130.3 190.669 121.571 192.664 112.75 192.449C104.578 192.526 96.4937 190.801 89.1 187.404C82.112 184.33 76.1341 179.425 71.83 173.236C67.5616 167.061 65.2298 159.807 65.12 152.36H92.62C92.9078 157.495 95.189 162.331 99 165.884C102.775 169.155 107.705 170.868 112.75 170.66C115.561 170.807 118.366 170.276 120.917 169.116C123.468 167.955 125.688 166.2 127.38 164.005C131.118 158.427 132.912 151.821 132.495 145.168C132.896 138.668 130.753 132.262 126.5 127.244C124.341 125.148 121.76 123.513 118.92 122.441C116.079 121.37 113.042 120.885 110 121.018C104.045 120.685 98.1728 122.5 93.5 126.117L90.75 128.585L68.75 123.433ZM495 0H55C40.4131 0 26.4236 5.65415 16.1091 15.7186C5.79463 25.7831 0 39.4334 0 53.6667L0 751.333C0 765.567 5.79463 779.217 16.1091 789.281C26.4236 799.346 40.4131 805 55 805H495C509.587 805 523.576 799.346 533.891 789.281C544.205 779.217 550 765.567 550 751.333V53.6667C550 39.4334 544.205 25.7831 533.891 15.7186C523.576 5.65415 509.587 0 495 0ZM530.75 751.333C530.692 760.568 526.907 769.408 520.215 775.937C513.523 782.467 504.464 786.16 495 786.217H55C45.5363 786.16 36.4767 782.467 29.7847 775.937C23.0927 769.408 19.3077 760.568 19.25 751.333V53.6667C19.3077 44.4324 23.0927 35.5924 29.7847 29.0626C36.4767 22.5329 45.5363 18.8396 55 18.7833H495C504.464 18.8396 513.523 22.5329 520.215 29.0626C526.907 35.5924 530.692 44.4324 530.75 53.6667V751.333ZM266.86 536.237L284.735 364.933H465.025V405.183H322.685L312.015 499.1C329.85 489.035 350.155 483.897 370.755 484.234C402.838 484.234 428.322 494.574 447.205 515.254C466.052 535.933 475.475 563.876 475.475 599.081C475.475 634.501 465.685 662.372 446.105 682.694C426.525 703.087 399.172 713.284 364.045 713.284C332.952 713.284 307.578 704.876 287.925 688.06C268.272 671.245 257.088 647.989 254.375 618.294H296.725C299.475 637.971 306.625 652.783 318.175 662.73C331.029 673.143 347.412 678.484 364.1 677.703C373.339 678.131 382.556 676.486 391.042 672.895C399.528 669.304 407.057 663.862 413.05 656.987C424.893 643.141 430.815 624.036 430.815 599.671C430.815 576.702 424.398 558.276 411.565 544.395C405.125 537.474 397.206 532.018 388.367 528.41C379.529 524.803 369.987 523.133 360.415 523.518C340.945 523.518 325.6 527.704 314.49 536.023L302.5 545.253L266.86 536.237Z" fill="white"/>
</g>
<defs>
<clipPath id="clip0_14_89">
<rect width="550" height="805" fill="white"/>
</clipPath>
</defs>
</svg>
