<svg width="550" height="805" viewBox="0 0 550 805" fill="none" xmlns="http://www.w3.org/2000/svg">
<g clip-path="url(#clip0_18_386)">
<path d="M530.75 751.333C530.692 760.567 526.907 769.407 520.215 775.937C513.523 782.467 504.464 786.16 495 786.217H55C45.5363 786.16 36.4767 782.467 29.7847 775.937C23.0927 769.407 19.3077 760.567 19.25 751.333V53.6665C19.3077 44.4323 23.0927 35.5922 29.7847 29.0625C36.4767 22.5328 45.5363 18.8395 55 18.7832H495C504.464 18.8395 513.523 22.5328 520.215 29.0625C526.907 35.5922 530.692 44.4323 530.75 53.6665V751.333Z" fill="#3A992C"/>
<path d="M495 0H55C40.4131 0 26.4236 5.65415 16.1091 15.7186C5.79463 25.7831 0 39.4334 0 53.6667L0 751.333C0 765.567 5.79463 779.217 16.1091 789.281C26.4236 799.346 40.4131 805 55 805H495C509.587 805 523.576 799.346 533.891 789.281C544.205 779.217 550 765.567 550 751.333V53.6667C550 39.4334 544.205 25.7831 533.891 15.7186C523.576 5.65415 509.587 0 495 0ZM530.75 751.333C530.692 760.568 526.907 769.408 520.215 775.937C513.523 782.467 504.464 786.16 495 786.217H55C45.5363 786.16 36.4767 782.467 29.7847 775.937C23.0927 769.408 19.3077 760.568 19.25 751.333V53.6667C19.3077 44.4324 23.0927 35.5924 29.7847 29.0626C36.4767 22.5329 45.5363 18.8396 55 18.7833H495C504.464 18.8396 513.523 22.5329 520.215 29.0626C526.907 35.5924 530.692 44.4324 530.75 53.6667V751.333Z" fill="white"/>
<path d="M370.48 775.483L367.895 786.216H403.425C406.154 771.499 407.845 756.616 408.485 741.673C396.936 754.085 384.211 765.405 370.48 775.483ZM456.17 741.888C456.642 743.476 456.9 745.118 456.94 746.771L472.505 758.31L456.17 741.888ZM63.47 777.469C44.6547 759.218 29.6384 737.586 19.25 713.766V738.346C31.9599 753.437 46.8783 766.619 63.525 777.469H63.47ZM198.77 254.004C198.77 311.427 224.785 377.062 263.12 426.435C235.072 415.681 205.254 409.989 175.12 409.637C145.241 409.607 115.733 416.103 88.7621 428.649C61.7908 441.195 38.0394 459.472 19.25 482.141V554.967C34.6374 519.147 60.5047 488.547 93.6179 466.994C126.731 445.441 165.621 433.891 205.425 433.787C235.557 434.161 265.37 439.851 293.425 450.585C254.925 401.212 228.855 335.524 229.075 278.154C229.625 167.064 320.925 78.2456 431.805 78.7286C466.6 78.854 500.746 87.9241 530.805 105.025V101.966C494.89 71.6042 449.02 54.7938 401.5 54.5786C290.62 54.0419 199.43 142.914 198.88 254.004H198.77Z" fill="#297A38"/>
<path d="M378.235 717.523C350.826 746.715 317.559 770.097 280.5 786.217H355.19C360.69 782.836 365.475 779.24 370.48 775.483C374.765 756.398 377.359 736.989 378.235 717.47V717.523ZM425.975 717.684C428.291 740.736 432.075 763.624 437.305 786.217H462L456.5 746.772C445.529 737.905 435.319 728.177 425.975 717.684ZM73.1501 786.217H78.2101L63.5801 777.469L73.1501 786.217ZM506 784.607C508.285 783.857 510.494 782.905 512.6 781.762C498.729 774.944 485.4 767.122 472.725 758.364C483.148 767.889 494.269 776.66 506 784.607Z" fill="#328840"/>
<path d="M229.075 278.154C229.075 335.578 255.09 401.266 293.425 450.585C265.37 439.852 235.557 434.161 205.425 433.788C165.621 433.891 126.731 445.442 93.6179 466.995C60.5047 488.548 34.6374 519.147 19.25 554.967V713.767C29.6424 737.629 44.6782 759.299 63.525 777.576C68.255 780.689 73.15 783.641 78.155 786.324H280.5C317.662 770.22 351.026 746.818 378.51 717.577C377.637 737.114 375.043 756.541 370.755 775.644C384.488 765.55 397.213 754.212 408.76 741.781C408.12 756.724 406.429 771.607 403.7 786.324H437.58C432.35 763.731 428.566 740.843 426.25 717.792C435.734 728.302 446.091 738.03 457.215 746.879C457.175 745.225 456.917 743.584 456.445 741.995C461.56 747.684 467.06 753.104 472.945 758.417C485.62 767.176 498.949 774.997 512.82 781.816C518.287 778.717 522.822 774.269 525.97 768.918C529.117 763.567 530.766 757.503 530.75 751.333V105.026C500.691 87.9245 466.545 78.8544 431.75 78.729C320.87 78.1923 229.625 167.064 229.075 278.154Z" fill="#328840"/>
<path d="M119.9 337.778H100.21C106.645 331.338 106.92 318.458 106.92 318.458C103.581 322.039 99.5482 324.94 95.0551 326.994C90.562 329.048 85.6969 330.214 80.7399 330.426C73.7819 330.426 67.109 327.729 62.1889 322.928C57.2689 318.127 54.5049 311.616 54.5049 304.827C54.5049 298.038 57.2689 291.527 62.1889 286.726C67.109 281.925 73.7819 279.228 80.7399 279.228C84.5043 279.288 88.2282 279.996 91.7399 281.321C86.6732 275.015 83.7506 267.323 83.3799 259.318C83.2187 255.911 83.7672 252.508 84.9922 249.314C86.2172 246.12 88.0933 243.201 90.507 240.735C92.9207 238.269 95.8219 236.305 99.0353 234.964C102.249 233.623 105.707 232.931 109.202 232.931C112.697 232.931 116.156 233.623 119.37 234.964C122.583 236.305 125.484 238.269 127.898 240.735C130.312 243.201 132.188 246.12 133.413 249.314C134.638 252.508 135.186 255.911 135.025 259.318C134.741 267.465 131.749 275.301 126.5 281.643C130.521 279.98 134.838 279.105 139.205 279.067C146.163 279.067 152.836 281.764 157.756 286.565C162.676 291.366 165.44 297.877 165.44 304.666C165.44 311.455 162.676 317.966 157.756 322.767C152.836 327.568 146.163 330.265 139.205 330.265C134.255 330.073 129.392 328.926 124.899 326.89C120.405 324.855 116.37 321.971 113.025 318.405C113.3 318.566 113.575 331.285 119.955 337.725L119.9 337.778ZM68.7499 123.434L76.9999 53.667H155.76V76.4217H99.7699L96.3049 105.938C102.788 102.438 110.071 100.592 117.48 100.572C123.317 100.266 129.154 101.191 134.592 103.284C140.03 105.377 144.943 108.589 148.995 112.7C157.081 122.219 161.151 134.384 160.38 146.725C160.531 155.014 158.545 163.208 154.605 170.553C150.86 177.395 145.117 182.999 138.105 186.653C130.3 190.669 121.57 192.664 112.75 192.449C104.578 192.526 96.4936 190.801 89.0999 187.404C82.1119 184.33 76.1339 179.426 71.8299 173.236C67.5614 167.062 65.2297 159.807 65.1199 152.36H92.6199C92.9076 157.495 95.1889 162.331 98.9999 165.884C102.775 169.156 107.705 170.868 112.75 170.66C115.561 170.807 118.366 170.277 120.917 169.116C123.468 167.956 125.688 166.201 127.38 164.006C131.118 158.427 132.912 151.821 132.495 145.169C132.895 138.669 130.753 132.262 126.5 127.244C124.341 125.149 121.76 123.513 118.919 122.442C116.079 121.37 113.042 120.886 110 121.019C104.045 120.685 98.1727 122.5 93.4999 126.117L90.7499 128.586L68.7499 123.434ZM266.75 542.034L284.68 370.837H464.97V411.194H322.685L312.015 504.467C329.859 494.425 350.158 489.288 370.755 489.601C402.838 489.601 428.322 499.941 447.205 520.621C466.052 541.3 475.475 569.261 475.475 604.502C475.475 639.922 465.685 667.775 446.105 688.061C426.525 708.382 399.172 718.579 364.045 718.651C332.952 718.651 307.578 710.243 287.925 693.427C268.272 676.612 257.088 653.356 254.375 623.661H296.725C299.475 643.338 306.625 658.15 318.175 668.097C331.029 678.51 347.412 683.851 364.1 683.07C373.343 683.491 382.563 681.838 391.049 678.237C399.535 674.637 407.062 669.185 413.05 662.301C424.875 648.455 430.815 629.403 430.815 604.985C430.815 582.087 424.398 563.661 411.565 549.708C405.124 542.788 397.206 537.331 388.367 533.724C379.529 530.117 369.987 528.447 360.415 528.832C340.945 528.832 325.6 533.018 314.49 541.336L302.5 550.835L266.75 542.034Z" fill="white"/>
</g>
<defs>
<clipPath id="clip0_18_386">
<rect width="550" height="805" fill="white"/>
</clipPath>
</defs>
</svg>
