<svg width="550" height="805" viewBox="0 0 550 805" fill="none" xmlns="http://www.w3.org/2000/svg">
<g clip-path="url(#clip0_18_400)">
<path d="M530.75 751.333C530.692 760.567 526.907 769.407 520.215 775.937C513.523 782.467 504.464 786.16 495 786.217H55C45.5363 786.16 36.4767 782.467 29.7847 775.937C23.0927 769.407 19.3077 760.567 19.25 751.333V53.6665C19.3077 44.4323 23.0927 35.5922 29.7847 29.0625C36.4767 22.5328 45.5363 18.8395 55 18.7832H495C504.464 18.8395 513.523 22.5328 520.215 29.0625C526.907 35.5922 530.692 44.4323 530.75 53.6665V751.333Z" fill="#1F86BF"/>
<path d="M495 0H55C40.4131 0 26.4236 5.65415 16.1091 15.7186C5.79463 25.7831 0 39.4334 0 53.6667L0 751.333C0 765.567 5.79463 779.217 16.1091 789.281C26.4236 799.346 40.4131 805 55 805H495C509.587 805 523.576 799.346 533.891 789.281C544.205 779.217 550 765.567 550 751.333V53.6667C550 39.4334 544.205 25.7831 533.891 15.7186C523.576 5.65415 509.587 0 495 0ZM530.75 751.333C530.692 760.568 526.907 769.408 520.215 775.937C513.523 782.467 504.464 786.16 495 786.217H55C45.5363 786.16 36.4767 782.467 29.7847 775.937C23.0927 769.408 19.3077 760.568 19.25 751.333V53.6667C19.3077 44.4324 23.0927 35.5924 29.7847 29.0626C36.4767 22.5329 45.5363 18.8396 55 18.7833H495C504.464 18.8396 513.523 22.5329 520.215 29.0626C526.907 35.5924 530.692 44.4324 530.75 53.6667V751.333Z" fill="white"/>
<path d="M69.3001 588.885C68.6492 587.981 68.2999 586.903 68.2999 585.799C68.2999 584.694 68.6492 583.617 69.3001 582.713L392.7 136.528L374 110.983C373.504 110.218 372.818 109.588 372.005 109.152C371.193 108.715 370.28 108.486 369.353 108.486C368.425 108.486 367.512 108.715 366.7 109.152C365.887 109.588 365.201 110.218 364.705 110.983L22.0001 583.572C21.3369 584.481 20.9805 585.569 20.9805 586.684C20.9805 587.8 21.3369 588.888 22.0001 589.797L162.36 786.217H210.045L69.3001 588.885Z" fill="#1B71A1"/>
<path d="M411.95 110.016L392.7 136.474L530.75 326.83V261.195L421.19 110.016C420.694 109.251 420.008 108.622 419.195 108.185C418.383 107.748 417.47 107.52 416.542 107.52C415.615 107.52 414.702 107.748 413.89 108.185C413.077 108.622 412.391 109.251 411.895 110.016H411.95ZM69.3 582.712C68.6491 583.616 68.2998 584.694 68.2998 585.798C68.2998 586.903 68.6491 587.98 69.3 588.884L210.32 786.216H495C504.464 786.16 513.523 782.467 520.215 775.937C526.907 769.407 530.692 760.567 530.75 751.333V326.937L392.7 136.528L69.3 582.712Z" fill="#1E7BAF"/>
<path d="M68.75 123.434L77 53.667H155.76V76.4217H99.77L96.305 105.938C102.788 102.438 110.071 100.592 117.48 100.572C123.318 100.266 129.154 101.191 134.592 103.284C140.03 105.377 144.943 108.589 148.995 112.7C157.081 122.219 161.151 134.384 160.38 146.725C160.591 154.989 158.701 163.175 154.88 170.553C151.114 177.38 145.376 182.978 138.38 186.653C130.575 190.669 121.846 192.664 113.025 192.449C104.853 192.526 96.7686 190.801 89.375 187.404C82.387 184.33 76.409 179.426 72.105 173.236C67.8365 167.062 65.5048 159.807 65.395 152.36H92.895C93.1096 157.458 95.2902 162.288 99 165.884C102.792 169.164 107.742 170.877 112.805 170.66C115.607 170.803 118.403 170.27 120.945 169.11C123.486 167.949 125.696 166.196 127.38 164.006C131.118 158.427 132.912 151.821 132.495 145.169C132.895 138.669 130.753 132.262 126.5 127.244C124.341 125.149 121.76 123.513 118.919 122.442C116.079 121.37 113.042 120.886 110 121.019C104.045 120.685 98.1727 122.5 93.5 126.117L90.75 128.586L68.75 123.434ZM266.75 542.034L284.68 370.837H464.97V411.194H322.685L312.015 504.467C329.859 494.425 350.158 489.288 370.755 489.601C402.838 489.601 428.322 499.941 447.205 520.621C466.052 541.3 475.475 569.261 475.475 604.502C475.475 639.922 465.685 667.775 446.105 688.061C426.525 708.382 399.172 718.579 364.045 718.651C332.952 718.651 307.578 710.243 287.925 693.427C268.272 676.612 257.088 653.356 254.375 623.661H296.725C299.475 643.338 306.625 658.15 318.175 668.097C331.029 678.51 347.412 683.851 364.1 683.07C373.344 683.491 382.563 681.838 391.049 678.237C399.535 674.637 407.062 669.185 413.05 662.301C424.875 648.455 430.815 629.403 430.815 604.985C430.815 582.087 424.398 563.661 411.565 549.708C405.138 542.786 397.229 537.328 388.399 533.72C379.569 530.112 370.034 528.443 360.47 528.832C341 528.832 325.655 533.018 314.545 541.336L302.445 550.835L266.75 542.034ZM154 301.178L105.16 233.987C105.083 233.887 104.983 233.806 104.869 233.75C104.754 233.694 104.628 233.665 104.5 233.665C104.372 233.665 104.246 233.694 104.131 233.75C104.016 233.806 103.917 233.887 103.84 233.987L55 301.178C54.8974 301.309 54.8418 301.469 54.8418 301.634C54.8418 301.799 54.8974 301.959 55 302.09L103.84 370.3C103.917 370.4 104.016 370.481 104.131 370.537C104.246 370.593 104.372 370.622 104.5 370.622C104.628 370.622 104.754 370.593 104.869 370.537C104.983 370.481 105.083 370.4 105.16 370.3L154 302.144C154.103 302.013 154.158 301.852 154.158 301.687C154.158 301.523 154.103 301.362 154 301.231V301.178Z" fill="white"/>
</g>
<defs>
<clipPath id="clip0_18_400">
<rect width="550" height="805" fill="white"/>
</clipPath>
</defs>
</svg>
