<svg width="550" height="805" viewBox="0 0 550 805" fill="none" xmlns="http://www.w3.org/2000/svg">
<g clip-path="url(#clip0_11_2)">
<path d="M530.75 751.333C530.692 760.567 526.907 769.407 520.215 775.937C513.523 782.467 504.464 786.16 495 786.217H55C45.5363 786.16 36.4767 782.467 29.7847 775.937C23.0927 769.407 19.3077 760.567 19.25 751.333V53.6665C19.3077 44.4323 23.0927 35.5922 29.7847 29.0625C36.4767 22.5328 45.5363 18.8395 55 18.7832H495C504.464 18.8395 513.523 22.5328 520.215 29.0625C526.907 35.5922 530.692 44.4323 530.75 53.6665V751.333Z" fill="#3B3B3B"/>
<path d="M495 0H55C40.4131 0 26.4236 5.65415 16.1091 15.7186C5.79463 25.7831 0 39.4334 0 53.6667L0 751.333C0 765.567 5.79463 779.217 16.1091 789.281C26.4236 799.346 40.4131 805 55 805H495C509.587 805 523.576 799.346 533.891 789.281C544.205 779.217 550 765.567 550 751.333V53.6667C550 39.4334 544.205 25.7831 533.891 15.7186C523.576 5.65415 509.587 0 495 0ZM530.75 751.333C530.692 760.568 526.907 769.408 520.215 775.937C513.523 782.467 504.464 786.16 495 786.217H55C45.5363 786.16 36.4767 782.467 29.7847 775.937C23.0927 769.408 19.3077 760.568 19.25 751.333V53.6667C19.3077 44.4324 23.0927 35.5924 29.7847 29.0626C36.4767 22.5329 45.5363 18.8396 55 18.7833H495C504.464 18.8396 513.523 22.5329 520.215 29.0626C526.907 35.5924 530.692 44.4324 530.75 53.6667V751.333Z" fill="white"/>
<path d="M489.885 759.222C500.206 764.939 510.963 769.873 522.06 773.98C522.665 773.283 523.215 772.531 523.765 771.834C511.74 764.85 500.399 756.801 489.885 747.791V759.222ZM401.5 773.98V786.216H439.45V747.791C427.758 757.773 415.041 766.549 401.5 773.98ZM135.245 441.408L453.365 133.63L433.565 114.417C431.782 112.687 429.37 111.715 426.855 111.715C424.34 111.715 421.928 112.687 420.145 114.417L97.46 426.65C76.6158 446.765 60.1736 470.799 49.1294 497.297C38.0852 523.796 32.669 552.206 33.209 580.806C33.7489 609.407 40.2338 637.603 52.2706 663.687C64.3075 689.77 81.6457 713.197 103.235 732.55C127.396 754.377 156.432 770.418 188.045 779.401C170.952 770.788 155.133 759.956 141.02 747.201C119.469 727.837 102.164 704.412 90.1505 678.34C78.1373 652.268 71.6654 624.09 71.1256 595.509C70.5858 566.928 75.9895 538.537 87.01 512.051C98.0306 485.564 114.439 461.533 135.245 441.408Z" fill="#252525"/>
<path d="M401.5 733.033C367.941 761.696 326.538 780.179 282.37 786.216H375.87C384.669 782.668 393.229 778.581 401.5 773.98V733.033ZM452.045 733.033V786.216H489.72V759.383C476.291 751.85 463.67 743.022 452.045 733.033ZM457.93 129.175L453.365 133.63L530.75 208.763V186.652L471.35 129.175C469.567 127.445 467.155 126.474 464.64 126.474C462.125 126.474 459.713 127.445 457.93 129.175ZM202.4 786.216H219.45C208.829 784.752 198.332 782.528 188.045 779.562C192.775 781.977 197.56 784.177 202.4 786.216Z" fill="#2E2F2F"/>
<path d="M135.245 441.408C114.422 461.535 97.9988 485.573 86.968 512.069C75.9372 538.565 70.5282 566.969 71.068 595.563C71.6078 624.158 78.0853 652.348 90.1087 678.43C102.132 704.512 119.452 727.943 141.02 747.308C155.133 760.064 170.952 770.895 188.045 779.508C198.332 782.474 208.829 784.698 219.45 786.163H282.48C326.604 780.121 367.965 761.658 401.5 733.033V773.98C415.003 766.543 427.683 757.767 439.34 747.791V786.216H452.1V733.033C463.784 742.975 476.461 751.749 489.94 759.222V747.791C500.454 756.801 511.795 764.85 523.82 771.834C528.304 765.892 530.731 758.711 530.75 751.333V208.495L453.365 133.361L135.245 441.408Z" fill="#2E2F2F"/>
<path d="M489.885 759.223C500.206 764.94 510.963 769.874 522.06 773.981C522.665 773.283 523.215 772.532 523.765 771.834C511.74 764.85 500.399 756.802 489.885 747.791V759.223ZM401.5 773.981V786.217H439.45V747.791C427.758 757.774 415.041 766.55 401.5 773.981ZM135.245 441.409L453.365 133.63L433.565 114.418C431.782 112.687 429.37 111.716 426.855 111.716C424.34 111.716 421.928 112.687 420.145 114.418L97.4599 426.65C76.6157 446.765 60.1734 470.8 49.1293 497.298C38.0851 523.796 32.6689 552.206 33.2089 580.807C33.7488 609.408 40.2336 637.604 52.2705 663.687C64.3073 689.77 81.6456 713.198 103.235 732.55C127.396 754.378 156.432 770.418 188.045 779.401C170.952 770.788 155.133 759.957 141.02 747.201C119.468 727.838 102.163 704.413 90.1503 678.341C78.1372 652.268 71.6652 624.091 71.1255 595.51C70.5857 566.929 75.9893 538.537 87.0099 512.051C98.0305 485.565 114.439 461.533 135.245 441.409Z" fill="#252525"/>
<path d="M401.5 733.033C367.941 761.696 326.538 780.18 282.37 786.217H375.87C384.669 782.669 393.229 778.582 401.5 773.981V733.033ZM452.045 733.033V786.217H489.72V759.383C476.291 751.85 463.67 743.023 452.045 733.033ZM457.93 129.176L453.365 133.63L530.75 208.763V186.653L471.35 129.176C469.567 127.445 467.155 126.474 464.64 126.474C462.125 126.474 459.713 127.445 457.93 129.176ZM202.4 786.217H219.45C208.829 784.752 198.332 782.528 188.045 779.562C192.775 781.977 197.56 784.177 202.4 786.217Z" fill="#2E2F2F"/>
<path d="M135.245 441.408C114.422 461.535 97.9986 485.573 86.9679 512.07C75.9371 538.566 70.5281 566.97 71.0679 595.564C71.6077 624.158 78.0852 652.348 90.1085 678.43C102.132 704.512 119.451 727.944 141.02 747.309C155.133 760.064 170.952 770.896 188.045 779.509C198.332 782.475 208.829 784.699 219.45 786.163H282.48C326.603 780.121 367.965 761.658 401.5 733.033V773.981C415.002 766.544 427.683 757.767 439.34 747.791V786.217H452.1V733.033C463.784 742.976 476.461 751.749 489.94 759.223V747.791C500.454 756.802 511.795 764.85 523.82 771.834C528.304 765.893 530.731 758.712 530.75 751.334V208.495L453.365 133.362L135.245 441.408Z" fill="#2E2F2F"/>
<path d="M489.885 759.223C500.206 764.94 510.963 769.874 522.06 773.981C522.665 773.283 523.215 772.532 523.765 771.834C511.74 764.85 500.399 756.802 489.885 747.791V759.223ZM401.5 773.981V786.217H439.45V747.791C427.758 757.774 415.041 766.55 401.5 773.981ZM135.245 441.409L453.365 133.63L433.565 114.418C431.782 112.687 429.37 111.716 426.855 111.716C424.34 111.716 421.928 112.687 420.145 114.418L97.4599 426.65C76.6157 446.765 60.1734 470.8 49.1293 497.298C38.0851 523.796 32.6689 552.206 33.2089 580.807C33.7488 609.408 40.2336 637.604 52.2705 663.687C64.3073 689.77 81.6456 713.198 103.235 732.55C127.396 754.378 156.432 770.418 188.045 779.401C170.952 770.788 155.133 759.957 141.02 747.201C119.468 727.838 102.163 704.413 90.1503 678.341C78.1372 652.268 71.6652 624.091 71.1255 595.51C70.5857 566.929 75.9893 538.537 87.0099 512.051C98.0305 485.565 114.439 461.533 135.245 441.409Z" fill="#252525"/>
<path d="M401.5 733.033C367.941 761.696 326.538 780.18 282.37 786.217H375.87C384.669 782.669 393.229 778.582 401.5 773.981V733.033ZM452.045 733.033V786.217H489.72V759.383C476.291 751.85 463.67 743.023 452.045 733.033ZM457.93 129.176L453.365 133.63L530.75 208.763V186.653L471.35 129.176C469.567 127.445 467.155 126.474 464.64 126.474C462.125 126.474 459.713 127.445 457.93 129.176ZM202.4 786.217H219.45C208.829 784.752 198.332 782.528 188.045 779.562C192.775 781.977 197.56 784.177 202.4 786.217Z" fill="#2E2F2F"/>
<path d="M135.245 441.408C114.422 461.535 97.9986 485.573 86.9679 512.07C75.9371 538.566 70.5281 566.97 71.0679 595.564C71.6077 624.158 78.0852 652.348 90.1085 678.43C102.132 704.512 119.451 727.944 141.02 747.309C155.133 760.064 170.952 770.896 188.045 779.509C198.332 782.475 208.829 784.699 219.45 786.163H282.48C326.603 780.121 367.965 761.658 401.5 733.033V773.981C415.002 766.544 427.683 757.767 439.34 747.791V786.217H452.1V733.033C463.784 742.976 476.461 751.749 489.94 759.223V747.791C500.454 756.802 511.795 764.85 523.82 771.834C528.304 765.893 530.731 758.712 530.75 751.334V208.495L453.365 133.362L135.245 441.408Z" fill="#2E2F2F"/>
<path d="M157.64 278.053L111.825 234.4C111.566 234.17 111.227 234.042 110.875 234.042C110.522 234.042 110.183 234.17 109.925 234.4L64.1092 278.053C61.1185 280.868 58.7579 284.24 57.1721 287.963C55.5863 291.686 54.8088 295.682 54.8872 299.704C54.9657 303.726 55.8985 307.69 57.6284 311.354C59.3584 315.017 61.8489 318.302 64.9473 321.007C70.7736 326.008 78.3116 328.771 86.123 328.771C93.9345 328.771 101.472 326.008 107.299 321.007V327.075C107.514 334.876 104.819 342.494 99.7001 348.552H122.049C116.931 342.494 114.235 334.876 114.451 327.075V320.846C120.277 325.846 127.815 328.61 135.626 328.61C143.438 328.61 150.976 325.846 156.802 320.846C159.874 318.143 162.343 314.867 164.057 311.219C165.771 307.57 166.695 303.625 166.774 299.622C166.852 295.62 166.083 291.644 164.513 287.936C162.943 284.228 160.604 280.865 157.64 278.053ZM141.716 52.0032V74.4471H138.811C127.642 74.0769 116.69 77.4774 107.858 84.0582C99.9416 90.6794 95.0132 99.9979 94.1129 110.046C97.8422 106.37 102.326 103.479 107.279 101.557C112.233 99.634 117.548 98.7217 122.887 98.8776C128.529 98.6607 134.146 99.7071 139.295 101.934C144.444 104.161 148.984 107.508 152.556 111.71C160.326 121.362 164.285 133.347 163.73 145.537C163.857 153.967 161.783 162.293 157.696 169.753C153.816 176.859 147.878 182.733 140.599 186.666C132.97 190.748 124.355 192.822 115.624 192.68C108.757 192.934 101.918 191.711 95.606 189.101C89.2938 186.491 83.6679 182.559 79.1389 177.592C69.4133 166.319 64.4481 151.947 65.2266 137.322V127.496C64.9297 113.849 67.9325 100.321 73.9987 87.9778C79.5124 76.9375 88.2986 67.7095 99.2531 61.4533C110.854 55.0528 124.04 51.7874 137.414 52.0032H141.716ZM114.059 120.892C109.628 120.838 105.277 122.033 101.544 124.328C97.9242 126.496 95.0634 129.657 93.3306 133.403V141.725C92.8426 149.267 94.7943 156.769 98.9179 163.202C100.638 165.516 102.893 167.414 105.506 168.747C108.119 170.08 111.019 170.812 113.976 170.885C116.934 170.958 119.868 170.369 122.549 169.167C125.23 167.964 127.584 166.18 129.424 163.954C133.35 158.759 135.32 152.434 135.012 146.02C135.368 139.551 133.395 133.161 129.424 127.926C127.637 125.657 125.308 123.833 122.634 122.609C119.96 121.385 117.019 120.796 114.059 120.892ZM427.562 370.835V408.045H419.237C383.85 408.689 355.691 418.765 334.757 438.274C313.823 457.783 301.717 485.238 298.44 520.64C317.287 499.842 342.989 489.462 375.544 489.498C389.617 488.934 403.639 491.461 416.544 496.885C429.45 502.309 440.899 510.488 450.022 520.801C468.647 541.884 477.959 569.107 477.959 602.469C477.959 637.87 467.939 666.185 447.899 687.412C427.86 708.638 400.947 719.323 367.163 719.467C351.202 719.899 335.358 716.723 320.908 710.195C306.458 703.667 293.805 693.968 283.969 681.881C262.7 656.824 252.047 624.304 252.009 584.32V567.568C252.009 504.317 266.052 455.993 294.137 422.595C322.223 389.198 363.997 372.106 419.46 371.318L427.562 370.835ZM367.889 525.58C352.612 525.787 337.751 530.396 325.229 538.811C312.708 547.225 303.103 559.057 297.657 572.776V588.884C297.657 617.163 304.288 639.965 317.548 657.29C330.809 674.615 347.328 683.277 367.107 683.277C376.354 683.663 385.562 681.914 393.961 678.177C402.36 674.441 409.705 668.825 415.381 661.8C427.04 647.482 432.888 628.528 432.925 604.938C432.963 581.349 427.04 562.252 415.158 547.648C409.7 540.594 402.556 534.906 394.328 531.065C386.101 527.224 377.033 525.343 367.889 525.58Z" fill="white"/>
</g>
<defs>
<clipPath id="clip0_11_2">
<rect width="550" height="805" fill="white"/>
</clipPath>
</defs>
</svg>
