<svg width="550" height="805" viewBox="0 0 550 805" fill="none" xmlns="http://www.w3.org/2000/svg">
<g clip-path="url(#clip0_18_301)">
<path d="M530.75 751.333C530.692 760.567 526.907 769.407 520.215 775.937C513.523 782.467 504.464 786.16 495 786.216H55C45.5363 786.16 36.4767 782.467 29.7847 775.937C23.0927 769.407 19.3077 760.567 19.25 751.333V53.6665C19.3077 44.4323 23.0927 35.5922 29.7847 29.0625C36.4767 22.5328 45.5363 18.8395 55 18.7832H495C504.464 18.8395 513.523 22.5328 520.215 29.0625C526.907 35.5922 530.692 44.4323 530.75 53.6665V751.333Z" fill="#E22521"/>
<path d="M483.395 268.333L470.415 281.75C469.992 282.209 469.475 282.577 468.897 282.828C468.319 283.08 467.693 283.21 467.06 283.21C466.427 283.21 465.801 283.08 465.223 282.828C464.645 282.577 464.128 282.209 463.705 281.75L451 268.333C357.17 171.733 201.41 169.587 109.45 267.85C20.295 363.055 21.4499 514.717 112.64 608.473L285.395 786.109H286.935L142.175 637.614C50.8749 543.751 49.83 392.25 138.985 296.991C231 198.567 386.76 201.089 480.535 297.528L493.46 310.837C493.896 311.284 494.421 311.639 495.003 311.882C495.584 312.125 496.21 312.25 496.842 312.25C497.475 312.25 498.101 312.125 498.682 311.882C499.263 311.639 499.788 311.284 500.225 310.837L513.15 297.528C518.65 291.678 524.7 286.258 530.75 281.106V230.767C513.414 241.304 497.505 253.925 483.395 268.333Z" fill="#B31F23"/>
<path d="M513.15 297.528L500.5 310.837C500.063 311.284 499.539 311.639 498.957 311.882C498.376 312.125 497.75 312.25 497.118 312.25C496.485 312.25 495.859 312.125 495.278 311.882C494.696 311.639 494.172 311.284 493.735 310.837L480.81 297.528C387.035 200.928 231.275 198.781 139.26 296.991C50.105 392.249 51.26 543.858 142.45 637.613L286.715 786.216H495C504.464 786.16 513.523 782.467 520.215 775.937C526.907 769.407 530.692 760.567 530.75 751.333V281.106C524.7 286.258 518.815 291.678 513.15 297.528Z" fill="#C72325"/>
<path d="M156.42 243.11C153.593 240.128 150.165 237.749 146.35 236.122C142.536 234.495 138.418 233.655 134.255 233.655C130.092 233.655 125.974 234.495 122.16 236.122C118.345 237.749 114.917 240.128 112.09 243.11L110.44 244.881C110.319 244.987 110.162 245.045 110 245.045C109.838 245.045 109.681 244.987 109.56 244.881L107.91 243.11C105.083 240.128 101.655 237.749 97.8403 236.122C94.0259 234.495 89.9079 233.655 85.745 233.655C81.582 233.655 77.464 234.495 73.6497 236.122C69.8353 237.749 66.407 240.128 63.58 243.11C57.9897 249.205 54.931 257.115 55.0022 265.294C55.0734 273.472 58.2694 281.331 63.965 287.332L109.12 333.7C109.228 333.824 109.363 333.924 109.515 333.992C109.667 334.061 109.833 334.097 110 334.097C110.167 334.097 110.333 334.061 110.485 333.992C110.637 333.924 110.772 333.824 110.88 333.7L156.035 287.332C161.731 281.331 164.927 273.472 164.998 265.294C165.069 257.115 162.01 249.205 156.42 243.11ZM140.36 52.0032V74.4359H137.5C126.49 74.0759 115.695 77.473 106.975 84.0422C99.2216 90.6832 94.3944 99.9881 93.5 110.017C97.171 106.343 101.585 103.453 106.461 101.532C111.337 99.6102 116.569 98.6984 121.825 98.8542C127.379 98.6374 132.908 99.6833 137.976 101.909C143.045 104.135 147.514 107.48 151.03 111.681C158.678 121.327 162.576 133.306 162.03 145.491C162.155 153.916 160.113 162.238 156.09 169.694C152.27 176.797 146.425 182.668 139.26 186.599C131.75 190.679 123.269 192.752 114.675 192.61C107.916 192.864 101.183 191.642 94.9698 189.033C88.7562 186.424 83.2182 182.494 78.76 177.53C69.1958 166.257 64.3094 151.895 65.065 137.28V127.459C64.7727 113.818 67.7285 100.297 73.7 87.9599C79.1276 76.9251 87.7765 67.7016 98.56 61.4485C109.979 55.0513 122.959 51.7875 136.125 52.0032H140.36ZM112.86 120.858C108.514 120.795 104.246 121.99 100.595 124.292C97.0183 126.444 94.1981 129.607 92.51 133.362V141.627C92.0332 149.164 93.9541 156.661 98.01 163.093C99.7029 165.405 101.923 167.302 104.495 168.635C107.068 169.967 109.922 170.699 112.833 170.772C115.744 170.844 118.633 170.257 121.272 169.055C123.911 167.853 126.228 166.069 128.04 163.845C131.904 158.652 133.844 152.331 133.54 145.92C133.9 139.453 131.957 133.063 128.04 127.834C126.287 125.602 124.018 123.806 121.418 122.593C118.818 121.381 115.961 120.786 113.08 120.858H112.86Z" fill="white"/>
<path d="M495 0H55C40.4131 0 26.4236 5.65415 16.1091 15.7186C5.79463 25.7831 0 39.4334 0 53.6667L0 751.333C0 765.567 5.79463 779.217 16.1091 789.281C26.4236 799.346 40.4131 805 55 805H495C509.587 805 523.576 799.346 533.891 789.281C544.205 779.217 550 765.567 550 751.333V53.6667C550 39.4334 544.205 25.7831 533.891 15.7186C523.576 5.65415 509.587 0 495 0ZM530.75 751.333C530.692 760.568 526.907 769.408 520.215 775.937C513.523 782.467 504.464 786.16 495 786.217H55C45.5363 786.16 36.4767 782.467 29.7847 775.937C23.0927 769.408 19.3077 760.568 19.25 751.333V53.6667C19.3077 44.4324 23.0927 35.5924 29.7847 29.0626C36.4767 22.5329 45.5363 18.8396 55 18.7833H495C504.464 18.8396 513.523 22.5329 520.215 29.0626C526.907 35.5924 530.692 44.4324 530.75 53.6667V751.333Z" fill="white"/>
<path d="M421.74 364.934V401.964H413.545C378.712 402.608 350.992 412.679 330.385 432.178C309.778 451.677 297.862 479.1 294.635 514.449C313.188 493.483 338.488 483 370.535 483C384.428 482.5 398.255 485.102 410.96 490.608C423.666 496.114 434.915 504.378 443.85 514.771C462.183 535.844 471.35 563.053 471.35 596.398C471.35 631.782 461.487 660.082 441.76 681.299C422.033 702.515 395.56 713.123 362.34 713.123C346.628 713.555 331.032 710.381 316.808 703.856C302.583 697.331 290.128 687.637 280.445 675.556C259.508 650.297 249.022 617.775 248.985 577.99V561.246C248.985 498.098 262.808 449.798 290.455 416.346C318.102 382.894 359.205 365.756 413.765 364.934H421.74ZM363 519.494C347.954 519.672 333.311 524.267 320.98 532.681C308.649 541.095 299.2 552.938 293.865 566.667V582.767C293.865 611.031 300.392 633.821 313.445 651.138C326.498 668.454 342.76 677.113 362.23 677.113C371.335 677.516 380.405 675.776 388.676 672.04C396.946 668.304 404.175 662.681 409.75 655.646C421.227 641.335 426.983 622.39 427.02 598.813C427.057 575.235 421.208 556.166 409.475 541.604C404.108 534.558 397.085 528.873 388.998 525.025C380.91 521.178 371.995 519.281 363 519.494Z" fill="white"/>
</g>
<defs>
<clipPath id="clip0_18_301">
<rect width="550" height="805" fill="white"/>
</clipPath>
</defs>
</svg>
