<svg width="550" height="805" viewBox="0 0 550 805" fill="none" xmlns="http://www.w3.org/2000/svg">
<g clip-path="url(#clip0_11_27)">
<path d="M530.75 751.333C530.692 760.567 526.907 769.407 520.215 775.937C513.523 782.467 504.464 786.16 495 786.217H55C45.5363 786.16 36.4767 782.467 29.7847 775.937C23.0927 769.407 19.3077 760.567 19.25 751.333V53.6665C19.3077 44.4323 23.0927 35.5922 29.7847 29.0625C36.4767 22.5328 45.5363 18.8395 55 18.7832H495C504.464 18.8395 513.523 22.5328 520.215 29.0625C526.907 35.5922 530.692 44.4323 530.75 53.6665V751.333Z" fill="#3A992C"/>
<path d="M495 0H55C40.4131 0 26.4236 5.65415 16.1091 15.7186C5.79463 25.7831 0 39.4334 0 53.6667L0 751.333C0 765.567 5.79463 779.217 16.1091 789.281C26.4236 799.346 40.4131 805 55 805H495C509.587 805 523.576 799.346 533.891 789.281C544.205 779.217 550 765.567 550 751.333V53.6667C550 39.4334 544.205 25.7831 533.891 15.7186C523.576 5.65415 509.587 0 495 0ZM530.75 751.333C530.692 760.568 526.907 769.408 520.215 775.937C513.523 782.467 504.464 786.16 495 786.217H55C45.5363 786.16 36.4767 782.467 29.7847 775.937C23.0927 769.408 19.3077 760.568 19.25 751.333V53.6667C19.3077 44.4324 23.0927 35.5924 29.7847 29.0626C36.4767 22.5329 45.5363 18.8396 55 18.7833H495C504.464 18.8396 513.523 22.5329 520.215 29.0626C526.907 35.5924 530.692 44.4324 530.75 53.6667V751.333Z" fill="white"/>
<path d="M456.17 741.888C456.642 743.476 456.9 745.118 456.94 746.771C461.945 750.742 467.17 754.553 472.505 758.31C466.785 752.997 461.285 747.576 456.17 741.888ZM198.88 254.004C198.88 311.374 224.895 377.062 263.175 426.435C235.127 415.681 205.309 409.989 175.175 409.637C145.287 409.599 115.768 416.091 88.7869 428.637C61.8054 441.183 38.0453 459.465 19.25 482.141V554.967C34.6374 519.147 60.5047 488.547 93.6179 466.994C126.731 445.441 165.621 433.891 205.425 433.787C235.557 434.161 265.37 439.851 293.425 450.585C254.925 401.265 228.855 335.524 229.13 278.154C229.68 167.064 320.925 78.2456 431.86 78.7286C466.655 78.854 500.801 87.9241 530.86 105.025V101.966C494.93 71.5922 449.039 54.7809 401.5 54.5786C290.62 54.0419 199.43 142.914 198.88 254.004ZM63.525 777.468C44.69 759.223 29.6548 737.59 19.25 713.766V738.346C31.9599 753.437 46.8783 766.619 63.525 777.468ZM370.48 775.536C369.71 779.025 368.83 782.62 367.895 786.27H403.425C406.154 771.552 407.845 756.67 408.485 741.727C396.936 754.139 384.211 765.459 370.48 775.536Z" fill="#297A38"/>
<path d="M425.975 717.684C428.291 740.736 432.075 763.624 437.305 786.217H462C458.81 768.453 457.49 754.017 456.5 746.772C445.528 737.905 435.319 728.177 425.975 717.684ZM506 784.553C508.284 783.804 510.494 782.852 512.6 781.709C498.729 774.89 485.4 767.069 472.725 758.31C483.148 767.835 494.269 776.606 506 784.553ZM73.0949 786.217H78.1549C73.1499 783.533 68.2549 780.582 63.5249 777.469C66.6049 780.474 69.7949 783.533 73.0949 786.217ZM378.235 717.47C350.831 746.681 317.564 770.081 280.5 786.217H355.19C360.69 782.836 365.475 779.24 370.48 775.483C374.764 756.398 377.359 736.989 378.235 717.47Z" fill="#328840"/>
<path d="M229.075 278.154C229.075 335.524 255.09 401.265 293.37 450.585C265.315 439.851 235.502 434.16 205.37 433.787C165.575 433.901 126.697 445.457 93.595 467.009C60.4926 488.561 34.6338 519.155 19.25 554.967V713.766C29.6424 737.629 44.6782 759.298 63.525 777.576C68.255 780.688 73.15 783.64 78.155 786.324H280.5C317.662 770.22 351.026 746.817 378.51 717.577C377.637 737.114 375.043 756.541 370.755 775.644C384.488 765.549 397.213 754.211 408.76 741.78C408.12 756.723 406.429 771.606 403.7 786.324H437.58C432.35 763.731 428.566 740.843 426.25 717.791C435.734 728.301 446.091 738.03 457.215 746.878C457.175 745.225 456.917 743.583 456.445 741.995C461.56 747.683 467.06 753.104 472.945 758.417C485.62 767.176 498.949 774.997 512.82 781.815C518.287 778.717 522.822 774.268 525.97 768.918C529.117 763.567 530.766 757.502 530.75 751.333V105.025C500.691 87.924 466.545 78.8539 431.75 78.7285C320.87 78.2455 229.625 167.064 229.075 278.154Z" fill="#328840"/>
<path d="M119.955 337.778H100.265C106.7 331.392 106.975 318.458 106.975 318.458C103.635 322.039 99.6031 324.94 95.11 326.994C90.6169 329.048 85.7518 330.214 80.7948 330.426C73.8369 330.426 67.1639 327.729 62.2439 322.928C57.3238 318.127 54.5598 311.616 54.5598 304.827C54.5598 298.038 57.3238 291.526 62.2439 286.726C67.1639 281.925 73.8369 279.228 80.7948 279.228C84.5592 279.288 88.2831 279.996 91.7948 281.321C86.7282 275.015 83.8055 267.322 83.4348 259.318C83.2736 255.911 83.8221 252.508 85.0471 249.314C86.2721 246.12 88.1482 243.201 90.5619 240.735C92.9756 238.268 95.8768 236.305 99.0902 234.964C102.304 233.623 105.762 232.931 109.257 232.931C112.752 232.931 116.211 233.623 119.424 234.964C122.638 236.305 125.539 238.268 127.953 240.735C130.366 243.201 132.242 246.12 133.467 249.314C134.692 252.508 135.241 255.911 135.08 259.318C134.78 267.471 131.768 275.308 126.5 281.643C130.521 279.98 134.838 279.105 139.205 279.067C146.163 279.067 152.836 281.764 157.756 286.565C162.676 291.365 165.44 297.877 165.44 304.666C165.44 311.455 162.676 317.966 157.756 322.767C152.836 327.568 146.163 330.265 139.205 330.265C134.255 330.073 129.392 328.926 124.899 326.89C120.405 324.855 116.37 321.971 113.025 318.405C113.3 318.566 113.52 331.285 119.955 337.778ZM140.36 52.0032V74.4359H137.5C126.489 74.0759 115.695 77.473 106.975 84.0422C99.2214 90.6832 94.3943 99.9881 93.4998 110.017C97.1709 106.343 101.584 103.453 106.46 101.532C111.336 99.6102 116.569 98.6984 121.825 98.8542C127.379 98.6374 132.908 99.6833 137.976 101.909C143.045 104.135 147.514 107.48 151.03 111.681C158.678 121.327 162.576 133.306 162.03 145.491C162.155 153.916 160.113 162.238 156.09 169.694C152.27 176.797 146.425 182.668 139.26 186.599C131.75 190.679 123.269 192.752 114.675 192.61C107.915 192.864 101.183 191.642 94.9696 189.033C88.7561 186.424 83.218 182.494 78.7598 177.53C69.1861 166.262 64.2984 151.897 65.0648 137.28V127.459C64.7725 113.818 67.7284 100.297 73.6998 87.9599C79.1438 76.9359 87.7888 67.7166 98.5598 61.4485C109.979 55.0513 122.959 51.7875 136.125 52.0032H140.36ZM113.135 120.858C108.77 120.784 104.481 121.98 100.815 124.292C97.2494 126.457 94.4326 129.617 92.7298 133.362V141.68C92.2494 149.218 94.1706 156.716 98.2298 163.147C99.9228 165.459 102.143 167.356 104.715 168.689C107.287 170.021 110.142 170.752 113.053 170.825C115.964 170.898 118.853 170.31 121.492 169.108C124.131 167.906 126.448 166.123 128.26 163.898C132.124 158.705 134.064 152.384 133.76 145.974C134.111 139.507 132.169 133.121 128.26 127.888C126.5 125.62 124.207 123.798 121.575 122.574C118.943 121.351 116.049 120.762 113.135 120.858ZM421.74 370.3V407.33H413.545C378.712 407.974 350.991 418.028 330.385 437.491C309.778 456.954 297.861 484.396 294.635 519.816C313.188 499.064 338.488 488.689 370.535 488.689C384.438 488.189 398.274 490.803 410.983 496.328C423.691 501.854 434.934 510.145 443.85 520.567C462.183 541.604 471.35 568.795 471.35 602.14C471.35 637.524 461.486 665.825 441.76 687.041C422.033 708.257 395.56 718.883 362.34 718.919C346.596 719.286 330.984 716.033 316.767 709.423C302.549 702.813 290.126 693.032 280.5 680.869C259.563 655.646 249.076 623.142 249.04 583.357V566.613C249.04 503.394 262.863 455.094 290.51 421.713C318.156 388.332 359.242 371.195 413.765 370.3H421.74ZM363 525.129C347.963 525.317 333.333 529.918 321.012 538.331C308.692 546.744 299.251 558.581 293.92 572.302V588.402C293.92 616.738 300.446 639.546 313.5 656.827C326.553 674.107 342.815 682.748 362.285 682.748C371.387 683.133 380.451 681.385 388.719 677.65C396.987 673.915 404.217 668.302 409.805 661.281C421.282 646.791 427.038 627.847 427.075 604.448C427.111 581.049 421.263 561.98 409.53 547.239C404.163 540.179 397.133 534.484 389.034 530.636C380.935 526.787 372.005 524.898 363 525.129Z" fill="white"/>
</g>
<defs>
<clipPath id="clip0_11_27">
<rect width="550" height="805" fill="white"/>
</clipPath>
</defs>
</svg>
