<svg width="550" height="805" viewBox="0 0 550 805" fill="none" xmlns="http://www.w3.org/2000/svg">
<g clip-path="url(#clip0_11_14)">
<path d="M530.75 751.333C530.692 760.567 526.907 769.407 520.215 775.937C513.523 782.467 504.464 786.16 495 786.216H55C45.5363 786.16 36.4767 782.467 29.7847 775.937C23.0927 769.407 19.3077 760.567 19.25 751.333V53.6665C19.3077 44.4323 23.0927 35.5922 29.7847 29.0625C36.4767 22.5328 45.5363 18.8395 55 18.7832H495C504.464 18.8395 513.523 22.5328 520.215 29.0625C526.907 35.5922 530.692 44.4323 530.75 53.6665V751.333Z" fill="#1F86BF"/>
<path d="M495 0H55C40.4131 0 26.4236 5.65415 16.1091 15.7186C5.79463 25.7831 0 39.4334 0 53.6667L0 751.333C0 765.567 5.79463 779.217 16.1091 789.281C26.4236 799.346 40.4131 805 55 805H495C509.587 805 523.576 799.346 533.891 789.281C544.205 779.217 550 765.567 550 751.333V53.6667C550 39.4334 544.205 25.7831 533.891 15.7186C523.576 5.65415 509.587 0 495 0ZM530.75 751.333C530.692 760.568 526.907 769.408 520.215 775.937C513.523 782.467 504.464 786.16 495 786.217H55C45.5363 786.16 36.4767 782.467 29.7847 775.937C23.0927 769.408 19.3077 760.568 19.25 751.333V53.6667C19.3077 44.4324 23.0927 35.5924 29.7847 29.0626C36.4767 22.5329 45.5363 18.8396 55 18.7833H495C504.464 18.8396 513.523 22.5329 520.215 29.0626C526.907 35.5924 530.692 44.4324 530.75 53.6667V751.333Z" fill="white"/>
<path d="M69.2451 588.884C68.5942 587.98 68.2449 586.902 68.2449 585.798C68.2449 584.693 68.5942 583.616 69.2451 582.712L392.7 136.527L374 110.982C373.504 110.217 372.818 109.587 372.005 109.151C371.193 108.714 370.28 108.485 369.353 108.485C368.425 108.485 367.512 108.714 366.7 109.151C365.887 109.587 365.201 110.217 364.705 110.982L22.0001 583.571C21.3369 584.48 20.9805 585.568 20.9805 586.683C20.9805 587.799 21.3369 588.887 22.0001 589.796L162.36 786.216H210.045L69.2451 588.884Z" fill="#1B71A1"/>
<path d="M411.895 110.07L392.7 136.528L530.75 326.937V261.195L421.19 110.07C420.694 109.305 420.008 108.675 419.195 108.239C418.383 107.802 417.47 107.573 416.542 107.573C415.615 107.573 414.702 107.802 413.89 108.239C413.077 108.675 412.391 109.305 411.895 110.07Z" fill="#1E7BAF"/>
<path d="M69.245 582.713C68.5941 583.617 68.2449 584.694 68.2449 585.799C68.2449 586.903 68.5941 587.981 69.245 588.885L210.265 786.217H495C504.464 786.161 513.523 782.467 520.215 775.938C526.907 769.408 530.692 760.568 530.75 751.334V326.938L392.7 136.528L69.245 582.713Z" fill="#1E7BAF"/>
<path d="M140.36 52.0032V74.4359H137.5C126.49 74.0759 115.695 77.473 106.975 84.0422C99.2216 90.6832 94.3945 99.9881 93.5 110.017C97.1711 106.343 101.585 103.453 106.461 101.532C111.337 99.6102 116.569 98.6984 121.825 98.8542C127.379 98.6374 132.908 99.6833 137.977 101.909C143.045 104.135 147.514 107.48 151.03 111.681C158.678 121.327 162.576 133.306 162.03 145.491C162.155 153.916 160.113 162.238 156.09 169.694C152.27 176.797 146.425 182.668 139.26 186.599C131.75 190.679 123.269 192.752 114.675 192.61C107.916 192.864 101.183 191.642 94.9698 189.033C88.7563 186.424 83.2182 182.494 78.76 177.53C69.1863 166.262 64.2986 151.897 65.065 137.28V127.459C64.7727 113.818 67.7286 100.297 73.7 87.9599C79.1276 76.9251 87.7766 67.7016 98.56 61.4485C109.979 55.0513 122.959 51.7875 136.125 52.0032H140.36ZM113.135 120.858C108.773 120.804 104.49 121.998 100.815 124.292C97.2518 126.459 94.4357 129.618 92.73 133.362V141.68C92.2496 149.218 94.1708 156.716 98.23 163.147C99.923 165.459 102.143 167.356 104.715 168.689C107.288 170.021 110.142 170.752 113.053 170.825C115.964 170.898 118.853 170.31 121.492 169.108C124.131 167.906 126.448 166.123 128.26 163.898C132.124 158.705 134.064 152.384 133.76 145.974C134.111 139.507 132.169 133.121 128.26 127.888C126.5 125.62 124.208 123.798 121.576 122.574C118.944 121.351 116.049 120.762 113.135 120.858ZM421.74 370.3V407.33H413.545C378.712 407.938 350.992 417.992 330.385 437.491C309.778 456.99 297.862 484.431 294.635 519.816C313.188 499.064 338.488 488.689 370.535 488.689C384.439 488.189 398.275 490.803 410.983 496.328C423.691 501.854 434.934 510.145 443.85 520.567C462.183 541.604 471.35 568.795 471.35 602.14C471.35 637.524 461.487 665.825 441.76 687.041C422.033 708.257 395.56 718.883 362.34 718.919C346.596 719.286 330.984 716.033 316.767 709.423C302.55 702.813 290.126 693.032 280.5 680.869C259.563 655.646 249.077 623.142 249.04 583.357V566.613C249.04 503.394 262.863 455.094 290.51 421.713C318.157 388.332 359.242 371.195 413.765 370.3H421.74ZM363 525.129C347.963 525.317 333.333 529.918 321.012 538.331C308.692 546.744 299.252 558.581 293.92 572.302V588.402C293.92 616.738 300.447 639.546 313.5 656.827C326.553 674.107 342.815 682.748 362.285 682.748C371.387 683.133 380.451 681.385 388.719 677.65C396.987 673.915 404.217 668.302 409.805 661.281C421.282 646.791 427.038 627.847 427.075 604.448C427.112 581.049 421.263 561.98 409.53 547.239C404.163 540.179 397.133 534.484 389.034 530.636C380.935 526.787 372.005 524.898 363 525.129Z" fill="white"/>
<path d="M154 301.178L105.16 233.987C105.083 233.887 104.983 233.806 104.869 233.75C104.754 233.694 104.628 233.665 104.5 233.665C104.372 233.665 104.246 233.694 104.131 233.75C104.016 233.806 103.917 233.887 103.84 233.987L55 301.178C54.8974 301.309 54.8418 301.469 54.8418 301.634C54.8418 301.799 54.8974 301.959 55 302.09L103.84 370.3C103.917 370.4 104.016 370.482 104.131 370.537C104.246 370.593 104.372 370.622 104.5 370.622C104.628 370.622 104.754 370.593 104.869 370.537C104.983 370.482 105.083 370.4 105.16 370.3L154 302.09C154.103 301.959 154.158 301.799 154.158 301.634C154.158 301.469 154.103 301.309 154 301.178Z" fill="white"/>
</g>
<defs>
<clipPath id="clip0_11_14">
<rect width="550" height="805" fill="white"/>
</clipPath>
</defs>
</svg>
