<svg width="550" height="805" viewBox="0 0 550 805" fill="none" xmlns="http://www.w3.org/2000/svg">
<g clip-path="url(#clip0_18_208)">
<path d="M530.75 751.333C530.692 760.567 526.907 769.407 520.215 775.937C513.523 782.467 504.464 786.16 495 786.217H55C45.5363 786.16 36.4767 782.467 29.7847 775.937C23.0927 769.407 19.3077 760.567 19.25 751.333V53.6665C19.3077 44.4323 23.0927 35.5922 29.7847 29.0625C36.4767 22.5328 45.5363 18.8395 55 18.7832H495C504.464 18.8395 513.523 22.5328 520.215 29.0625C526.907 35.5922 530.692 44.4323 530.75 53.6665V751.333Z" fill="#3B3B3B"/>
<path d="M495 0H55C40.4131 0 26.4236 5.65415 16.1091 15.7186C5.79463 25.7831 0 39.4334 0 53.6667L0 751.333C0 765.567 5.79463 779.217 16.1091 789.281C26.4236 799.346 40.4131 805 55 805H495C509.587 805 523.576 799.346 533.891 789.281C544.205 779.217 550 765.567 550 751.333V53.6667C550 39.4334 544.205 25.7831 533.891 15.7186C523.576 5.65415 509.587 0 495 0ZM530.75 751.333C530.692 760.568 526.907 769.408 520.215 775.937C513.523 782.467 504.464 786.16 495 786.217H55C45.5363 786.16 36.4767 782.467 29.7847 775.937C23.0927 769.408 19.3077 760.568 19.25 751.333V53.6667C19.3077 44.4324 23.0927 35.5924 29.7847 29.0626C36.4767 22.5329 45.5363 18.8396 55 18.7833H495C504.464 18.8396 513.523 22.5329 520.215 29.0626C526.907 35.5924 530.692 44.4324 530.75 53.6667V751.333Z" fill="white"/>
<path d="M489.885 759.222C500.206 764.939 510.963 769.873 522.06 773.98C522.665 773.283 523.215 772.531 523.765 771.834C511.74 764.85 500.399 756.801 489.885 747.791V759.222ZM401.5 773.98V786.216H439.45V747.791C427.758 757.773 415.041 766.549 401.5 773.98ZM135.245 441.408L453.365 133.63L433.565 114.417C431.782 112.687 429.37 111.715 426.855 111.715C424.34 111.715 421.928 112.687 420.145 114.417L97.46 426.65C76.6158 446.765 60.1735 470.799 49.1293 497.297C38.0852 523.796 32.669 552.206 33.2089 580.806C33.7489 609.407 40.2337 637.603 52.2705 663.687C64.3074 689.77 81.6457 713.197 103.235 732.55C127.396 754.377 156.432 770.418 188.045 779.401C170.952 770.788 155.133 759.956 141.02 747.201C119.469 727.837 102.164 704.412 90.1504 678.34C78.1372 652.268 71.6653 624.09 71.1255 595.509C70.5858 566.928 75.9894 538.537 87.01 512.051C98.0305 485.564 114.439 461.533 135.245 441.408Z" fill="#252525"/>
<path d="M401.5 733.033C367.941 761.696 326.538 780.179 282.37 786.216H375.87C384.669 782.668 393.229 778.581 401.5 773.98V733.033ZM452.045 733.033V786.216H489.72V759.383C476.291 751.85 463.67 743.022 452.045 733.033ZM457.93 129.175L453.365 133.63L530.75 208.763V186.652L471.35 129.175C469.567 127.445 467.155 126.474 464.64 126.474C462.125 126.474 459.713 127.445 457.93 129.175ZM202.4 786.216H219.45C208.829 784.752 198.332 782.528 188.045 779.562C192.775 781.977 197.56 784.177 202.4 786.216Z" fill="#2E2F2F"/>
<path d="M135.245 441.408C114.422 461.535 97.9987 485.573 86.9679 512.069C75.9371 538.565 70.5281 566.969 71.068 595.563C71.6078 624.158 78.0852 652.348 90.1086 678.43C102.132 704.512 119.452 727.943 141.02 747.308C155.133 760.064 170.952 770.895 188.045 779.508C198.332 782.474 208.829 784.698 219.45 786.163H282.48C326.604 780.121 367.965 761.658 401.5 733.033V773.98C415.003 766.543 427.683 757.767 439.34 747.791V786.216H452.1V733.033C463.784 742.975 476.461 751.749 489.94 759.222V747.791C500.454 756.801 511.795 764.85 523.82 771.834C528.304 765.892 530.731 758.711 530.75 751.333V208.495L453.365 133.361L135.245 441.408Z" fill="#2E2F2F"/>
<path d="M489.885 759.223C500.206 764.94 510.963 769.874 522.06 773.981C522.665 773.283 523.215 772.532 523.765 771.834C511.74 764.85 500.399 756.802 489.885 747.791V759.223ZM401.5 773.981V786.217H439.45V747.791C427.758 757.774 415.041 766.55 401.5 773.981ZM135.245 441.409L453.365 133.63L433.565 114.418C431.782 112.687 429.37 111.716 426.855 111.716C424.34 111.716 421.928 112.687 420.145 114.418L97.4599 426.65C76.6156 446.765 60.1734 470.8 49.1292 497.298C38.085 523.796 32.6689 552.206 33.2088 580.807C33.7487 609.408 40.2336 637.604 52.2704 663.687C64.3073 689.77 81.6456 713.198 103.235 732.55C127.395 754.378 156.432 770.418 188.045 779.401C170.952 770.788 155.133 759.957 141.02 747.201C119.468 727.838 102.163 704.413 90.1503 678.341C78.1371 652.268 71.6652 624.091 71.1254 595.51C70.5856 566.929 75.9893 538.537 87.0098 512.051C98.0304 485.565 114.439 461.533 135.245 441.409Z" fill="#252525"/>
<path d="M401.5 733.033C367.941 761.696 326.538 780.18 282.37 786.217H375.87C384.669 782.669 393.229 778.582 401.5 773.981V733.033ZM452.045 733.033V786.217H489.72V759.383C476.291 751.85 463.669 743.023 452.045 733.033ZM457.93 129.176L453.365 133.63L530.75 208.763V186.653L471.35 129.176C469.567 127.445 467.155 126.474 464.64 126.474C462.125 126.474 459.713 127.445 457.93 129.176ZM202.4 786.217H219.45C208.829 784.752 198.332 782.528 188.045 779.562C192.775 781.977 197.56 784.177 202.4 786.217Z" fill="#2E2F2F"/>
<path d="M135.245 441.408C114.422 461.535 97.9986 485.573 86.9678 512.07C75.937 538.566 70.528 566.97 71.0678 595.564C71.6077 624.158 78.0851 652.348 90.1085 678.43C102.132 704.512 119.451 727.944 141.02 747.309C155.133 760.064 170.952 770.896 188.045 779.509C198.332 782.475 208.829 784.699 219.45 786.163H282.48C326.603 780.121 367.964 761.658 401.5 733.033V773.981C415.002 766.544 427.683 757.767 439.34 747.791V786.217H452.1V733.033C463.784 742.976 476.461 751.749 489.94 759.223V747.791C500.454 756.802 511.795 764.85 523.82 771.834C528.303 765.893 530.731 758.712 530.75 751.334V208.495L453.365 133.362L135.245 441.408Z" fill="#2E2F2F"/>
<path d="M489.885 759.223C500.206 764.94 510.963 769.874 522.06 773.981C522.665 773.283 523.215 772.532 523.765 771.834C511.74 764.85 500.399 756.802 489.885 747.791V759.223ZM401.5 773.981V786.217H439.45V747.791C427.758 757.774 415.041 766.55 401.5 773.981ZM135.245 441.409L453.365 133.63L433.565 114.418C431.782 112.687 429.37 111.716 426.855 111.716C424.34 111.716 421.928 112.687 420.145 114.418L97.4599 426.65C76.6156 446.765 60.1734 470.8 49.1292 497.298C38.085 523.796 32.6689 552.206 33.2088 580.807C33.7487 609.408 40.2336 637.604 52.2704 663.687C64.3073 689.77 81.6456 713.198 103.235 732.55C127.395 754.378 156.432 770.418 188.045 779.401C170.952 770.788 155.133 759.957 141.02 747.201C119.468 727.838 102.163 704.413 90.1503 678.341C78.1371 652.268 71.6652 624.091 71.1254 595.51C70.5856 566.929 75.9893 538.537 87.0098 512.051C98.0304 485.565 114.439 461.533 135.245 441.409Z" fill="#252525"/>
<path d="M401.5 733.033C367.941 761.696 326.538 780.18 282.37 786.217H375.87C384.669 782.669 393.229 778.582 401.5 773.981V733.033ZM452.045 733.033V786.217H489.72V759.383C476.291 751.85 463.669 743.023 452.045 733.033ZM457.93 129.176L453.365 133.63L530.75 208.763V186.653L471.35 129.176C469.567 127.445 467.155 126.474 464.64 126.474C462.125 126.474 459.713 127.445 457.93 129.176ZM202.4 786.217H219.45C208.829 784.752 198.332 782.528 188.045 779.562C192.775 781.977 197.56 784.177 202.4 786.217Z" fill="#2E2F2F"/>
<path d="M135.245 441.408C114.422 461.535 97.9986 485.573 86.9678 512.07C75.937 538.566 70.528 566.97 71.0678 595.564C71.6077 624.158 78.0851 652.348 90.1085 678.43C102.132 704.512 119.451 727.944 141.02 747.309C155.133 760.064 170.952 770.896 188.045 779.509C198.332 782.475 208.829 784.699 219.45 786.163H282.48C326.603 780.121 367.964 761.658 401.5 733.033V773.981C415.002 766.544 427.683 757.767 439.34 747.791V786.217H452.1V733.033C463.784 742.976 476.461 751.749 489.94 759.223V747.791C500.454 756.802 511.795 764.85 523.82 771.834C528.303 765.893 530.731 758.712 530.75 751.334V208.495L453.365 133.362L135.245 441.408Z" fill="#2E2F2F"/>
<path d="M164.522 295.976L123.056 252.777C122.822 252.549 122.515 252.422 122.197 252.422C121.878 252.422 121.571 252.549 121.337 252.777L79.8714 295.976C77.1647 298.761 75.0282 302.099 73.5929 305.783C72.1577 309.468 71.454 313.421 71.525 317.402C71.5961 321.382 72.4403 325.305 74.006 328.931C75.5716 332.556 77.8257 335.807 80.6299 338.484C85.903 343.432 92.7253 346.167 99.7951 346.167C106.865 346.167 113.687 343.432 118.96 338.484V344.488C119.155 352.208 116.716 359.747 112.083 365.742H132.31C127.678 359.747 125.238 352.208 125.433 344.488V338.325C130.706 343.273 137.528 346.008 144.598 346.008C151.668 346.008 158.49 343.273 163.763 338.325C166.544 335.649 168.778 332.408 170.329 328.797C171.881 325.186 172.717 321.282 172.788 317.321C172.859 313.36 172.163 309.425 170.742 305.756C169.321 302.087 167.205 298.759 164.522 295.976ZM164.775 109.79C164.873 116.009 163.239 122.122 160.072 127.377C156.854 132.576 152.389 136.791 147.126 139.598C153.106 142.527 158.249 147.053 162.044 152.723C165.843 158.492 167.824 165.368 167.708 172.383C167.944 177.779 167.011 183.161 164.979 188.122C162.947 193.083 159.868 197.495 155.976 201.023C146.916 208.509 135.578 212.285 124.068 211.65C112.528 212.277 101.16 208.503 92.0582 201.023C88.1514 197.513 85.0558 193.116 83.0057 188.163C80.9556 183.21 80.0048 177.832 80.2253 172.436C80.071 165.423 81.9973 158.534 85.7372 152.723C89.5142 147.069 94.6419 142.561 100.604 139.652C95.3323 136.859 90.8639 132.64 87.6588 127.43C84.5098 122.17 82.8927 116.056 83.0066 109.843C82.7839 104.659 83.6569 99.4882 85.563 94.7015C87.4691 89.9149 90.3609 85.6314 94.0303 82.1592C102.381 74.9224 113.004 71.2267 123.815 71.7978C134.651 71.1933 145.315 74.8278 153.751 81.9998C157.423 85.4929 160.315 89.7953 162.22 94.5992C164.126 99.4032 164.998 104.59 164.775 109.79ZM141.766 170.417C141.867 167.817 141.471 165.223 140.603 162.786C139.734 160.35 138.41 158.121 136.71 156.23C134.994 154.427 132.937 153.023 130.672 152.107C128.407 151.192 125.985 150.786 123.562 150.916C121.155 150.801 118.752 151.215 116.506 152.129C114.26 153.044 112.22 154.441 110.515 156.23C108.806 158.125 107.477 160.363 106.608 162.809C105.739 165.256 105.348 167.861 105.459 170.47C105.245 175.627 106.971 180.666 110.263 184.498C112.004 186.325 114.094 187.744 116.395 188.66C118.696 189.576 121.156 189.968 123.612 189.811C126.027 189.934 128.44 189.524 130.696 188.609C132.951 187.694 134.999 186.294 136.71 184.498C138.405 182.625 139.726 180.414 140.595 177.995C141.463 175.577 141.862 173 141.766 170.417ZM139.086 111.118C139.317 106.492 137.892 101.943 135.091 98.3655C133.67 96.7316 131.921 95.4502 129.971 94.6139C128.021 93.7777 125.918 93.4075 123.815 93.5302C121.741 93.4106 119.667 93.7669 117.737 94.5744C115.807 95.3819 114.067 96.6211 112.639 98.2061C109.793 101.822 108.348 106.432 108.594 111.118C108.383 115.847 109.822 120.495 112.639 124.189C114.039 125.858 115.782 127.169 117.736 128.026C119.689 128.882 121.803 129.26 123.916 129.131C126.022 129.259 128.127 128.881 130.073 128.025C132.018 127.168 133.752 125.856 135.142 124.189C137.907 120.471 139.307 115.831 139.086 111.118ZM443.706 476.742C443.945 492.844 439.5 508.639 430.963 522.013C422.246 535.4 410.313 546.124 396.375 553.097C412.472 560.044 426.385 571.608 436.526 586.466C446.314 600.995 451.482 618.402 451.292 636.201C451.292 665.638 441.835 689.071 422.923 706.499C404.011 723.927 379.165 732.695 348.386 732.801C317.27 732.801 292.34 724.051 273.596 706.552C254.853 689.053 245.481 665.656 245.481 636.36C245.316 618.629 250.328 601.271 259.842 586.626C269.672 571.611 283.447 559.925 299.487 552.991C285.698 546.067 273.954 535.343 265.506 521.96C257.174 508.581 252.841 492.889 253.066 476.901C253.066 448.244 261.797 425.52 279.26 408.729C296.723 391.938 319.765 383.525 348.386 383.49C376.839 383.49 399.847 391.903 417.411 408.729C434.975 425.555 443.74 448.226 443.706 476.742ZM410.433 635.298C410.737 626.721 409.364 618.17 406.398 610.173C403.432 602.176 398.937 594.903 393.189 588.804C387.233 582.769 380.174 578.065 372.438 574.978C364.703 571.891 356.452 570.485 348.184 570.845C339.996 570.308 331.793 571.607 324.12 574.657C316.446 577.706 309.478 582.435 303.677 588.531C297.876 594.626 293.375 601.949 290.473 610.012C287.571 618.075 286.335 626.694 286.845 635.298C286.417 643.663 287.648 652.03 290.46 659.869C293.272 667.708 297.603 674.847 303.179 680.835C314.101 691.887 329.272 697.413 348.69 697.413C368.108 697.413 383.278 691.834 394.201 680.675C399.749 674.705 404.057 667.589 406.851 659.778C409.645 651.966 410.865 643.63 410.433 635.298ZM348.386 418.825C341.157 418.532 333.947 419.796 327.199 422.537C320.451 425.278 314.308 429.439 309.146 434.765C303.985 440.449 299.979 447.177 297.371 454.54C294.763 461.903 293.608 469.746 293.975 477.592C293.656 485.261 294.798 492.92 297.334 500.119C299.869 507.318 303.748 513.913 308.741 519.516C313.904 524.903 320.076 529.102 326.867 531.846C333.657 534.59 340.917 535.82 348.184 535.457C355.451 535.82 362.711 534.59 369.501 531.846C376.292 529.102 382.464 524.903 387.627 519.516C392.62 513.913 396.499 507.318 399.034 500.119C401.57 492.92 402.712 485.261 402.393 477.592C402.736 469.796 401.569 462.009 398.961 454.701C396.353 447.394 392.36 440.72 387.222 435.084C382.161 429.712 376.1 425.496 369.418 422.698C362.736 419.901 355.576 418.582 348.386 418.825Z" fill="white"/>
</g>
<defs>
<clipPath id="clip0_18_208">
<rect width="550" height="805" fill="white"/>
</clipPath>
</defs>
</svg>
