<svg width="550" height="805" viewBox="0 0 550 805" fill="none" xmlns="http://www.w3.org/2000/svg">
<g clip-path="url(#clip0_18_341)">
<path d="M530.75 751.333C530.692 760.567 526.907 769.407 520.215 775.937C513.523 782.467 504.464 786.16 495 786.217H55C45.5363 786.16 36.4767 782.467 29.7847 775.937C23.0927 769.407 19.3077 760.567 19.25 751.333V53.6665C19.3077 44.4323 23.0927 35.5922 29.7847 29.0625C36.4767 22.5328 45.5363 18.8395 55 18.7832H495C504.464 18.8395 513.523 22.5328 520.215 29.0625C526.907 35.5922 530.692 44.4323 530.75 53.6665V751.333Z" fill="#E22521"/>
<path d="M483.45 268.333L470.47 281.75C470.047 282.209 469.53 282.577 468.952 282.828C468.374 283.08 467.748 283.21 467.115 283.21C466.482 283.21 465.856 283.08 465.278 282.828C464.7 282.577 464.183 282.209 463.76 281.75L451 268.333C357.17 171.733 201.41 169.587 109.45 267.797C20.35 363.001 21.45 514.663 112.64 608.419L285.34 786.056H286.88L142.175 637.56C50.875 543.643 49.775 392.196 138.985 296.938C231 198.567 386.76 201.089 480.535 297.528L493.46 310.837C493.897 311.284 494.421 311.639 495.003 311.882C495.584 312.125 496.21 312.25 496.843 312.25C497.475 312.25 498.101 312.125 498.682 311.882C499.264 311.639 499.788 311.284 500.225 310.837L513.15 297.528C518.65 291.625 524.7 286.258 530.75 281.106V230.767C513.414 241.304 497.505 253.925 483.395 268.333H483.45Z" fill="#B31F23"/>
<path d="M513.15 297.528L500.5 310.837C500.063 311.284 499.539 311.639 498.957 311.882C498.376 312.125 497.75 312.25 497.118 312.25C496.485 312.25 495.859 312.125 495.278 311.882C494.696 311.639 494.172 311.284 493.735 310.837L480.81 297.528C387.035 200.928 231.275 198.781 139.26 296.991C50.16 392.249 51.26 543.858 142.45 637.613L286.715 786.27H495C504.464 786.214 513.523 782.52 520.215 775.991C526.907 769.461 530.692 760.621 530.75 751.387V281.106C524.7 286.258 518.815 291.678 513.15 297.528Z" fill="#C72325"/>
<path d="M156.42 243.11C153.593 240.128 150.165 237.749 146.35 236.122C142.536 234.495 138.418 233.655 134.255 233.655C130.092 233.655 125.974 234.495 122.16 236.122C118.345 237.749 114.917 240.128 112.09 243.11L110.44 244.881C110.319 244.987 110.162 245.045 110 245.045C109.838 245.045 109.681 244.987 109.56 244.881L107.91 243.11C105.083 240.128 101.655 237.749 97.8403 236.122C94.0259 234.495 89.908 233.655 85.745 233.655C81.582 233.655 77.4641 234.495 73.6497 236.122C69.8353 237.749 66.407 240.128 63.58 243.11C57.9898 249.204 54.931 257.115 55.0022 265.293C55.0734 273.472 58.2695 281.331 63.965 287.331L109.065 333.699C109.173 333.824 109.308 333.924 109.46 333.992C109.612 334.061 109.778 334.096 109.945 334.096C110.112 334.096 110.278 334.061 110.43 333.992C110.582 333.924 110.717 333.824 110.825 333.699L155.925 287.331C161.621 281.331 164.817 273.472 164.888 265.293C164.959 257.115 161.9 249.204 156.31 243.11H156.42ZM156.31 89.8917C156.417 96.173 154.639 102.348 151.195 107.655C147.674 112.908 142.799 117.165 137.06 119.999C143.669 122.909 149.365 127.484 153.56 133.254C157.591 139.117 159.665 146.053 159.5 153.111C159.745 158.559 158.725 163.991 156.516 169C154.306 174.009 150.964 178.466 146.74 182.037C136.886 189.598 124.554 193.412 112.035 192.771C99.4835 193.404 87.1199 189.592 77.22 182.037C72.9708 178.493 69.6038 174.051 67.374 169.049C65.1443 164.046 64.1102 158.615 64.35 153.165C64.1748 146.081 66.2706 139.12 70.345 133.254C74.453 127.544 80.0301 122.991 86.515 120.052C80.781 117.232 75.921 112.971 72.435 107.709C69.0099 102.396 67.2512 96.2212 67.375 89.9453C67.1336 84.7151 68.0781 79.4972 70.1412 74.6641C72.2042 69.831 75.3349 65.5017 79.31 61.985C88.4197 54.6861 99.9869 50.9557 111.76 51.52C123.529 50.9075 135.112 54.5793 144.265 61.824C148.278 65.34 151.44 69.6818 153.523 74.5359C155.606 79.3899 156.558 84.6348 156.31 89.8917ZM131.285 151.072C131.394 148.446 130.964 145.826 130.019 143.365C129.075 140.904 127.635 138.652 125.785 136.743C123.919 134.922 121.682 133.503 119.218 132.579C116.755 131.655 114.121 131.245 111.485 131.376C108.867 131.26 106.254 131.677 103.811 132.601C101.368 133.525 99.1486 134.936 97.295 136.743C95.4303 138.653 93.9817 140.913 93.0364 143.385C92.0911 145.857 91.6688 148.49 91.795 151.125C91.5629 156.334 93.4396 161.423 97.02 165.293C98.9217 167.128 101.196 168.554 103.697 169.478C106.198 170.402 108.87 170.805 111.54 170.66C114.167 170.784 116.791 170.37 119.244 169.446C121.697 168.522 123.925 167.107 125.785 165.293C127.629 163.402 129.066 161.169 130.011 158.726C130.955 156.283 131.389 153.681 131.285 151.072ZM128.37 91.2333C128.621 86.5612 127.071 81.9665 124.025 78.3533C122.477 76.7062 120.574 75.414 118.454 74.5696C116.333 73.7252 114.047 73.3495 111.76 73.4697C109.496 73.3518 107.233 73.7129 105.126 74.528C103.018 75.3431 101.116 76.5931 99.55 78.1923C96.493 81.8624 94.9443 86.5108 95.205 91.2333C94.9854 95.9998 96.5273 100.685 99.55 104.435C101.086 106.118 102.992 107.441 105.125 108.305C107.258 109.17 109.564 109.553 111.87 109.426C114.16 109.556 116.451 109.174 118.567 108.309C120.683 107.444 122.568 106.119 124.08 104.435C127.087 100.68 128.61 95.9938 128.37 91.2333ZM495 0H55C40.4131 0 26.4236 5.65415 16.1091 15.7186C5.79463 25.7831 0 39.4334 0 53.6667L0 751.333C0 765.567 5.79463 779.217 16.1091 789.281C26.4236 799.346 40.4131 805 55 805H495C509.587 805 523.576 799.346 533.891 789.281C544.205 779.217 550 765.567 550 751.333V53.6667C550 39.4334 544.205 25.7831 533.891 15.7186C523.576 5.65415 509.587 0 495 0ZM530.75 751.333C530.692 760.568 526.907 769.408 520.215 775.937C513.523 782.467 504.464 786.16 495 786.217H55C45.5363 786.16 36.4767 782.467 29.7847 775.937C23.0927 769.408 19.3077 760.568 19.25 751.333V53.6667C19.3077 44.4324 23.0927 35.5924 29.7847 29.0626C36.4767 22.5329 45.5363 18.8396 55 18.7833H495C504.464 18.8396 513.523 22.5329 520.215 29.0626C526.907 35.5924 530.692 44.4324 530.75 53.6667V751.333ZM459.69 454.557C459.958 470.837 455.122 486.809 445.83 500.334C436.361 513.852 423.377 524.669 408.21 531.676C425.711 538.729 440.838 550.423 451.88 565.432C462.54 580.099 468.162 597.685 467.94 615.664C467.94 645.36 457.673 669.027 437.14 686.665C416.607 704.268 389.583 713.069 356.07 713.069C322.227 713.069 295.093 704.232 274.67 686.558C254.283 668.883 244.09 645.27 244.09 615.718C243.893 597.807 249.346 580.27 259.71 565.486C270.37 550.241 285.355 538.361 302.83 531.3C287.844 524.289 275.075 513.461 265.87 499.959C256.8 486.429 252.088 470.561 252.34 454.396C252.34 425.487 261.837 402.536 280.83 385.541C299.823 368.547 324.885 360.068 356.015 360.103C386.962 360.103 411.987 368.583 431.09 385.541C450.157 402.5 459.69 425.523 459.69 454.61V454.557ZM423.5 614.752C423.833 606.097 422.341 597.468 419.114 589.399C415.888 581.33 410.997 573.995 404.745 567.847C398.279 561.731 390.604 556.964 382.188 553.836C373.773 550.708 364.793 549.285 355.795 549.654C346.889 549.112 337.968 550.424 329.622 553.504C321.275 556.584 313.696 561.361 307.387 567.517C301.077 573.673 296.182 581.069 293.026 589.213C289.87 597.356 288.525 606.062 289.08 614.752C289.08 634.286 295.02 649.635 306.845 660.744C318.67 671.853 335.17 677.488 356.345 677.488C377.52 677.488 393.745 672.121 405.845 660.637C411.884 654.599 416.572 647.402 419.611 639.503C422.65 631.605 423.974 623.176 423.5 614.752ZM356.015 396.167C348.153 395.882 340.314 397.162 332.976 399.93C325.638 402.698 318.955 406.896 313.335 412.267C307.726 418.022 303.371 424.827 300.535 432.271C297.699 439.716 296.44 447.644 296.835 455.576C296.483 463.314 297.723 471.043 300.481 478.306C303.239 485.569 307.46 492.22 312.895 497.866C318.51 503.306 325.224 507.547 332.609 510.319C339.995 513.091 347.891 514.333 355.795 513.966C363.699 514.333 371.595 513.091 378.981 510.319C386.366 507.547 393.08 503.306 398.695 497.866C404.13 492.22 408.351 485.569 411.109 478.306C413.867 471.043 415.107 463.314 414.755 455.576C415.126 447.703 413.855 439.838 411.018 432.458C408.182 425.078 403.84 418.337 398.255 412.643C392.757 407.206 386.167 402.935 378.899 400.1C371.63 397.265 363.839 395.926 356.015 396.167Z" fill="white"/>
</g>
<defs>
<clipPath id="clip0_18_341">
<rect width="550" height="805" fill="white"/>
</clipPath>
</defs>
</svg>
