<svg width="550" height="805" viewBox="0 0 550 805" fill="none" xmlns="http://www.w3.org/2000/svg">
<g clip-path="url(#clip0_18_469)">
<path d="M530.75 751.333C530.692 760.567 526.907 769.407 520.215 775.937C513.523 782.467 504.464 786.16 495 786.217H55C45.5363 786.16 36.4767 782.467 29.7847 775.937C23.0927 769.407 19.3077 760.567 19.25 751.333V53.6665C19.3077 44.4323 23.0927 35.5922 29.7847 29.0625C36.4767 22.5328 45.5363 18.8395 55 18.7832H495C504.464 18.8395 513.523 22.5328 520.215 29.0625C526.907 35.5922 530.692 44.4323 530.75 53.6665V751.333Z" fill="#3A992C"/>
<path d="M495 0H55C40.4131 0 26.4236 5.65415 16.1091 15.7186C5.79463 25.7831 0 39.4334 0 53.6667L0 751.333C0 765.567 5.79463 779.217 16.1091 789.281C26.4236 799.346 40.4131 805 55 805H495C509.587 805 523.576 799.346 533.891 789.281C544.205 779.217 550 765.567 550 751.333V53.6667C550 39.4334 544.205 25.7831 533.891 15.7186C523.576 5.65415 509.587 0 495 0ZM530.75 751.333C530.692 760.568 526.907 769.408 520.215 775.937C513.523 782.467 504.464 786.16 495 786.217H55C45.5363 786.16 36.4767 782.467 29.7847 775.937C23.0927 769.408 19.3077 760.568 19.25 751.333V53.6667C19.3077 44.4324 23.0927 35.5924 29.7847 29.0626C36.4767 22.5329 45.5363 18.8396 55 18.7833H495C504.464 18.8396 513.523 22.5329 520.215 29.0626C526.907 35.5924 530.692 44.4324 530.75 53.6667V751.333Z" fill="white"/>
<path d="M198.88 254.004C198.88 311.427 224.895 377.062 263.23 426.435C235.182 415.681 205.364 409.989 175.23 409.637C145.332 409.591 115.803 416.079 88.8117 428.626C61.8201 441.172 38.0511 459.458 19.25 482.141V554.967C34.6374 519.147 60.5047 488.547 93.6179 466.994C126.731 445.441 165.621 433.891 205.425 433.787C235.557 434.161 265.37 439.851 293.425 450.585C254.925 401.212 228.855 335.524 229.075 278.154C229.625 167.064 320.925 78.2456 431.805 78.7286C466.6 78.854 500.746 87.9241 530.805 105.025V101.966C494.89 71.6042 449.02 54.7938 401.5 54.5786C290.62 54.0419 199.43 142.914 198.88 254.004ZM370.48 775.536C369.678 779.128 368.816 782.706 367.895 786.27H403.425C406.154 771.552 407.845 756.67 408.485 741.727C396.936 754.139 384.211 765.459 370.48 775.536ZM456.17 741.888C456.642 743.476 456.9 745.118 456.94 746.771C461.89 750.742 467.17 754.553 472.505 758.31C466.785 752.943 461.285 747.576 456.17 741.888ZM63.47 777.468C44.6547 759.218 29.6384 737.586 19.25 713.766V738.346C31.9599 753.437 46.8783 766.619 63.525 777.468H63.47Z" fill="#297A38"/>
<path d="M73.15 786.217H78.21L63.58 777.469L73.15 786.217ZM378.29 717.523C350.865 746.721 317.579 770.103 280.5 786.217H355.19C360.69 782.836 365.475 779.24 370.48 775.483C374.765 756.398 377.359 736.989 378.235 717.47L378.29 717.523ZM426.03 717.738C428.346 740.789 432.13 763.678 437.36 786.27H462L456.5 746.825C445.528 737.959 435.319 728.231 425.975 717.738H426.03ZM506 784.607C508.284 783.857 510.494 782.905 512.6 781.762C498.729 774.944 485.4 767.122 472.725 758.364C483.148 767.889 494.269 776.66 506 784.607Z" fill="#328840"/>
<path d="M229.075 278.154C229.075 335.578 255.09 401.266 293.425 450.585C265.37 439.852 235.557 434.161 205.425 433.788C165.621 433.891 126.731 445.442 93.6179 466.995C60.5047 488.548 34.6374 519.147 19.25 554.967V713.767C29.6424 737.629 44.6782 759.299 63.525 777.576C68.255 780.689 73.15 783.641 78.155 786.324H280.5C317.662 770.22 351.026 746.818 378.51 717.577C377.637 737.114 375.043 756.541 370.755 775.644C384.488 765.55 397.213 754.212 408.76 741.781C408.12 756.724 406.429 771.607 403.7 786.324H437.58C432.35 763.731 428.566 740.843 426.25 717.792C435.734 728.302 446.091 738.03 457.215 746.879C457.175 745.225 456.917 743.584 456.445 741.995C461.56 747.684 467.06 753.104 472.945 758.417C485.62 767.176 498.949 774.997 512.82 781.816C518.287 778.717 522.822 774.269 525.97 768.918C529.117 763.567 530.766 757.503 530.75 751.333V105.026C500.691 87.9245 466.545 78.8544 431.75 78.729C320.87 78.1923 229.625 167.064 229.075 278.154Z" fill="#328840"/>
<path d="M119.955 337.778H100.265C106.7 331.392 106.975 318.458 106.975 318.458C103.636 322.039 99.6034 324.94 95.1103 326.994C90.6172 329.048 85.7521 330.214 80.7951 330.426C73.8371 330.426 67.1641 327.729 62.2441 322.928C57.3241 318.127 54.5601 311.616 54.5601 304.827C54.5601 298.038 57.3241 291.526 62.2441 286.726C67.1641 281.925 73.8371 279.228 80.7951 279.228C84.5595 279.288 88.2834 279.996 91.7951 281.321C86.7284 275.015 83.8058 267.322 83.4351 259.317C83.2739 255.911 83.8224 252.508 85.0474 249.314C86.2724 246.12 88.1484 243.201 90.5621 240.735C92.9759 238.268 95.8771 236.305 99.0904 234.964C102.304 233.623 105.763 232.931 109.258 232.931C112.753 232.931 116.211 233.623 119.425 234.964C122.638 236.305 125.539 238.268 127.953 240.735C130.367 243.201 132.243 246.12 133.468 249.314C134.693 252.508 135.241 255.911 135.08 259.317C134.78 267.471 131.769 275.308 126.5 281.643C130.521 279.98 134.838 279.105 139.205 279.067C146.163 279.067 152.836 281.764 157.756 286.565C162.676 291.365 165.44 297.877 165.44 304.666C165.44 311.455 162.676 317.966 157.756 322.767C152.836 327.568 146.163 330.265 139.205 330.265C134.255 330.073 129.393 328.926 124.899 326.89C120.406 324.854 116.37 321.97 113.025 318.404C113.3 318.565 113.52 331.284 119.955 337.778ZM156.31 89.8918C156.417 96.1731 154.639 102.348 151.195 107.655C147.674 112.908 142.799 117.165 137.06 119.999C143.669 122.909 149.365 127.484 153.56 133.254C157.591 139.118 159.665 146.053 159.5 153.111C159.746 158.559 158.725 163.991 156.516 169C154.306 174.01 150.964 178.466 146.74 182.037C136.886 189.598 124.554 193.412 112.035 192.771C99.4836 193.404 87.12 189.593 77.2201 182.037C72.9708 178.493 69.6039 174.051 67.3741 169.049C65.1443 164.046 64.1102 158.615 64.3501 153.165C64.1822 146.082 66.2774 139.123 70.3451 133.254C74.4531 127.544 80.0302 122.991 86.5151 120.052C80.7811 117.232 75.921 112.971 72.4351 107.709C69.01 102.396 67.2512 96.2214 67.3751 89.9455C67.1328 84.7101 68.0824 79.4874 70.1556 74.6529C72.2287 69.8184 75.3739 65.4921 79.3651 61.9852C88.4475 54.676 100.002 50.9434 111.76 51.5202C123.53 50.8973 135.117 54.5703 144.265 61.8242C148.278 65.3401 151.44 69.682 153.523 74.536C155.606 79.39 156.558 84.635 156.31 89.8918ZM131.285 151.125C131.394 148.5 130.964 145.879 130.019 143.419C129.075 140.958 127.635 138.706 125.785 136.796C123.919 134.976 121.682 133.557 119.219 132.633C116.755 131.708 114.121 131.299 111.485 131.43C108.868 131.314 106.254 131.731 103.811 132.655C101.368 133.579 99.1487 134.989 97.2951 136.796C95.4356 138.711 93.9904 140.971 93.0454 143.442C92.1005 145.913 91.6752 148.544 91.7951 151.179C91.5629 156.388 93.4397 161.477 97.0201 165.347C98.9136 167.193 101.187 168.626 103.69 169.551C106.193 170.476 108.868 170.872 111.54 170.714C114.167 170.837 116.791 170.424 119.244 169.5C121.697 168.575 123.925 167.161 125.785 165.347C127.629 163.456 129.066 161.222 130.011 158.78C130.956 156.337 131.389 153.734 131.285 151.125ZM128.37 91.2335C128.621 86.5613 127.071 81.9666 124.025 78.3535C122.477 76.7063 120.574 75.4141 118.454 74.5697C116.333 73.7253 114.047 73.3497 111.76 73.4698C109.496 73.352 107.233 73.713 105.126 74.5282C103.018 75.3433 101.116 76.5933 99.5501 78.1925C96.4931 81.8626 94.9443 86.5109 95.2051 91.2335C94.9854 96 96.5273 100.685 99.5501 104.435C101.086 106.118 102.992 107.441 105.125 108.306C107.258 109.17 109.564 109.553 111.87 109.426C114.16 109.556 116.451 109.174 118.567 108.309C120.683 107.444 122.568 106.119 124.08 104.435C127.088 100.68 128.61 95.9939 128.37 91.2335ZM459.69 460.246C459.951 476.525 455.116 492.495 445.83 506.023C436.361 519.541 423.377 530.358 408.21 537.364C425.721 544.401 440.853 556.098 451.88 571.121C462.54 585.788 468.162 603.373 467.94 621.353C467.94 651.048 457.655 674.698 437.085 692.3C416.515 709.903 389.492 718.722 356.015 718.758C322.172 718.758 295.057 709.813 274.67 691.924C254.283 674.036 244.09 650.422 244.09 621.085C243.893 603.174 249.346 585.637 259.71 570.853C270.371 555.66 285.363 543.849 302.83 536.882C287.84 529.851 275.072 519.005 265.87 505.487C256.798 491.978 252.086 476.126 252.34 459.977C252.34 431.069 261.837 408.117 280.83 391.123C299.823 374.128 324.885 365.631 356.015 365.631C386.962 365.631 411.987 374.128 431.09 391.123C450.193 408.117 459.727 431.158 459.69 460.246ZM423.5 620.387C423.833 611.732 422.341 603.103 419.114 595.034C415.888 586.966 410.997 579.63 404.745 573.482C398.279 567.366 390.604 562.599 382.189 559.471C373.773 556.343 364.793 554.92 355.795 555.289C346.867 554.707 337.915 555.99 329.536 559.052C321.156 562.114 313.542 566.885 307.202 573.046C300.862 579.206 295.942 586.616 292.769 594.78C289.597 602.943 288.245 611.673 288.805 620.387C288.34 628.836 289.678 637.287 292.737 645.204C295.795 653.121 300.505 660.332 306.57 666.379C318.45 677.542 334.95 683.123 356.07 683.123C377.19 683.123 393.69 677.506 405.57 666.272C411.65 660.251 416.383 653.064 419.47 645.165C422.556 637.267 423.928 628.829 423.5 620.387ZM356.015 401.749C348.152 401.454 340.31 402.73 332.971 405.498C325.632 408.267 318.95 412.47 313.335 417.849C307.73 423.595 303.378 430.392 300.542 437.826C297.706 445.261 296.445 453.18 296.835 461.104C296.479 468.851 297.716 476.589 300.475 483.861C303.233 491.134 307.456 497.793 312.895 503.447C318.51 508.888 325.224 513.129 332.609 515.901C339.995 518.672 347.891 519.914 355.795 519.547C363.699 519.914 371.595 518.672 378.981 515.901C386.366 513.129 393.08 508.888 398.695 503.447C404.134 497.793 408.357 491.134 411.115 483.861C413.874 476.589 415.111 468.851 414.755 461.104C415.129 453.23 413.859 445.365 411.023 437.984C408.187 430.604 403.843 423.863 398.255 418.171C392.751 412.746 386.158 408.487 378.89 405.661C371.622 402.836 363.835 401.504 356.015 401.749Z" fill="white"/>
</g>
<defs>
<clipPath id="clip0_18_469">
<rect width="550" height="805" fill="white"/>
</clipPath>
</defs>
</svg>
