<svg width="550" height="805" viewBox="0 0 550 805" fill="none" xmlns="http://www.w3.org/2000/svg">
<g clip-path="url(#clip0_18_431)">
<path d="M530.75 751.333C530.692 760.567 526.907 769.407 520.215 775.937C513.523 782.467 504.464 786.16 495 786.217H55C45.5363 786.16 36.4767 782.467 29.7847 775.937C23.0927 769.407 19.3077 760.567 19.25 751.333V53.6665C19.3077 44.4323 23.0927 35.5922 29.7847 29.0625C36.4767 22.5328 45.5363 18.8395 55 18.7832H495C504.464 18.8395 513.523 22.5328 520.215 29.0625C526.907 35.5922 530.692 44.4323 530.75 53.6665V751.333Z" fill="#1F86BF"/>
<path d="M495 0H55C40.4131 0 26.4236 5.65415 16.1091 15.7186C5.79463 25.7831 0 39.4334 0 53.6667L0 751.333C0 765.567 5.79463 779.217 16.1091 789.281C26.4236 799.346 40.4131 805 55 805H495C509.587 805 523.576 799.346 533.891 789.281C544.205 779.217 550 765.567 550 751.333V53.6667C550 39.4334 544.205 25.7831 533.891 15.7186C523.576 5.65415 509.587 0 495 0ZM530.75 751.333C530.692 760.568 526.907 769.408 520.215 775.937C513.523 782.467 504.464 786.16 495 786.217H55C45.5363 786.16 36.4767 782.467 29.7847 775.937C23.0927 769.408 19.3077 760.568 19.25 751.333V53.6667C19.3077 44.4324 23.0927 35.5924 29.7847 29.0626C36.4767 22.5329 45.5363 18.8396 55 18.7833H495C504.464 18.8396 513.523 22.5329 520.215 29.0626C526.907 35.5924 530.692 44.4324 530.75 53.6667V751.333Z" fill="white"/>
<path d="M69.3 588.885C68.6491 587.981 68.2998 586.903 68.2998 585.799C68.2998 584.694 68.6491 583.617 69.3 582.713L392.7 136.528L374 110.983C373.504 110.218 372.818 109.588 372.005 109.152C371.193 108.715 370.28 108.486 369.352 108.486C368.425 108.486 367.512 108.715 366.7 109.152C365.887 109.588 365.201 110.218 364.705 110.983L22 583.572C21.3367 584.481 20.9803 585.569 20.9803 586.684C20.9803 587.8 21.3367 588.888 22 589.797L162.36 786.217H210.045L69.3 588.885Z" fill="#1B71A1"/>
<path d="M411.95 110.016L392.7 136.474L530.75 326.83V261.195L421.19 110.016C420.694 109.251 420.008 108.622 419.195 108.185C418.383 107.748 417.47 107.52 416.542 107.52C415.615 107.52 414.702 107.748 413.89 108.185C413.077 108.622 412.391 109.251 411.895 110.016H411.95ZM69.3 582.712C68.6491 583.616 68.2998 584.694 68.2998 585.798C68.2998 586.903 68.6491 587.98 69.3 588.884L210.32 786.216H495C504.464 786.16 513.523 782.467 520.215 775.937C526.907 769.407 530.692 760.567 530.75 751.333V326.937L392.7 136.528L69.3 582.712Z" fill="#1E7BAF"/>
<path d="M156.31 89.8918C156.417 96.1731 154.639 102.348 151.195 107.655C147.695 112.906 142.838 117.163 137.115 119.999C143.618 122.957 149.212 127.528 153.34 133.254C157.448 139.092 159.601 146.03 159.5 153.111C159.745 158.559 158.725 163.991 156.516 169C154.306 174.01 150.964 178.466 146.74 182.037C136.886 189.598 124.554 193.412 112.035 192.771C99.4835 193.404 87.1199 189.593 77.22 182.037C72.9707 178.493 69.6038 174.051 67.374 169.049C65.1442 164.046 64.1101 158.615 64.35 153.165C64.1821 146.082 66.2773 139.123 70.345 133.254C74.453 127.544 80.0301 122.991 86.515 120.052C80.781 117.232 75.9209 112.971 72.435 107.709C69.0099 102.396 67.2511 96.2214 67.375 89.9455C67.1327 84.7101 68.0823 79.4874 70.1555 74.6529C72.2287 69.8184 75.3738 65.4921 79.365 61.9852C88.4474 54.676 100.002 50.9434 111.76 51.5202C123.53 50.8973 135.117 54.5703 144.265 61.8242C148.278 65.3401 151.44 69.682 153.523 74.536C155.606 79.39 156.558 84.635 156.31 89.8918ZM131.285 151.072C131.394 148.446 130.964 145.826 130.019 143.365C129.075 140.904 127.635 138.652 125.785 136.743C123.919 134.922 121.682 133.504 119.218 132.579C116.755 131.655 114.121 131.245 111.485 131.376C108.867 131.26 106.254 131.677 103.811 132.601C101.368 133.525 99.1486 134.936 97.295 136.743C95.4355 138.657 93.9903 140.917 93.0453 143.388C92.1004 145.859 91.6751 148.491 91.795 151.125C91.5628 156.334 93.4396 161.423 97.02 165.293C98.9135 167.139 101.187 168.572 103.69 169.497C106.193 170.422 108.868 170.819 111.54 170.66C114.167 170.784 116.791 170.37 119.244 169.446C121.697 168.522 123.925 167.107 125.785 165.293C127.629 163.402 129.066 161.169 130.011 158.726C130.955 156.283 131.389 153.681 131.285 151.072ZM128.37 91.2335C128.621 86.5613 127.071 81.9666 124.025 78.3535C122.477 76.7063 120.574 75.4141 118.454 74.5697C116.333 73.7253 114.047 73.3497 111.76 73.4698C109.496 73.352 107.233 73.713 105.126 74.5282C103.018 75.3433 101.116 76.5933 99.55 78.1925C96.493 81.8626 94.9442 86.5109 95.205 91.2335C94.9853 96 96.5272 100.685 99.55 104.435C101.086 106.118 102.992 107.441 105.125 108.306C107.258 109.17 109.564 109.553 111.87 109.426C114.16 109.556 116.451 109.174 118.567 108.309C120.683 107.444 122.568 106.119 124.08 104.435C127.087 100.68 128.61 95.9939 128.37 91.2335ZM459.69 460.246C459.951 476.525 455.115 492.495 445.83 506.023C436.361 519.541 423.377 530.358 408.21 537.364C425.715 544.387 440.833 556.087 451.825 571.121C462.525 585.771 468.169 603.364 467.94 621.353C467.94 651.048 457.673 674.698 437.14 692.3C416.607 709.903 389.583 718.722 356.07 718.758C322.227 718.758 295.093 709.813 274.67 691.924C254.283 674.036 244.09 650.422 244.09 621.085C243.893 603.174 249.346 585.637 259.71 570.853C270.371 555.66 285.362 543.849 302.83 536.882C287.84 529.851 275.072 519.005 265.87 505.487C256.798 491.978 252.085 476.126 252.34 459.977C252.34 431.069 261.837 408.117 280.83 391.123C299.823 374.128 324.885 365.631 356.015 365.631C386.925 365.631 411.95 374.128 431.09 391.123C450.23 408.117 459.763 431.158 459.69 460.246ZM423.5 620.387C423.828 611.725 422.333 603.089 419.107 595.012C415.881 586.936 410.993 579.59 404.745 573.429C398.267 567.332 390.589 562.582 382.175 559.464C373.761 556.346 364.787 554.926 355.795 555.289C346.867 554.707 337.915 555.99 329.535 559.052C321.156 562.114 313.542 566.885 307.202 573.046C300.862 579.206 295.942 586.616 292.769 594.78C289.597 602.943 288.245 611.673 288.805 620.387C288.34 628.836 289.678 637.287 292.736 645.204C295.795 653.121 300.505 660.332 306.57 666.379C318.45 677.542 334.95 683.123 356.07 683.123C377.19 683.123 393.69 677.506 405.57 666.272C411.658 660.257 416.397 653.07 419.484 645.171C422.571 637.271 423.938 628.831 423.5 620.387ZM356.015 401.749C348.152 401.454 340.31 402.73 332.971 405.498C325.632 408.267 318.95 412.47 313.335 417.849C307.725 423.592 303.369 430.387 300.533 437.823C297.696 445.259 296.438 453.18 296.835 461.104C296.482 468.851 297.721 476.588 300.479 483.86C303.237 491.132 307.459 497.791 312.895 503.447C318.51 508.888 325.224 513.129 332.609 515.901C339.995 518.672 347.891 519.914 355.795 519.547C363.699 519.914 371.595 518.672 378.981 515.901C386.366 513.129 393.08 508.888 398.695 503.447C404.131 497.791 408.353 491.132 411.111 483.86C413.869 476.588 415.108 468.851 414.755 461.104C415.129 453.23 413.859 445.365 411.023 437.984C408.186 430.604 403.843 423.863 398.255 418.171C392.751 412.746 386.158 408.487 378.89 405.661C371.622 402.836 363.835 401.504 356.015 401.749ZM154 301.177L105.16 233.987C105.083 233.887 104.983 233.806 104.869 233.75C104.754 233.694 104.628 233.665 104.5 233.665C104.372 233.665 104.246 233.694 104.131 233.75C104.016 233.806 103.917 233.887 103.84 233.987L55 301.177C54.8974 301.308 54.8418 301.469 54.8418 301.634C54.8418 301.799 54.8974 301.959 55 302.09L103.84 370.3C103.917 370.4 104.016 370.481 104.131 370.537C104.246 370.593 104.372 370.622 104.5 370.622C104.628 370.622 104.754 370.593 104.869 370.537C104.983 370.481 105.083 370.4 105.16 370.3L154 302.143C154.103 302.012 154.158 301.852 154.158 301.687C154.158 301.522 154.103 301.362 154 301.231V301.177Z" fill="white"/>
</g>
<defs>
<clipPath id="clip0_18_431">
<rect width="550" height="805" fill="white"/>
</clipPath>
</defs>
</svg>
