<svg width="546" height="808" viewBox="0 0 546 808" fill="none" xmlns="http://www.w3.org/2000/svg">
<g clip-path="url(#clip0_15_141)">
<path d="M526.89 754.134C526.833 763.402 523.075 772.275 516.432 778.829C509.789 785.383 500.795 789.09 491.4 789.147H54.6C45.2051 789.09 36.2114 785.383 29.5681 778.829C22.9248 772.275 19.1673 763.402 19.11 754.134V53.8668C19.1673 44.5982 22.9248 35.7252 29.5681 29.1711C36.2114 22.6171 45.2051 18.91 54.6 18.8535H491.4C500.795 18.91 509.789 22.6171 516.432 29.1711C523.075 35.7252 526.833 44.5982 526.89 53.8668V754.134Z" fill="#3B3B3B"/>
<path d="M491.4 0H54.6C40.1192 0 26.2315 5.67522 15.992 15.7772C5.75248 25.8791 0 39.5803 0 53.8667L0 754.133C0 768.42 5.75248 782.121 15.992 792.223C26.2315 802.325 40.1192 808 54.6 808H491.4C505.881 808 519.769 802.325 530.008 792.223C540.248 782.121 546 768.42 546 754.133V53.8667C546 39.5803 540.248 25.8791 530.008 15.7772C519.769 5.67522 505.881 0 491.4 0ZM526.89 754.133C526.833 763.402 523.075 772.275 516.432 778.829C509.789 785.383 500.795 789.09 491.4 789.147H54.6C45.2051 789.09 36.2114 785.383 29.5681 778.829C22.9248 772.275 19.1673 763.402 19.11 754.133V53.8667C19.1673 44.598 22.9248 35.725 29.5681 29.171C36.2114 22.6169 45.2051 18.9099 54.6 18.8533H491.4C500.795 18.9099 509.789 22.6169 516.432 29.171C523.075 35.725 526.833 44.598 526.89 53.8667V754.133Z" fill="white"/>
<path d="M398.58 776.865V789.147H436.254V750.578C424.647 760.598 412.022 769.407 398.58 776.865ZM134.261 443.054L450.068 134.128L430.412 114.844C428.642 113.107 426.247 112.132 423.751 112.132C421.254 112.132 418.859 113.107 417.089 114.844L96.7512 428.24C76.0585 448.43 59.7359 472.554 48.772 499.151C37.8082 525.748 32.4314 554.264 32.9674 582.972C33.5034 611.679 39.9411 639.98 51.8904 666.161C63.8397 692.341 81.0519 715.856 102.484 735.28C126.469 757.189 155.294 773.289 186.677 782.306C169.709 773.661 154.005 762.789 139.994 749.986C118.6 730.55 101.421 707.038 89.4947 680.869C77.5689 654.699 71.1441 626.417 70.6082 597.729C70.0724 569.042 75.4367 540.545 86.3771 513.96C97.3176 487.375 113.607 463.254 134.261 443.054ZM486.322 762.052C496.568 767.791 507.247 772.743 518.263 776.865C518.864 776.165 519.41 775.411 519.956 774.711C508.019 767.701 496.76 759.622 486.322 750.578V762.052Z" fill="#252525"/>
<path d="M454.6 129.657L450.068 134.128L526.89 209.541V187.348L467.922 129.657C466.152 127.92 463.757 126.945 461.261 126.945C458.764 126.945 456.37 127.92 454.6 129.657ZM398.58 735.765C365.265 764.535 324.163 783.087 280.316 789.147H373.136C381.871 785.585 390.369 781.483 398.58 776.865V735.765ZM200.983 789.147H217.854C207.31 787.677 196.89 785.444 186.677 782.467C191.373 784.891 196.123 787.1 200.983 789.147ZM448.757 735.765V789.147H486.158V762.213C472.827 754.652 460.297 745.792 448.757 735.765Z" fill="#2E2F2F"/>
<path d="M134.261 443.054C113.59 463.255 97.286 487.383 86.3355 513.978C75.3849 540.573 70.0153 569.083 70.5512 597.784C71.087 626.484 77.5174 654.78 89.4533 680.959C101.389 707.138 118.583 730.657 139.994 750.094C154.005 762.897 169.709 773.769 186.677 782.414C196.89 785.391 207.31 787.623 217.854 789.093H280.426C324.228 783.029 365.289 764.497 398.58 735.765V776.865C411.984 769.4 424.573 760.591 436.145 750.578V789.147H448.812V735.765C460.411 745.744 472.996 754.551 486.377 762.052V750.578C496.815 759.622 508.073 767.701 520.01 774.711C524.461 768.747 526.871 761.54 526.89 754.134V209.272L450.068 133.859L134.261 443.054Z" fill="#2E2F2F"/>
<path d="M154.9 278.975L110.128 235.182C109.876 234.951 109.544 234.822 109.2 234.822C108.856 234.822 108.524 234.951 108.272 235.182L63.4998 278.975C60.5773 281.799 58.2704 285.183 56.7207 288.918C55.1711 292.653 54.4113 296.661 54.4879 300.696C54.5646 304.731 55.4762 308.709 57.1667 312.384C58.8572 316.059 61.291 319.355 64.3188 322.069C70.0125 327.085 77.3787 329.857 85.0122 329.857C92.6457 329.857 100.012 327.085 105.706 322.069V328.156C105.916 335.982 103.282 343.624 98.28 349.702H120.12C115.118 343.624 112.484 335.982 112.694 328.156V321.907C118.388 326.923 125.754 329.696 133.388 329.696C141.021 329.696 148.388 326.923 154.081 321.907C157.083 319.195 159.495 315.909 161.171 312.248C162.846 308.588 163.749 304.63 163.826 300.614C163.902 296.599 163.151 292.61 161.616 288.89C160.082 285.17 157.797 281.797 154.9 278.975ZM128.965 136.336C125.703 139.732 121.774 142.438 117.419 144.29C113.064 146.142 108.373 147.101 103.631 147.11C98.0523 147.337 92.4932 146.328 87.3623 144.156C82.2315 141.984 77.6596 138.704 73.983 134.559C66.2241 125.005 62.3331 112.951 63.063 100.73C62.8267 91.9477 64.816 83.2456 68.8506 75.4132C72.6386 68.097 78.4506 61.9896 85.6128 57.7987C92.9606 53.6285 101.326 51.5234 109.801 51.7118C118.487 51.5596 127.028 53.919 134.371 58.499C141.736 63.313 147.537 70.121 151.078 78.1065C155.161 87.3273 157.226 97.2942 157.139 107.356V117.483C157.139 140.466 151.333 158.529 139.721 171.673C128.11 184.816 111.73 191.819 90.5814 192.681H83.7564V169.949H89.8716C113.968 168.836 127 157.632 128.965 136.336ZM110.456 125.94C114.581 126.046 118.634 124.858 122.031 122.546C125.102 120.4 127.625 117.578 129.402 114.305V103.047C129.816 95.4866 127.913 87.9786 123.942 81.5001C122.413 79.1023 120.283 77.1339 117.758 75.7846C115.233 74.4354 112.399 73.7509 109.528 73.7972C106.786 73.8222 104.095 74.5258 101.7 75.8434C99.306 77.1609 97.2851 79.0504 95.823 81.3385C92.0267 86.9148 90.1155 93.5328 90.363 100.246C90.1482 106.82 92.0605 113.291 95.823 118.722C97.4522 121.04 99.6464 122.916 102.204 124.177C104.761 125.439 107.599 126.045 110.456 125.94ZM414.632 565.6C405.414 576.439 394.113 585.373 381.381 591.887C368.291 598.557 353.743 601.96 339.011 601.798C320.377 602.214 302.043 597.11 286.377 587.146C271.059 576.923 259.028 562.586 251.706 545.831C243.38 527.322 239.208 507.256 239.476 487.008C239.102 465.474 243.656 444.135 252.798 424.577C260.863 407.139 274.019 392.473 290.581 382.453C307.868 372.428 327.645 367.354 347.693 367.801C382.2 367.801 409.5 380.55 429.593 406.047C449.686 431.544 459.641 466.306 459.459 510.333V523.099C459.459 590.181 446.027 639.146 419.164 669.993C392.301 700.841 351.751 716.66 297.515 717.45H288.67V680.282H298.007C334.625 679.636 362.781 670.227 382.473 652.056C402.165 633.885 412.885 605.066 414.632 565.6ZM346.219 565.6C361.175 565.62 375.728 560.815 387.66 551.918C399.692 543.489 409.138 531.952 414.96 518.574V500.96C414.96 472.231 408.645 448.889 396.014 430.933C383.383 412.978 367.385 404 348.02 404C338.964 403.735 329.975 405.605 321.799 409.456C313.623 413.306 306.496 419.026 301.01 426.139C289.143 440.899 283.21 460.344 283.21 484.477C282.33 505.171 288.331 525.582 300.3 542.599C305.421 549.888 312.299 555.806 320.315 559.821C328.33 563.836 337.232 565.822 346.219 565.6Z" fill="white"/>
</g>
<defs>
<clipPath id="clip0_15_141">
<rect width="546" height="808" fill="white"/>
</clipPath>
</defs>
</svg>
