<svg width="550" height="805" viewBox="0 0 550 805" fill="none" xmlns="http://www.w3.org/2000/svg">
<g clip-path="url(#clip0_18_311)">
<path d="M530.75 751.333C530.692 760.567 526.907 769.407 520.215 775.937C513.523 782.467 504.464 786.16 495 786.217H55C45.5363 786.16 36.4767 782.467 29.7847 775.937C23.0927 769.407 19.3077 760.567 19.25 751.333V53.6665C19.3077 44.4323 23.0927 35.5922 29.7847 29.0625C36.4767 22.5328 45.5363 18.8395 55 18.7832H495C504.464 18.8395 513.523 22.5328 520.215 29.0625C526.907 35.5922 530.692 44.4323 530.75 53.6665V751.333Z" fill="#E22521"/>
<path d="M483.395 268.333L470.415 281.75C469.992 282.209 469.475 282.577 468.897 282.828C468.319 283.08 467.693 283.21 467.06 283.21C466.427 283.21 465.801 283.08 465.223 282.828C464.645 282.577 464.128 282.209 463.705 281.75L451 268.333C357.17 171.733 201.41 169.587 109.45 267.85C20.295 363.055 21.45 514.717 112.64 608.473L285.395 786.109H286.935L142.175 637.614C50.875 543.751 49.83 392.25 138.985 296.991C231 198.567 386.76 201.089 480.535 297.528L493.46 310.837C493.897 311.284 494.421 311.639 495.003 311.882C495.584 312.125 496.21 312.25 496.842 312.25C497.475 312.25 498.101 312.125 498.682 311.882C499.264 311.639 499.788 311.284 500.225 310.837L513.15 297.528C518.65 291.678 524.7 286.258 530.75 281.106V230.767C513.414 241.304 497.505 253.925 483.395 268.333Z" fill="#B31F23"/>
<path d="M513.15 297.528L500.5 310.837C500.063 311.284 499.539 311.639 498.957 311.882C498.376 312.125 497.75 312.25 497.118 312.25C496.485 312.25 495.859 312.125 495.278 311.882C494.696 311.639 494.172 311.284 493.735 310.837L480.81 297.528C387.035 200.928 231.275 198.781 139.26 296.991C50.105 392.249 51.26 543.858 142.45 637.613L286.715 786.216H495C504.464 786.16 513.523 782.467 520.215 775.937C526.907 769.407 530.692 760.567 530.75 751.333V281.106C524.7 286.258 518.815 291.678 513.15 297.528Z" fill="#C72325"/>
<path d="M156.42 243.11C153.593 240.129 150.165 237.749 146.35 236.122C142.536 234.495 138.418 233.655 134.255 233.655C130.092 233.655 125.974 234.495 122.16 236.122C118.345 237.749 114.917 240.129 112.09 243.11L110.44 244.881C110.319 244.987 110.162 245.045 110 245.045C109.838 245.045 109.681 244.987 109.56 244.881L107.91 243.11C105.083 240.129 101.655 237.749 97.8403 236.122C94.0259 234.495 89.9079 233.655 85.745 233.655C81.582 233.655 77.4641 234.495 73.6497 236.122C69.8353 237.749 66.407 240.129 63.58 243.11C57.9898 249.205 54.931 257.115 55.0022 265.294C55.0734 273.472 58.2694 281.331 63.965 287.332L109.12 333.7C109.228 333.824 109.363 333.924 109.515 333.993C109.667 334.061 109.833 334.097 110 334.097C110.167 334.097 110.333 334.061 110.485 333.993C110.637 333.924 110.772 333.824 110.88 333.7L156.035 287.332C161.731 281.331 164.927 273.472 164.998 265.294C165.069 257.115 162.01 249.205 156.42 243.11ZM129.91 135.831C126.623 139.214 122.667 141.909 118.28 143.754C113.893 145.6 109.167 146.555 104.39 146.564C98.7706 146.791 93.1707 145.785 88.0023 143.621C82.8339 141.457 78.2285 138.19 74.525 134.06C66.7093 124.541 62.7898 112.533 63.525 100.357C63.2869 91.6069 65.2908 82.9371 69.355 75.1337C73.1708 67.8447 79.0253 61.76 86.24 57.5847C93.6417 53.43 102.068 51.3327 110.605 51.5204C119.355 51.3687 127.958 53.7193 135.355 58.2824C142.774 63.0785 148.618 69.8612 152.185 77.817C156.305 86.9998 158.367 96.9349 158.235 106.958V117.047C158.235 139.945 152.405 157.941 140.745 171.036C129.085 184.131 112.585 191.107 91.245 191.966H84.425V169.319H90.585C114.822 168.21 127.93 157.047 129.91 135.831ZM111.265 125.473C115.42 125.579 119.503 124.395 122.925 122.092C126.016 119.966 128.543 117.151 130.295 113.881V102.611C130.733 95.077 128.815 87.591 124.795 81.1444C123.251 78.7591 121.104 76.8008 118.562 75.457C116.02 74.1133 113.166 73.4291 110.275 73.47C107.513 73.495 104.802 74.196 102.39 75.5086C99.9785 76.8213 97.9428 78.7038 96.47 80.9834C92.6493 86.5405 90.7245 93.1329 90.97 99.8204C90.7536 106.37 92.68 112.818 96.47 118.228C98.1098 120.555 100.326 122.44 102.913 123.706C105.5 124.973 108.373 125.581 111.265 125.473Z" fill="white"/>
<path d="M495 0H55C40.4131 0 26.4236 5.65415 16.1091 15.7186C5.79463 25.7831 0 39.4334 0 53.6667L0 751.333C0 765.567 5.79463 779.217 16.1091 789.281C26.4236 799.346 40.4131 805 55 805H495C509.587 805 523.576 799.346 533.891 789.281C544.205 779.217 550 765.567 550 751.333V53.6667C550 39.4334 544.205 25.7831 533.891 15.7186C523.576 5.65415 509.587 0 495 0ZM530.75 751.333C530.692 760.568 526.907 769.408 520.215 775.937C513.523 782.467 504.464 786.16 495 786.217H55C45.5363 786.16 36.4767 782.467 29.7847 775.937C23.0927 769.408 19.3077 760.568 19.25 751.333V53.6667C19.3077 44.4324 23.0927 35.5924 29.7847 29.0626C36.4767 22.5329 45.5363 18.8396 55 18.7833H495C504.464 18.8396 513.523 22.5329 520.215 29.0626C526.907 35.5924 530.692 44.4324 530.75 53.6667V751.333Z" fill="white"/>
<path d="M417.67 557.489C408.382 568.272 396.998 577.155 384.175 583.625C370.993 590.287 356.339 593.696 341.495 593.553C322.715 593.978 304.239 588.872 288.475 578.902C273.034 568.751 260.911 554.481 253.55 537.794C245.163 519.354 240.96 499.363 241.23 479.19C240.879 457.79 245.465 436.587 254.65 417.151C262.729 399.679 275.985 384.969 292.71 374.915C310.127 364.935 330.047 359.881 350.24 360.318C385 360.318 412.5 373.001 432.74 398.368C452.98 423.734 463.008 458.367 462.825 502.266V515.2C462.825 582.069 449.295 630.852 422.235 661.549C395.175 692.246 354.255 707.863 299.475 708.4H290.785V671.37H300.19C337.077 670.762 365.438 661.388 385.275 643.249C405.112 625.109 415.91 596.523 417.67 557.489ZM348.755 557.489C363.802 557.555 378.46 552.826 390.5 544.019C402.622 535.601 412.136 524.089 418 510.746V493.304C418 464.682 411.638 441.426 398.915 423.537C386.155 405.613 370.095 396.704 350.57 396.704C341.443 396.404 332.375 398.234 324.12 402.043C315.864 405.851 308.659 411.528 303.105 418.6C291.152 433.305 285.175 452.696 285.175 476.775C284.3 497.407 290.386 517.749 302.5 534.681C307.675 541.92 314.609 547.793 322.682 551.773C330.754 555.754 339.713 557.718 348.755 557.489Z" fill="white"/>
</g>
<defs>
<clipPath id="clip0_18_311">
<rect width="550" height="805" fill="white"/>
</clipPath>
</defs>
</svg>
