<svg width="550" height="805" viewBox="0 0 550 805" fill="none" xmlns="http://www.w3.org/2000/svg">
<g clip-path="url(#clip0_18_437)">
<path d="M530.75 751.333C530.692 760.567 526.907 769.407 520.215 775.937C513.523 782.467 504.464 786.16 495 786.217H55C45.5363 786.16 36.4767 782.467 29.7847 775.937C23.0927 769.407 19.3077 760.567 19.25 751.333V53.6665C19.3077 44.4323 23.0927 35.5922 29.7847 29.0625C36.4767 22.5328 45.5363 18.8395 55 18.7832H495C504.464 18.8395 513.523 22.5328 520.215 29.0625C526.907 35.5922 530.692 44.4323 530.75 53.6665V751.333Z" fill="#3A992C"/>
<path d="M495 0H55C40.4131 0 26.4236 5.65415 16.1091 15.7186C5.79463 25.7831 0 39.4334 0 53.6667L0 751.333C0 765.567 5.79463 779.217 16.1091 789.281C26.4236 799.346 40.4131 805 55 805H495C509.587 805 523.576 799.346 533.891 789.281C544.205 779.217 550 765.567 550 751.333V53.6667C550 39.4334 544.205 25.7831 533.891 15.7186C523.576 5.65415 509.587 0 495 0ZM530.75 751.333C530.692 760.568 526.907 769.408 520.215 775.937C513.523 782.467 504.464 786.16 495 786.217H55C45.5363 786.16 36.4767 782.467 29.7847 775.937C23.0927 769.408 19.3077 760.568 19.25 751.333V53.6667C19.3077 44.4324 23.0927 35.5924 29.7847 29.0626C36.4767 22.5329 45.5363 18.8396 55 18.7833H495C504.464 18.8396 513.523 22.5329 520.215 29.0626C526.907 35.5924 530.692 44.4324 530.75 53.6667V751.333Z" fill="white"/>
<path d="M198.88 254.004C198.88 311.427 224.895 377.062 263.23 426.435C235.182 415.681 205.364 409.989 175.23 409.637C145.332 409.591 115.803 416.079 88.8117 428.626C61.8201 441.172 38.0511 459.458 19.25 482.141V554.967C34.6374 519.147 60.5047 488.547 93.6179 466.994C126.731 445.441 165.621 433.891 205.425 433.787C235.557 434.161 265.37 439.851 293.425 450.585C254.925 401.212 228.855 335.524 229.075 278.154C229.625 167.064 320.925 78.2456 431.805 78.7286C466.6 78.854 500.746 87.9241 530.805 105.025V101.966C494.89 71.6042 449.02 54.7938 401.5 54.5786C290.62 54.0419 199.43 142.914 198.88 254.004ZM63.58 777.468C44.7252 759.228 29.6712 737.595 19.25 713.766V738.346C31.9599 753.437 46.8783 766.619 63.525 777.468H63.58ZM370.48 775.536C369.678 779.128 368.816 782.706 367.895 786.27H403.425C406.154 771.552 407.845 756.67 408.485 741.727C396.936 754.139 384.211 765.459 370.48 775.536ZM456.17 741.888C456.642 743.476 456.9 745.118 456.94 746.771C461.89 750.742 467.17 754.553 472.505 758.31C466.785 752.943 461.285 747.576 456.17 741.888Z" fill="#297A38"/>
<path d="M425.975 717.684C428.291 740.736 432.075 763.624 437.305 786.217H462L456.5 746.772C445.528 737.905 435.319 728.177 425.975 717.684ZM506 784.607C508.284 783.857 510.494 782.905 512.6 781.762C498.729 774.944 485.4 767.122 472.725 758.364C483.148 767.889 494.269 776.66 506 784.607ZM73.15 786.217H78.21L63.58 777.469L73.15 786.217ZM378.29 717.523C350.865 746.721 317.579 770.103 280.5 786.217H355.19C360.69 782.836 365.475 779.24 370.48 775.483C374.765 756.398 377.359 736.989 378.235 717.47L378.29 717.523Z" fill="#328840"/>
<path d="M229.075 278.154C229.075 335.578 255.09 401.266 293.425 450.585C265.37 439.852 235.557 434.161 205.425 433.788C165.621 433.891 126.731 445.442 93.6179 466.995C60.5047 488.548 34.6374 519.147 19.25 554.967V713.767C29.6424 737.629 44.6782 759.299 63.525 777.576C68.255 780.689 73.15 783.641 78.155 786.324H280.5C317.662 770.22 351.026 746.818 378.51 717.577C377.637 737.114 375.043 756.541 370.755 775.644C384.488 765.55 397.213 754.212 408.76 741.781C408.12 756.724 406.429 771.607 403.7 786.324H437.58C432.35 763.731 428.566 740.843 426.25 717.792C435.734 728.302 446.091 738.03 457.215 746.879C457.175 745.225 456.917 743.584 456.445 741.995C461.56 747.684 467.06 753.104 472.945 758.417C485.62 767.176 498.949 774.997 512.82 781.816C518.287 778.717 522.822 774.269 525.97 768.918C529.117 763.567 530.766 757.503 530.75 751.333V105.026C500.691 87.9245 466.545 78.8544 431.75 78.729C320.87 78.1923 229.625 167.064 229.075 278.154Z" fill="#328840"/>
<path d="M119.955 337.778H100.265C106.7 331.392 106.975 318.458 106.975 318.458C103.636 322.039 99.6034 324.94 95.1103 326.994C90.6172 329.048 85.7521 330.214 80.7951 330.426C73.8371 330.426 67.1641 327.729 62.2441 322.928C57.3241 318.128 54.5601 311.616 54.5601 304.827C54.5601 298.038 57.3241 291.527 62.2441 286.726C67.1641 281.925 73.8371 279.228 80.7951 279.228C84.5595 279.288 88.2834 279.997 91.7951 281.321C86.7284 275.015 83.8058 267.323 83.4351 259.318C83.2739 255.911 83.8224 252.508 85.0474 249.314C86.2724 246.12 88.1484 243.201 90.5621 240.735C92.9759 238.269 95.8771 236.305 99.0904 234.964C102.304 233.623 105.763 232.931 109.258 232.931C112.753 232.931 116.211 233.623 119.425 234.964C122.638 236.305 125.539 238.269 127.953 240.735C130.367 243.201 132.243 246.12 133.468 249.314C134.693 252.508 135.241 255.911 135.08 259.318C134.78 267.471 131.769 275.308 126.5 281.643C130.521 279.98 134.838 279.105 139.205 279.067C146.163 279.067 152.836 281.764 157.756 286.565C162.676 291.366 165.44 297.877 165.44 304.666C165.44 311.455 162.676 317.967 157.756 322.767C152.836 327.568 146.163 330.265 139.205 330.265C134.255 330.073 129.393 328.926 124.899 326.89C120.406 324.855 116.37 321.971 113.025 318.405C113.3 318.566 113.52 331.285 119.955 337.778ZM129.91 135.831C126.623 139.214 122.667 141.909 118.28 143.754C113.893 145.6 109.167 146.555 104.39 146.564C98.7707 146.791 93.1708 145.785 88.0024 143.621C82.834 141.457 78.2286 138.19 74.5251 134.06C66.7093 124.541 62.7898 112.533 63.5251 100.357C63.287 91.6069 65.2909 82.9371 69.3551 75.1337C73.1708 67.8447 79.0253 61.76 86.2401 57.5847C93.6417 53.43 102.068 51.3327 110.605 51.5204C119.355 51.3687 127.958 53.7193 135.355 58.2824C142.774 63.0785 148.618 69.8612 152.185 77.817C156.305 86.9998 158.367 96.9349 158.235 106.958V117.047C158.235 139.945 152.405 157.941 140.745 171.036C129.085 184.131 112.585 191.107 91.2451 191.966H84.3701V169.319H90.5301C114.803 168.21 127.93 157.047 129.91 135.831ZM111.265 125.473C115.421 125.579 119.503 124.395 122.925 122.092C126.016 119.966 128.543 117.151 130.295 113.881V102.665C130.712 95.1326 128.796 87.6525 124.795 81.198C123.251 78.8128 121.105 76.8545 118.562 75.5107C116.02 74.1669 113.166 73.4828 110.275 73.5237C107.513 73.5487 104.802 74.2496 102.39 75.5623C99.9785 76.875 97.9429 78.7574 96.4701 81.037C92.6459 86.5926 90.7208 93.1861 90.9701 99.874C90.7537 106.424 92.68 112.871 96.4701 118.282C98.1162 120.599 100.335 122.473 102.922 123.73C105.508 124.987 108.378 125.587 111.265 125.473ZM417.67 563.071C408.384 573.87 397.001 582.771 384.175 589.26C370.993 595.922 356.339 599.331 341.495 599.189C322.715 599.613 304.239 594.508 288.475 584.538C273.032 574.365 260.91 560.078 253.55 543.375C245.149 524.94 240.946 504.945 241.23 484.771C240.879 463.372 245.465 442.169 254.65 422.733C262.732 405.277 275.989 390.585 292.71 380.551C310.111 370.528 330.038 365.453 350.24 365.9C385 365.9 412.5 378.601 432.74 404.003C452.98 429.405 463.008 464.038 462.825 507.902V520.567C462.825 587.364 449.295 636.147 422.235 666.916C395.175 697.685 354.328 713.445 299.695 714.196H290.785V677.166H300.19C337.113 676.522 365.475 667.256 385.275 649.367C405.075 631.478 415.873 602.713 417.67 563.071ZM348.755 563.071C363.703 563.098 378.255 558.39 390.225 549.654C402.347 541.236 411.861 529.724 417.725 516.381V499.1C417.725 470.478 411.363 447.223 398.64 429.334C385.917 411.445 369.802 402.5 350.295 402.5C341.173 402.241 332.12 404.106 323.884 407.942C315.649 411.778 308.469 417.474 302.94 424.557C290.987 439.262 285.028 458.636 285.065 482.678C284.295 503.23 290.416 523.467 302.5 540.316C307.677 547.549 314.614 553.414 322.687 557.385C330.76 561.357 339.717 563.31 348.755 563.071Z" fill="white"/>
</g>
<defs>
<clipPath id="clip0_18_437">
<rect width="550" height="805" fill="white"/>
</clipPath>
</defs>
</svg>
