<svg width="550" height="805" viewBox="0 0 550 805" fill="none" xmlns="http://www.w3.org/2000/svg">
<g clip-path="url(#clip0_18_513)">
<path d="M530.75 751.333C530.692 760.567 526.907 769.407 520.215 775.937C513.523 782.467 504.464 786.16 495 786.217H55C45.5363 786.16 36.4767 782.467 29.7847 775.937C23.0927 769.407 19.3077 760.567 19.25 751.333V53.6665C19.3077 44.4323 23.0927 35.5922 29.7847 29.0625C36.4767 22.5328 45.5363 18.8395 55 18.7832H495C504.464 18.8395 513.523 22.5328 520.215 29.0625C526.907 35.5922 530.692 44.4323 530.75 53.6665V751.333Z" fill="#1F86BF"/>
<path d="M495 0H55C40.4131 0 26.4236 5.65415 16.1091 15.7186C5.79463 25.7831 0 39.4334 0 53.6667L0 751.333C0 765.567 5.79463 779.217 16.1091 789.281C26.4236 799.346 40.4131 805 55 805H495C509.587 805 523.576 799.346 533.891 789.281C544.205 779.217 550 765.567 550 751.333V53.6667C550 39.4334 544.205 25.7831 533.891 15.7186C523.576 5.65415 509.587 0 495 0ZM530.75 751.333C530.692 760.568 526.907 769.408 520.215 775.937C513.523 782.467 504.464 786.16 495 786.217H55C45.5363 786.16 36.4767 782.467 29.7847 775.937C23.0927 769.408 19.3077 760.568 19.25 751.333V53.6667C19.3077 44.4324 23.0927 35.5924 29.7847 29.0626C36.4767 22.5329 45.5363 18.8396 55 18.7833H495C504.464 18.8396 513.523 22.5329 520.215 29.0626C526.907 35.5924 530.692 44.4324 530.75 53.6667V751.333Z" fill="white"/>
<path d="M69.3 588.885C68.6491 587.981 68.2998 586.903 68.2998 585.799C68.2998 584.694 68.6491 583.617 69.3 582.713L392.7 136.528L374 110.983C373.504 110.218 372.818 109.588 372.005 109.152C371.193 108.715 370.28 108.486 369.352 108.486C368.425 108.486 367.512 108.715 366.7 109.152C365.887 109.588 365.201 110.218 364.705 110.983L22 583.572C21.3367 584.481 20.9803 585.569 20.9803 586.684C20.9803 587.8 21.3367 588.888 22 589.797L162.36 786.217H210.045L69.3 588.885Z" fill="#1B71A1"/>
<path d="M411.95 110.016L392.7 136.474L530.75 326.83V261.195L421.19 110.016C420.694 109.251 420.008 108.622 419.195 108.185C418.383 107.748 417.47 107.52 416.542 107.52C415.615 107.52 414.702 107.748 413.89 108.185C413.077 108.622 412.391 109.251 411.895 110.016H411.95ZM69.3 582.712C68.6491 583.616 68.2998 584.694 68.2998 585.798C68.2998 586.903 68.6491 587.98 69.3 588.884L210.32 786.216H495C504.464 786.16 513.523 782.467 520.215 775.937C526.907 769.407 530.692 760.567 530.75 751.333V326.937L392.7 136.528L69.3 582.712Z" fill="#1E7BAF"/>
<path d="M129.91 135.777C126.623 139.16 122.666 141.856 118.28 143.701C113.893 145.546 109.167 146.502 104.39 146.51C98.7706 146.737 93.1707 145.731 88.0023 143.567C82.8339 141.403 78.2285 138.136 74.525 134.006C66.7092 124.488 62.7897 112.479 63.525 100.303C63.2869 91.5532 65.2908 82.8834 69.355 75.08C73.1707 67.791 79.0252 61.7063 86.24 57.531C93.6416 53.3763 102.068 51.2789 110.605 51.4667C119.355 51.315 127.958 53.6656 135.355 58.2287C142.774 63.0248 148.618 69.8075 152.185 77.7633C156.304 86.946 158.367 96.8812 158.235 106.904V116.994C158.235 139.891 152.405 157.888 140.745 170.982C129.085 184.077 112.585 191.054 91.245 191.912H84.37V169.265H90.53C114.803 168.192 127.93 157.029 129.91 135.777ZM111.21 125.419C115.365 125.525 119.448 124.341 122.87 122.038C125.961 119.913 128.488 117.098 130.24 113.827V102.557C130.657 95.0253 128.74 87.5451 124.74 81.0907C123.2 78.7018 121.054 76.7406 118.511 75.3964C115.968 74.0522 113.112 73.3702 110.22 73.4163C107.458 73.4413 104.747 74.1422 102.335 75.4549C99.9234 76.7676 97.8878 78.65 96.415 80.9297C92.5908 86.4852 90.6657 93.0787 90.915 99.7667C90.6986 106.317 92.6249 112.764 96.415 118.174C98.0611 120.492 100.28 122.366 102.867 123.623C105.453 124.88 108.323 125.479 111.21 125.366V125.419ZM417.56 563.017C408.274 573.817 396.89 582.717 384.065 589.207C370.883 595.868 356.229 599.277 341.385 599.135C322.605 599.559 304.129 594.454 288.365 584.484C272.922 574.312 260.8 560.024 253.44 543.322C245.039 524.886 240.836 504.892 241.12 484.718C240.769 463.318 245.355 442.115 254.54 422.679C262.622 405.223 275.879 390.531 292.6 380.497C309.999 370.469 329.928 365.394 350.13 365.846C384.89 365.846 412.39 378.547 432.63 403.949C452.87 429.352 462.898 463.984 462.715 507.848V520.567C462.715 587.364 449.185 636.147 422.125 666.916C395.065 697.685 354.218 713.427 299.585 714.143H290.62V677.113H300.08C337.077 676.504 365.475 667.256 385.275 649.367C405.075 631.478 415.892 602.713 417.725 563.071L417.56 563.017ZM348.645 563.017C363.592 563.044 378.145 558.336 390.115 549.601C402.237 541.182 411.751 529.671 417.615 516.327V499.1C417.615 470.478 411.253 447.223 398.53 429.334C385.807 411.445 369.673 402.5 350.13 402.5C341.006 402.227 331.948 404.087 323.71 407.924C315.473 411.761 308.295 417.464 302.775 424.557C290.822 439.226 284.845 458.6 284.845 482.678C284.139 503.255 290.338 523.493 302.5 540.316C307.677 547.549 314.614 553.414 322.687 557.385C330.76 561.357 339.717 563.31 348.755 563.071L348.645 563.017ZM154 301.178L105.16 233.987C105.083 233.887 104.983 233.806 104.869 233.75C104.754 233.694 104.628 233.665 104.5 233.665C104.372 233.665 104.246 233.694 104.131 233.75C104.016 233.806 103.917 233.887 103.84 233.987L55 301.178C54.8974 301.309 54.8418 301.469 54.8418 301.634C54.8418 301.799 54.8974 301.959 55 302.09L103.84 370.3C103.917 370.4 104.016 370.481 104.131 370.537C104.246 370.593 104.372 370.622 104.5 370.622C104.628 370.622 104.754 370.593 104.869 370.537C104.983 370.481 105.083 370.4 105.16 370.3L154 302.144C154.103 302.013 154.158 301.852 154.158 301.688C154.158 301.523 154.103 301.362 154 301.231V301.178Z" fill="white"/>
</g>
<defs>
<clipPath id="clip0_18_513">
<rect width="550" height="805" fill="white"/>
</clipPath>
</defs>
</svg>
