<svg width="580" height="800" viewBox="0 0 580 800" fill="none" xmlns="http://www.w3.org/2000/svg">
<path d="M552.069 0H27.9313C12.6906 0 0.345337 12.3453 0.345337 27.5859V772.414C0.345337 787.655 12.6906 800 27.9313 800H552.069C567.309 800 579.655 787.655 579.655 772.414V27.5859C579.655 12.3453 567.311 0 552.069 0Z" fill="#E6EEF4"/>
<path d="M524.483 758.62C532.1 758.62 538.277 752.445 538.277 744.826V55.1718C538.277 47.5546 532.102 41.3781 524.483 41.3781H55.5173C47.9001 41.3781 41.7235 47.5531 41.7235 55.1718V744.828C41.7235 752.445 47.8985 758.622 55.5173 758.622H524.483V758.62ZM69.311 744.828V55.1718L55.5173 68.9656H524.483L510.689 55.1718V744.828L524.483 731.034H55.5173L69.311 744.828Z" fill="#D71E00"/>
<path d="M45.7672 163.087C40.3813 168.473 40.3813 177.208 45.7672 182.594C51.1532 187.98 59.8876 187.98 65.2735 182.594L182.942 64.925C188.328 59.539 188.328 50.8047 182.942 45.4187C177.556 40.0328 168.822 40.0328 163.436 45.4187L45.7672 163.087Z" fill="#D71E00"/>
<path d="M299.974 64.9328C305.359 59.5468 305.359 50.8125 299.974 45.4265C294.588 40.0406 285.853 40.0406 280.467 45.4265L45.7642 280.13C40.3782 285.516 40.3782 294.25 45.7642 299.636C51.1501 305.022 59.8845 305.022 65.2704 299.636L299.974 64.9328Z" fill="#D71E00"/>
<path d="M417.022 64.9234C422.408 59.5374 422.408 50.8031 417.022 45.4171C411.636 40.0312 402.902 40.0312 397.516 45.4171L45.7642 397.169C40.3782 402.555 40.3782 411.289 45.7642 416.675C51.1501 422.061 59.8845 422.061 65.2704 416.675L417.022 64.9234Z" fill="#D71E00"/>
<path d="M534.056 64.9266C539.442 59.5406 539.442 50.8062 534.056 45.4203C528.67 40.0344 519.936 40.0344 514.55 45.4203L45.7642 514.206C40.3782 519.592 40.3782 528.327 45.7642 533.712C51.1501 539.098 59.8845 539.098 65.2704 533.712L534.056 64.9266Z" fill="#D71E00"/>
<path d="M534.236 181.784C539.622 176.398 539.622 167.664 534.236 162.278C528.85 156.892 520.116 156.892 514.73 162.278L45.7642 631.244C40.3782 636.63 40.3782 645.364 45.7642 650.75C51.1501 656.136 59.8845 656.136 65.2704 650.75L534.236 181.784Z" fill="#D71E00"/>
<path d="M534.242 298.819C539.628 293.433 539.628 284.698 534.242 279.312C528.856 273.926 520.122 273.926 514.736 279.312L69.3704 724.676C63.9844 730.062 63.9844 738.797 69.3704 744.183C74.7563 749.569 83.4907 749.569 88.8766 744.183L534.242 298.819Z" fill="#D71E00"/>
<path d="M176.013 735.074C170.627 740.459 170.627 749.194 176.013 754.58C181.399 759.966 190.133 759.966 195.519 754.58L534.236 415.863C539.622 410.477 539.622 401.742 534.236 396.356C528.85 390.97 520.116 390.97 514.73 396.356L176.013 735.074Z" fill="#D71E00"/>
<path d="M293.047 735.077C287.661 740.462 287.661 749.197 293.047 754.583C298.433 759.969 307.167 759.969 312.553 754.583L534.236 532.9C539.622 527.514 539.622 518.78 534.236 513.394C528.85 508.008 520.116 508.008 514.73 513.394L293.047 735.077Z" fill="#D71E00"/>
<path d="M534.242 649.933C539.628 644.547 539.628 635.813 534.242 630.427C528.856 625.041 520.122 625.041 514.736 630.427L410.088 735.075C404.702 740.461 404.702 749.195 410.088 754.581C415.473 759.967 424.208 759.967 429.594 754.581L534.242 649.933Z" fill="#D71E00"/>
</svg>
