<svg width="512" height="359" viewBox="0 0 512 359" fill="none" xmlns="http://www.w3.org/2000/svg">
<path d="M501.41 105.796C490.757 83.596 470.346 63.591 442.861 47.246C396.59 19.516 330.153 2.11401 256.478 2.11401C116.773 2.11401 3.17139 64.647 3.17139 141.574C3.17139 158.082 8.37639 173.857 17.9714 188.576C30.0064 207.036 48.9534 223.706 73.1054 237.611C94.0044 249.727 118.806 259.729 146.292 267.13C168.98 273.147 193.538 277.375 219.397 279.408C231.513 280.466 243.874 280.954 256.478 280.954C268.757 280.954 280.792 280.467 292.583 279.49C318.361 277.538 343.001 273.31 365.688 267.374C393.174 260.056 417.976 250.136 438.875 238.181C470.182 220.373 492.871 198.01 503.361 173.046C507.59 162.962 509.866 152.391 509.866 141.575C509.867 129.214 506.939 117.179 501.41 105.796Z" fill="#E5DF95"/>
<path d="M510.924 141.006C510.924 146.698 510.274 152.391 509.135 157.92C509.054 158.001 509.054 158.083 509.054 158.164C502.142 189.471 476.689 217.69 438.876 239.238C417.896 251.192 393.175 261.112 365.689 268.351C343.001 274.368 318.443 278.597 292.584 280.549C280.793 281.524 268.758 282.012 256.479 282.012C243.875 282.012 231.514 281.524 219.398 280.468C193.539 278.435 168.98 274.206 146.293 268.107C118.807 260.707 94.0052 250.705 73.1062 238.67C42.9372 221.268 20.7372 199.555 9.84023 175.485C4.79823 164.426 2.11523 152.878 2.11523 141.006C2.11423 63.266 116.204 0 256.478 0C327.387 0 391.548 16.182 437.737 42.122C469.777 60.175 493.196 83.026 504.093 108.478C508.566 118.887 510.924 129.784 510.924 141.006Z" fill="#E25862"/>
<path d="M256.492 260.93C192.158 260.93 131.926 247.236 86.8941 222.369C45.8221 199.688 23.2031 170.993 23.2031 141.564C23.2031 112.135 45.8221 83.438 86.8941 60.757C131.926 35.89 192.158 22.196 256.492 22.196C320.828 22.196 381.06 35.89 426.092 60.757C467.162 83.438 489.781 112.135 489.781 141.564C489.781 170.993 467.162 199.69 426.092 222.369C381.06 247.236 320.829 260.93 256.492 260.93Z" fill="#E5DF95" stroke="#E25862" stroke-width="0.2596" stroke-miterlimit="10"/>
<g opacity="0.2">
<path d="M359.672 181.747C358.858 182.397 358.127 182.967 357.233 183.536C340.237 196.14 315.191 204.028 286.649 204.028C247.209 204.028 213.625 189.228 196.873 168.329C196.385 167.678 195.897 167.109 195.409 166.459C195.328 166.459 195.328 166.459 195.409 166.378C194.921 165.727 194.433 165.077 194.027 164.426C189.473 157.757 186.708 150.684 185.895 143.201C185.732 141.982 185.569 140.681 185.651 139.379C185.57 138.486 185.57 137.509 185.651 136.533C185.814 132.874 186.465 129.295 187.603 125.881C188.01 124.58 188.498 123.278 188.986 122.059C191.995 115.065 196.792 108.56 203.135 102.948C204.599 101.566 206.225 100.265 207.852 99.045C225.173 85.709 251.113 77.496 279.656 77.496C305.759 77.496 330.155 84.244 348.37 95.304L344.304 64.077C343.41 63.752 342.515 63.508 341.54 63.184C322.348 57.085 300.799 53.588 278.355 53.588C228.019 53.588 182.724 71.559 159.223 99.045C158.085 100.346 157.028 101.648 156.052 102.948C151.498 108.884 148.001 115.309 145.724 122.059C145.236 123.278 144.83 124.579 144.504 125.881C143.447 129.296 142.797 132.874 142.471 136.533C142.39 137.509 142.309 138.404 142.39 139.379C142.228 140.68 142.146 141.9 142.228 143.201C142.309 150.439 143.773 157.513 146.375 164.426C146.782 165.726 147.351 167.028 148.001 168.329C150.36 173.777 153.531 179.145 157.434 184.186C181.097 215.088 229.97 237.287 288.519 237.287C317.143 237.287 343.328 231.758 364.958 222.243L359.672 181.747Z" fill="white"/>
<path d="M286.69 125.912H107.795L123.192 102.949H297.662L286.69 125.912Z" fill="white"/>
<path d="M269.372 168.29H102.174L118.402 143.211H281.279L269.372 168.29Z" fill="white"/>
</g>
<path d="M357.232 183.535L356.5 177.842C339.423 191.423 313.401 200.123 283.476 200.123C246.557 200.123 214.68 187.195 197.034 168.328C196.465 167.758 195.895 167.108 195.408 166.458C195.327 166.458 195.327 166.458 195.408 166.377C194.757 165.726 194.188 165.076 193.7 164.425C188.415 157.838 184.836 150.683 183.291 143.2C183.047 141.9 182.803 140.68 182.722 139.378C182.478 137.182 182.397 134.906 182.478 132.629C182.559 130.353 182.885 128.076 183.454 125.88C183.616 124.579 184.023 123.359 184.43 122.058C186.625 115.145 190.61 108.721 196.058 102.947C197.277 101.565 198.579 100.345 199.961 99.044C217.119 83.594 245.255 73.673 276.482 73.673C302.666 73.673 326.981 80.422 345.196 91.401L341.537 63.184L341.13 60.174C321.207 53.506 298.682 49.765 275.181 49.765C222.487 49.765 175.403 69.364 152.878 99.045C151.984 100.346 151.007 101.566 150.194 102.948C146.128 108.966 143.119 115.309 141.249 122.059C140.923 123.278 140.598 124.579 140.354 125.881C139.866 128.077 139.541 130.354 139.297 132.63C139.053 134.907 138.972 137.102 139.053 139.379C139.053 140.68 139.134 141.982 139.216 143.201C139.785 150.521 141.737 157.594 144.827 164.426C145.315 165.726 145.965 167.028 146.697 168.329C149.462 173.858 153.121 179.145 157.431 184.186C182.07 213.054 229.316 233.384 285.345 233.384C313.969 233.384 340.154 227.855 361.785 218.34L357.232 183.535Z" fill="#E25862"/>
<path d="M283.523 122.041H104.628L120.025 99.078H294.495L283.523 122.041Z" fill="#E25862"/>
<path d="M266.205 164.42H99.0078L115.235 139.341H278.112L266.205 164.42Z" fill="#E25862"/>
<path d="M73.105 235.091V316.002C70.503 314.539 67.901 312.994 65.38 311.449C39.439 295.592 20.004 276.483 9.27 255.339C3.252 243.386 0 230.781 0 217.771V136.859C0 150.277 3.415 163.206 9.839 175.485C12.198 179.957 14.881 184.267 17.971 188.577C30.575 206.061 49.523 221.837 73.105 235.091Z" fill="#E25959"/>
<path d="M73.126 235.085V315.989C94.131 327.763 118.862 337.525 146.272 344.689V263.785C118.862 256.62 94.131 246.859 73.126 235.085Z" fill="#E1E48E"/>
<path d="M146.272 263.784V344.688C169.017 350.633 193.601 354.786 219.417 356.821V275.917C193.601 273.882 169.017 269.729 146.272 263.784Z" fill="#E25959"/>
<path d="M255.99 277.357C243.574 277.357 231.367 276.859 219.417 275.917V356.821C231.366 357.763 243.573 358.261 255.99 358.261C268.407 358.261 280.614 357.763 292.563 356.821V275.917C280.614 276.86 268.407 277.357 255.99 277.357Z" fill="#E1E48E"/>
<path d="M292.563 275.918V356.822C318.379 354.787 342.963 350.634 365.709 344.689V263.785C342.963 269.729 318.379 273.882 292.563 275.918Z" fill="#E25959"/>
<path d="M365.709 344.689C393.118 337.525 417.85 327.764 438.855 315.99V235.086C417.85 246.86 393.119 256.622 365.709 263.786V344.689Z" fill="#E1E48E"/>
<path d="M438.854 235.085V315.989C484.073 290.642 512 255.97 512 217.782V136.878C512 175.066 484.073 209.738 438.854 235.085Z" fill="#E25959"/>
<path opacity="0.06" d="M509.143 157.868C510.276 152.355 510.924 146.681 510.924 141.006C510.924 129.784 508.566 118.887 504.093 108.479C493.196 83.026 469.777 60.175 437.737 42.123C391.548 16.182 327.388 0 256.479 0C256.318 0 256.16 0.007 256.001 0.007V155.225C256.011 155.188 256.023 155.151 256.039 155.115C256.027 155.154 256.014 155.192 256.001 155.231V358.262C268.413 358.262 280.618 357.764 292.565 356.822C318.38 354.786 342.964 350.634 365.71 344.689C393.119 337.525 417.85 327.764 438.855 315.989C484.073 290.642 512 255.971 512 217.781V136.877C512 144.01 511.022 151.019 509.143 157.868ZM509.031 158.24C509.037 158.214 509.049 158.19 509.054 158.165C509.054 158.112 509.085 158.06 509.107 158.008C509.084 158.085 509.053 158.161 509.031 158.24Z" fill="#040000"/>
</svg>
