<?xml version="1.0" encoding="iso-8859-1"?>
<svg viewBox="0 0 31 33" class="f1jshrv9" xmlns="http://www.w3.org/2000/svg" xmlns:xlink="http://www.w3.org/1999/xlink"><style>.B-pdiL1gwGR7L0T0HaPPZ7W{fill:#7d7d7d}.C-pdiL1gwGR7L0T0HaPPZ7W{fill:#fff}</style><circle cx="15.5" cy="17.5" r="15.5"></circle><circle cx="15.5" cy="15.5" r="15.5"></circle><path d="M23.187 9.726a9.597 9.597 0 0 0-15.373 0l-.112.15H1.6a14.925 14.925 0 0 0 0 11.25h6.1l.112.15a9.597 9.597 0 0 0 15.373 0l.112-.15h6.1a14.925 14.925 0 0 0 0-11.25h-6.1z" fill="#dfdfdf"></path><path class="B-pdiL1gwGR7L0T0HaPPZ7W" d="M15.5 25.875a10.286 10.286 0 0 1-8.172-4h-5.4a14.976 14.976 0 0 0 27.126 0h-5.4a10.286 10.286 0 0 1-8.172 4zm0-20.75a10.285 10.285 0 0 1 8.171 4h5.392a14.976 14.976 0 0 0-27.126 0h5.4a10.286 10.286 0 0 1 8.172-4z"></path><path class="C-pdiL1gwGR7L0T0HaPPZ7W" d="M23.3 21.125l-.112.15a9.597 9.597 0 0 1-15.373 0l-.112-.15H1.6l.337.75h5.4a10.347 10.347 0 0 0 16.344 0h5.4l.337-.75zM7.7 9.875l.112-.15a9.597 9.597 0 0 1 15.373 0l.112.15h6.1l-.337-.75h-5.4a10.346 10.346 0 0 0-16.343 0h-5.4l-.337.75z"></path><path d="M17.005 18.098a1.347 1.347 0 0 0-.335-.961 3.036 3.036 0 0 0-1.137-.659 13.416 13.416 0 0 1-1.384-.6 4.408 4.408 0 0 1-.997-.685 2.75 2.75 0 0 1-.648-.909 3.051 3.051 0 0 1-.232-1.244 2.76 2.76 0 0 1 .795-2.039 3.355 3.355 0 0 1 2.113-.927V8.5h1.178v1.597a3.074 3.074 0 0 1 2.039 1.086 3.577 3.577 0 0 1 .736 2.337h-2.127a2.031 2.031 0 0 0-.364-1.321 1.204 1.204 0 0 0-.975-.438 1.24 1.24 0 0 0-.935.342 1.303 1.303 0 0 0-.331.946 1.245 1.245 0 0 0 .324.898 3.568 3.568 0 0 0 1.203.692 13.367 13.367 0 0 1 1.446.666 4.175 4.175 0 0 1 .957.707 2.737 2.737 0 0 1 .596.898 3.087 3.087 0 0 1 .206 1.174 2.748 2.748 0 0 1-.78 2.032 3.422 3.422 0 0 1-2.149.92V22.5h-1.17v-1.457a3.541 3.541 0 0 1-2.337-1.071 3.452 3.452 0 0 1-.828-2.418h2.127a1.957 1.957 0 0 0 .416 1.343 1.517 1.517 0 0 0 1.196.467 1.461 1.461 0 0 0 1.023-.342 1.188 1.188 0 0 0 .375-.924z"></path></svg>