<?xml version="1.0" encoding="iso-8859-1"?>
<svg viewBox="0 0 16 16" class="f1jshrv9" xmlns="http://www.w3.org/2000/svg" xmlns:xlink="http://www.w3.org/1999/xlink"><path class="st0" d="M0.6664369,14.2476015c0.3967298-0.0142965,0.6951708-0.0625467,0.900684-0.1429653   s0.3663497-0.251977,0.4842964-0.5164633c0.1161597-0.2627001,0.175133-0.6799812,0.175133-1.2509508V3.9263706   c0-0.8193724,0.0285931-1.4779081,0.0875664-1.9765011L0.6664369,2.0159912V0.3254215l6.3905678-0.0223384   c1.8299613,0,3.3775649,0.3627755,4.6445985,1.0874331s2.2106075,1.6655506,2.832509,2.8217859   c0.6219006,1.1562352,0.934638,2.3714437,0.934638,3.644732c0,1.2884784-0.2966537,2.5295997-0.8899612,3.7224698   c-0.5933084,1.1937637-1.5297337,2.1766529-2.8110638,2.9522419c-1.2813301,0.7773762-2.887908,1.1651707-4.8197317,1.1651707   H0.6664369V14.2476015z M9.9788666,13.2807961c0.6862354-0.5405893,1.1955509-1.2473755,1.5261593-2.1185732   c0.3288212-0.8711967,0.4932318-1.8192387,0.4932318-2.8441238c0-2.2249041-0.4539165-3.8716908-1.3617487-4.9403591   S8.4473457,1.7747365,6.7943048,1.7747365c-0.4985929,0-0.8542199,0.1242014-1.0650945,0.3734978   C5.5165491,2.3966374,5.4111118,2.8943367,5.4111118,3.6413326v8.4546356c0,0.8193722-0.0303802,1.4779081-0.0893536,1.9747133   c0.0732698-0.0142965,0.2126613-0.0214443,0.4181747-0.0214443l0.9435735,0.0214443   c0.1912169,0.0160837,0.4324713,0.0232325,0.7255511,0.0232325C8.4330492,14.093914,9.2890568,13.8240662,9.9788666,13.2807961z"></path></svg>