<svg width="550" height="805" viewBox="0 0 550 805" fill="none" xmlns="http://www.w3.org/2000/svg">
<g clip-path="url(#clip0_18_419)">
<path d="M530.75 751.333C530.692 760.567 526.907 769.407 520.215 775.937C513.523 782.467 504.464 786.16 495 786.217H55C45.5363 786.16 36.4767 782.467 29.7847 775.937C23.0927 769.407 19.3077 760.567 19.25 751.333V53.6665C19.3077 44.4323 23.0927 35.5922 29.7847 29.0625C36.4767 22.5328 45.5363 18.8395 55 18.7832H495C504.464 18.8395 513.523 22.5328 520.215 29.0625C526.907 35.5922 530.692 44.4323 530.75 53.6665V751.333Z" fill="#3B3B3B"/>
<path d="M495 0H55C40.4131 0 26.4236 5.65415 16.1091 15.7186C5.79463 25.7831 0 39.4334 0 53.6667L0 751.333C0 765.567 5.79463 779.217 16.1091 789.281C26.4236 799.346 40.4131 805 55 805H495C509.587 805 523.576 799.346 533.891 789.281C544.205 779.217 550 765.567 550 751.333V53.6667C550 39.4334 544.205 25.7831 533.891 15.7186C523.576 5.65415 509.587 0 495 0ZM530.75 751.333C530.692 760.568 526.907 769.408 520.215 775.937C513.523 782.467 504.464 786.16 495 786.217H55C45.5363 786.16 36.4767 782.467 29.7847 775.937C23.0927 769.408 19.3077 760.568 19.25 751.333V53.6667C19.3077 44.4324 23.0927 35.5924 29.7847 29.0626C36.4767 22.5329 45.5363 18.8396 55 18.7833H495C504.464 18.8396 513.523 22.5329 520.215 29.0626C526.907 35.5924 530.692 44.4324 530.75 53.6667V751.333Z" fill="white"/>
<path d="M135.245 441.408L453.365 133.63L433.565 114.417C431.782 112.687 429.37 111.715 426.855 111.715C424.34 111.715 421.928 112.687 420.145 114.417L97.4599 426.65C76.6157 446.765 60.1734 470.799 49.1293 497.297C38.0851 523.796 32.6689 552.206 33.2089 580.806C33.7488 609.407 40.2336 637.603 52.2705 663.687C64.3073 689.77 81.6456 713.197 103.235 732.55C127.396 754.377 156.432 770.418 188.045 779.401C170.952 770.788 155.133 759.956 141.02 747.201C119.468 727.837 102.163 704.412 90.1503 678.34C78.1372 652.268 71.6652 624.09 71.1255 595.509C70.5857 566.928 75.9893 538.537 87.0099 512.051C98.0305 485.564 114.439 461.533 135.245 441.408ZM401.5 773.98V786.216H439.45V747.791C427.758 757.773 415.041 766.549 401.5 773.98ZM489.885 759.222C500.206 764.939 510.963 769.873 522.06 773.98C522.665 773.283 523.215 772.531 523.765 771.834C511.74 764.85 500.399 756.801 489.885 747.791V759.222Z" fill="#252525"/>
<path d="M457.93 129.175L453.365 133.63L530.75 208.763V186.652L471.35 129.175C469.567 127.445 467.155 126.474 464.64 126.474C462.125 126.474 459.713 127.445 457.93 129.175ZM401.5 733.033C367.941 761.696 326.538 780.179 282.37 786.216H375.87C384.669 782.668 393.229 778.581 401.5 773.98V733.033ZM202.4 786.216H219.45C208.829 784.752 198.332 782.528 188.045 779.562C192.775 781.977 197.56 784.177 202.4 786.216ZM452.045 733.033V786.216H489.72V759.383C476.291 751.85 463.67 743.022 452.045 733.033Z" fill="#2E2F2F"/>
<path d="M135.245 441.408C114.422 461.535 97.9988 485.573 86.968 512.069C75.9372 538.565 70.5282 566.969 71.068 595.563C71.6078 624.158 78.0853 652.348 90.1087 678.43C102.132 704.512 119.452 727.943 141.02 747.308C155.133 760.063 170.952 770.895 188.045 779.508C198.332 782.474 208.829 784.698 219.45 786.163H282.48C326.604 780.121 367.965 761.658 401.5 733.033V773.98C415.003 766.543 427.683 757.767 439.34 747.791V786.216H452.1V733.033C463.784 742.975 476.461 751.749 489.94 759.222V747.791C500.454 756.801 511.795 764.85 523.82 771.834C528.304 765.892 530.731 758.711 530.75 751.333V208.495L453.365 133.361L135.245 441.408Z" fill="#2E2F2F"/>
<path d="M156.035 277.94L110.935 234.309C110.681 234.078 110.347 233.951 110 233.951C109.653 233.951 109.319 234.078 109.065 234.309L63.965 277.94C61.0211 280.753 58.6973 284.124 57.1363 287.845C55.5753 291.566 54.8099 295.56 54.8872 299.58C54.9644 303.6 55.8826 307.562 57.5855 311.224C59.2884 314.886 61.7401 318.169 64.79 320.873C70.5254 325.87 77.9456 328.633 85.635 328.633C93.3244 328.633 100.745 325.87 106.48 320.873V326.937C106.692 334.734 104.039 342.348 99 348.404H121C115.961 342.348 113.308 334.734 113.52 326.937V320.712C119.255 325.709 126.676 328.472 134.365 328.472C142.054 328.472 149.475 325.709 155.21 320.712C158.234 318.01 160.664 314.736 162.351 311.089C164.039 307.442 164.949 303.499 165.026 299.498C165.103 295.498 164.346 291.524 162.8 287.818C161.255 284.112 158.953 280.751 156.035 277.94ZM124.355 53.6665H153.34V148.496C153.533 156.621 151.481 164.648 147.4 171.733C143.48 178.404 137.65 183.813 130.625 187.297C123.023 190.968 114.631 192.808 106.15 192.663C93.572 193.398 81.18 189.426 71.5 181.554C67.2195 177.529 63.8787 172.65 61.7052 167.251C59.5317 161.852 58.5766 156.059 58.905 150.267H88C87.5745 155.586 89.116 160.879 92.345 165.186C94.1423 166.914 96.3024 168.24 98.6764 169.074C101.05 169.908 103.581 170.229 106.095 170.016C108.576 170.153 111.057 169.742 113.352 168.812C115.647 167.883 117.697 166.46 119.35 164.649C122.926 160.139 124.687 154.508 124.3 148.818L124.355 53.6665ZM410.135 370.89H456.83V614.054C456.83 646.898 446.71 672.604 426.47 691.173C406.23 709.741 379.28 719.062 345.62 719.133C310.64 719.133 283.433 710.35 264 692.783C244.567 675.216 234.813 650.78 234.74 619.474H281.16C281.16 639.116 286.66 654.447 297.66 665.467C308.66 676.486 324.647 681.978 345.62 681.942C354.204 682.288 362.769 680.898 370.776 677.86C378.784 674.821 386.061 670.2 392.15 664.286C403.993 652.479 409.988 635.968 410.135 614.752V370.89Z" fill="white"/>
</g>
<defs>
<clipPath id="clip0_18_419">
<rect width="550" height="805" fill="white"/>
</clipPath>
</defs>
</svg>
