<svg width="550" height="805" viewBox="0 0 550 805" fill="none" xmlns="http://www.w3.org/2000/svg">
<g clip-path="url(#clip0_18_462)">
<path d="M530.75 751.333C530.692 760.567 526.907 769.407 520.215 775.937C513.523 782.467 504.464 786.16 495 786.217H55C45.5363 786.16 36.4767 782.467 29.7847 775.937C23.0927 769.407 19.3077 760.567 19.25 751.333V53.6665C19.3077 44.4323 23.0927 35.5922 29.7847 29.0625C36.4767 22.5328 45.5363 18.8395 55 18.7832H495C504.464 18.8395 513.523 22.5328 520.215 29.0625C526.907 35.5922 530.692 44.4323 530.75 53.6665V751.333Z" fill="#3A992C"/>
<path d="M495 0H55C40.4131 0 26.4236 5.65415 16.1091 15.7186C5.79463 25.7831 0 39.4334 0 53.6667L0 751.333C0 765.567 5.79463 779.217 16.1091 789.281C26.4236 799.346 40.4131 805 55 805H495C509.587 805 523.576 799.346 533.891 789.281C544.205 779.217 550 765.567 550 751.333V53.6667C550 39.4334 544.205 25.7831 533.891 15.7186C523.576 5.65415 509.587 0 495 0ZM530.75 751.333C530.692 760.568 526.907 769.408 520.215 775.937C513.523 782.467 504.464 786.16 495 786.217H55C45.5363 786.16 36.4767 782.467 29.7847 775.937C23.0927 769.408 19.3077 760.568 19.25 751.333V53.6667C19.3077 44.4324 23.0927 35.5924 29.7847 29.0626C36.4767 22.5329 45.5363 18.8396 55 18.7833H495C504.464 18.8396 513.523 22.5329 520.215 29.0626C526.907 35.5924 530.692 44.4324 530.75 53.6667V751.333Z" fill="white"/>
<path d="M456.17 741.888C456.642 743.476 456.9 745.118 456.94 746.771L472.505 758.31L456.17 741.888ZM370.48 775.536L367.895 786.27H403.425C406.154 771.552 407.845 756.67 408.485 741.727C396.936 754.139 384.211 765.459 370.48 775.536ZM198.88 254.004C198.88 311.427 224.895 377.062 263.23 426.435C235.182 415.681 205.364 409.989 175.23 409.637C145.332 409.591 115.803 416.079 88.8117 428.626C61.8201 441.172 38.0511 459.458 19.25 482.141V554.967C34.6374 519.147 60.5047 488.547 93.6179 466.994C126.731 445.441 165.621 433.891 205.425 433.787C235.557 434.161 265.37 439.851 293.425 450.585C254.925 401.212 228.855 335.524 229.075 278.154C229.625 167.064 320.925 78.2456 431.805 78.7286C466.6 78.854 500.746 87.9241 530.805 105.025V101.966C494.89 71.6042 449.02 54.7938 401.5 54.5786C290.62 54.0419 199.43 142.914 198.88 254.004ZM63.58 777.468C44.7252 759.228 29.6712 737.595 19.25 713.766V738.346C31.9599 753.437 46.8783 766.619 63.525 777.468H63.58Z" fill="#297A38"/>
<path d="M73.15 786.217H78.21L63.58 777.469L73.15 786.217ZM506 784.607C508.284 783.857 510.494 782.905 512.6 781.762C498.729 774.944 485.4 767.122 472.725 758.364C483.148 767.889 494.269 776.66 506 784.607ZM425.975 717.738C428.291 740.789 432.075 763.678 437.305 786.27H462L456.5 746.825C445.528 737.959 435.319 728.231 425.975 717.738ZM378.235 717.523C350.826 746.715 317.559 770.097 280.5 786.217H355.19C360.69 782.836 365.475 779.24 370.48 775.483C374.765 756.398 377.359 736.989 378.235 717.47V717.523Z" fill="#328840"/>
<path d="M229.075 278.154C229.075 335.578 255.09 401.266 293.425 450.585C265.37 439.852 235.557 434.161 205.425 433.788C165.621 433.891 126.731 445.442 93.6179 466.995C60.5047 488.548 34.6374 519.147 19.25 554.967V713.767C29.6424 737.629 44.6782 759.299 63.525 777.576C68.255 780.689 73.15 783.641 78.155 786.324H280.5C317.662 770.22 351.026 746.818 378.51 717.577C377.637 737.114 375.043 756.541 370.755 775.644C384.488 765.55 397.213 754.212 408.76 741.781C408.12 756.724 406.429 771.607 403.7 786.324H437.58C432.35 763.731 428.566 740.843 426.25 717.792C435.734 728.302 446.091 738.03 457.215 746.879C457.175 745.225 456.917 743.584 456.445 741.995C461.56 747.684 467.06 753.104 472.945 758.417C485.62 767.176 498.949 774.997 512.82 781.816C518.287 778.717 522.822 774.269 525.97 768.918C529.117 763.567 530.766 757.503 530.75 751.333V105.026C500.691 87.9245 466.545 78.8544 431.75 78.729C320.87 78.1923 229.625 167.064 229.075 278.154Z" fill="#328840"/>
<path d="M119.955 337.778H100.265C106.7 331.392 106.975 318.458 106.975 318.458C103.636 322.039 99.6033 324.94 95.1102 326.994C90.6171 329.048 85.752 330.214 80.795 330.426C73.837 330.426 67.1641 327.729 62.2441 322.928C57.324 318.127 54.56 311.616 54.56 304.827C54.56 298.038 57.324 291.526 62.2441 286.726C67.1641 281.925 73.837 279.228 80.795 279.228C84.5594 279.288 88.2833 279.996 91.795 281.321C86.7283 275.015 83.8057 267.323 83.435 259.318C83.2738 255.911 83.8223 252.508 85.0473 249.314C86.2723 246.12 88.1484 243.201 90.5621 240.735C92.9758 238.269 95.877 236.305 99.0904 234.964C102.304 233.623 105.762 232.931 109.257 232.931C112.753 232.931 116.211 233.623 119.425 234.964C122.638 236.305 125.539 238.269 127.953 240.735C130.367 243.201 132.243 246.12 133.468 249.314C134.693 252.508 135.241 255.911 135.08 259.318C134.78 267.471 131.769 275.308 126.5 281.643C130.521 279.98 134.838 279.105 139.205 279.067C146.163 279.067 152.836 281.764 157.756 286.565C162.676 291.366 165.44 297.877 165.44 304.666C165.44 311.455 162.676 317.966 157.756 322.767C152.836 327.568 146.163 330.265 139.205 330.265C134.255 330.073 129.393 328.926 124.899 326.89C120.406 324.855 116.37 321.971 113.025 318.405C113.3 318.566 113.52 331.285 119.955 337.778ZM124.3 53.667H153.34V148.496C153.533 156.622 151.481 164.648 147.4 171.734C143.48 178.404 137.65 183.813 130.625 187.297C123.021 190.963 114.63 192.802 106.15 192.664C93.5719 193.399 81.1799 189.426 71.5 181.555C67.2125 177.532 63.8634 172.655 61.6805 167.256C59.4976 161.857 58.5322 156.063 58.85 150.267H88C87.5745 155.587 89.1159 160.88 92.345 165.186C94.1422 166.914 96.3024 168.241 98.6763 169.075C101.05 169.909 103.581 170.23 106.095 170.016C108.576 170.153 111.057 169.742 113.352 168.813C115.647 167.883 117.697 166.46 119.35 164.65C122.907 160.132 124.648 154.501 124.245 148.818L124.3 53.667ZM410.135 370.622H456.83V613.786C456.83 646.63 446.71 672.336 426.47 690.905C406.23 709.474 379.28 718.758 345.62 718.758C310.64 718.758 283.415 710.028 263.945 692.569C244.475 675.109 234.722 650.655 234.685 619.206H281.105C281.105 638.848 286.605 654.179 297.605 665.199C308.605 676.218 324.61 681.674 345.62 681.567C354.209 681.916 362.779 680.522 370.788 677.473C378.797 674.425 386.071 669.788 392.15 663.857C403.993 652.05 409.988 635.539 410.135 614.323V370.622Z" fill="white"/>
</g>
<defs>
<clipPath id="clip0_18_462">
<rect width="550" height="805" fill="white"/>
</clipPath>
</defs>
</svg>
