<svg width="550" height="805" viewBox="0 0 550 805" fill="none" xmlns="http://www.w3.org/2000/svg">
<g clip-path="url(#clip0_18_412)">
<path d="M530.75 751.333C530.692 760.567 526.907 769.407 520.215 775.937C513.523 782.467 504.464 786.16 495 786.217H55C45.5363 786.16 36.4767 782.467 29.7847 775.937C23.0927 769.407 19.3077 760.567 19.25 751.333V53.6665C19.3077 44.4323 23.0927 35.5922 29.7847 29.0625C36.4767 22.5328 45.5363 18.8395 55 18.7832H495C504.464 18.8395 513.523 22.5328 520.215 29.0625C526.907 35.5922 530.692 44.4323 530.75 53.6665V751.333Z" fill="#3A992C"/>
<path d="M495 0H55C40.4131 0 26.4236 5.65415 16.1091 15.7186C5.79463 25.7831 0 39.4334 0 53.6667L0 751.333C0 765.567 5.79463 779.217 16.1091 789.281C26.4236 799.346 40.4131 805 55 805H495C509.587 805 523.576 799.346 533.891 789.281C544.205 779.217 550 765.567 550 751.333V53.6667C550 39.4334 544.205 25.7831 533.891 15.7186C523.576 5.65415 509.587 0 495 0ZM530.75 751.333C530.692 760.568 526.907 769.408 520.215 775.937C513.523 782.467 504.464 786.16 495 786.217H55C45.5363 786.16 36.4767 782.467 29.7847 775.937C23.0927 769.408 19.3077 760.568 19.25 751.333V53.6667C19.3077 44.4324 23.0927 35.5924 29.7847 29.0626C36.4767 22.5329 45.5363 18.8396 55 18.7833H495C504.464 18.8396 513.523 22.5329 520.215 29.0626C526.907 35.5924 530.692 44.4324 530.75 53.6667V751.333Z" fill="white"/>
<path d="M370.48 775.483L367.895 786.216H403.425C406.154 771.499 407.845 756.616 408.485 741.673C396.936 754.085 384.211 765.405 370.48 775.483ZM198.88 254.004C198.88 311.427 224.895 377.062 263.23 426.435C235.182 415.681 205.364 409.989 175.23 409.637C145.332 409.591 115.803 416.079 88.8117 428.626C61.8201 441.172 38.0511 459.458 19.25 482.141V554.967C34.6374 519.147 60.5047 488.547 93.6179 466.994C126.731 445.441 165.621 433.891 205.425 433.787C235.557 434.161 265.37 439.851 293.425 450.585C254.925 401.212 228.855 335.524 229.075 278.154C229.625 167.064 320.925 78.2456 431.805 78.7286C466.6 78.854 500.746 87.9241 530.805 105.025V101.966C494.89 71.6042 449.02 54.7938 401.5 54.5786C290.62 54.0419 199.43 142.914 198.88 254.004ZM63.58 777.469C44.7252 759.228 29.6712 737.595 19.25 713.766V738.346C31.9599 753.437 46.8783 766.619 63.525 777.469H63.58ZM456.28 741.888C456.752 743.476 457.01 745.118 457.05 746.771L472.615 758.31L456.28 741.888Z" fill="#297A38"/>
<path d="M73.1501 786.217H78.2101L63.5801 777.469L73.1501 786.217ZM425.975 717.684C428.291 740.736 432.075 763.624 437.305 786.217H462L456.5 746.772C445.529 737.905 435.319 728.177 425.975 717.684ZM506 784.607C508.285 783.857 510.494 782.905 512.6 781.762C498.729 774.944 485.4 767.122 472.725 758.364C483.148 767.889 494.269 776.66 506 784.607ZM378.235 717.523C350.826 746.715 317.559 770.097 280.5 786.217H355.19C360.69 782.836 365.475 779.24 370.48 775.483C374.765 756.398 377.359 736.989 378.235 717.47V717.523Z" fill="#328840"/>
<path d="M229.075 278.154C229.075 335.578 255.09 401.266 293.425 450.585C265.37 439.852 235.557 434.161 205.425 433.788C165.621 433.891 126.731 445.442 93.6179 466.995C60.5047 488.548 34.6374 519.147 19.25 554.967V713.767C29.6424 737.629 44.6782 759.299 63.525 777.576C68.255 780.689 73.15 783.641 78.155 786.324H280.5C317.662 770.22 351.026 746.818 378.51 717.577C377.637 737.114 375.043 756.541 370.755 775.644C384.488 765.55 397.213 754.212 408.76 741.781C408.12 756.724 406.429 771.607 403.7 786.324H437.58C432.35 763.731 428.566 740.843 426.25 717.792C435.734 728.302 446.091 738.03 457.215 746.879C457.175 745.225 456.917 743.584 456.445 741.995C461.56 747.684 467.06 753.104 472.945 758.417C485.62 767.176 498.949 774.997 512.82 781.816C518.287 778.717 522.822 774.269 525.97 768.918C529.117 763.567 530.766 757.503 530.75 751.333V105.026C500.691 87.9245 466.545 78.8544 431.75 78.729C320.87 78.1923 229.625 167.064 229.075 278.154Z" fill="#328840"/>
<path d="M119.9 337.778H100.21C106.645 331.338 106.92 318.458 106.92 318.458C103.581 322.039 99.5482 324.94 95.0551 326.994C90.562 329.048 85.6969 330.214 80.7399 330.426C73.7819 330.426 67.109 327.729 62.1889 322.928C57.2689 318.127 54.5049 311.616 54.5049 304.827C54.5049 298.038 57.2689 291.527 62.1889 286.726C67.109 281.925 73.7819 279.228 80.7399 279.228C84.5043 279.288 88.2282 279.996 91.7399 281.321C86.6732 275.015 83.7506 267.323 83.3799 259.318C83.2187 255.911 83.7672 252.508 84.9922 249.314C86.2172 246.12 88.0933 243.201 90.507 240.735C92.9207 238.269 95.8219 236.305 99.0353 234.964C102.249 233.623 105.707 232.931 109.202 232.931C112.697 232.931 116.156 233.623 119.37 234.964C122.583 236.305 125.484 238.269 127.898 240.735C130.312 243.201 132.188 246.12 133.413 249.314C134.638 252.508 135.186 255.911 135.025 259.318C134.741 267.465 131.749 275.301 126.5 281.643C130.521 279.98 134.838 279.105 139.205 279.067C146.163 279.067 152.836 281.764 157.756 286.565C162.676 291.366 165.44 297.877 165.44 304.666C165.44 311.455 162.676 317.966 157.756 322.767C152.836 327.568 146.163 330.265 139.205 330.265C134.255 330.073 129.392 328.926 124.899 326.89C120.405 324.855 116.37 321.971 113.025 318.405C113.3 318.566 113.575 331.285 119.955 337.725L119.9 337.778ZM111.65 135.67L96.5799 151.501V190.678H67.6499V53.667H96.6349V115.92L109.395 98.8543L145.2 53.667H180.95L130.9 114.418L182.325 190.732H147.84L111.65 135.67ZM314.93 554.377L271.92 598.008V714.035H225.5V370.569H271.92V540.424L428.285 370.622H484.385L345.785 522.284L495 714.035H439.67L314.93 554.377Z" fill="white"/>
</g>
<defs>
<clipPath id="clip0_18_412">
<rect width="550" height="805" fill="white"/>
</clipPath>
</defs>
</svg>
