<svg width="550" height="805" viewBox="0 0 550 805" fill="none" xmlns="http://www.w3.org/2000/svg">
<g clip-path="url(#clip0_18_450)">
<path d="M530.75 751.333C530.692 760.567 526.907 769.407 520.215 775.937C513.523 782.467 504.464 786.16 495 786.217H55C45.5363 786.16 36.4767 782.467 29.7847 775.937C23.0927 769.407 19.3077 760.567 19.25 751.333V53.6665C19.3077 44.4323 23.0927 35.5922 29.7847 29.0625C36.4767 22.5328 45.5363 18.8395 55 18.7832H495C504.464 18.8395 513.523 22.5328 520.215 29.0625C526.907 35.5922 530.692 44.4323 530.75 53.6665V751.333Z" fill="#3B3B3B"/>
<path d="M495 0H55C40.4131 0 26.4236 5.65415 16.1091 15.7186C5.79463 25.7831 0 39.4334 0 53.6667L0 751.333C0 765.567 5.79463 779.217 16.1091 789.281C26.4236 799.346 40.4131 805 55 805H495C509.587 805 523.576 799.346 533.891 789.281C544.205 779.217 550 765.567 550 751.333V53.6667C550 39.4334 544.205 25.7831 533.891 15.7186C523.576 5.65415 509.587 0 495 0ZM530.75 751.333C530.692 760.568 526.907 769.408 520.215 775.937C513.523 782.467 504.464 786.16 495 786.217H55C45.5363 786.16 36.4767 782.467 29.7847 775.937C23.0927 769.408 19.3077 760.568 19.25 751.333V53.6667C19.3077 44.4324 23.0927 35.5924 29.7847 29.0626C36.4767 22.5329 45.5363 18.8396 55 18.7833H495C504.464 18.8396 513.523 22.5329 520.215 29.0626C526.907 35.5924 530.692 44.4324 530.75 53.6667V751.333Z" fill="white"/>
<path d="M135.245 441.408L453.365 133.63L433.565 114.417C431.782 112.687 429.37 111.715 426.855 111.715C424.34 111.715 421.928 112.687 420.145 114.417L97.4599 426.65C76.6157 446.765 60.1734 470.799 49.1293 497.297C38.0851 523.796 32.6689 552.206 33.2089 580.806C33.7488 609.407 40.2336 637.603 52.2705 663.687C64.3073 689.77 81.6456 713.197 103.235 732.55C127.396 754.377 156.432 770.418 188.045 779.401C170.952 770.788 155.133 759.956 141.02 747.201C119.468 727.837 102.163 704.412 90.1503 678.34C78.1372 652.268 71.6652 624.09 71.1255 595.509C70.5857 566.928 75.9893 538.537 87.0099 512.051C98.0305 485.564 114.439 461.533 135.245 441.408ZM489.885 759.222C500.206 764.939 510.963 769.873 522.06 773.98C522.665 773.283 523.215 772.531 523.765 771.834C511.74 764.85 500.399 756.801 489.885 747.791V759.222ZM401.5 773.98V786.216H439.45V747.791C427.758 757.773 415.041 766.549 401.5 773.98Z" fill="#252525"/>
<path d="M452.045 733.033V786.216H489.72V759.383C476.291 751.85 463.67 743.022 452.045 733.033ZM457.93 129.175L453.365 133.63L530.75 208.763V186.652L471.35 129.175C469.567 127.445 467.155 126.474 464.64 126.474C462.125 126.474 459.713 127.445 457.93 129.175ZM401.5 733.033C367.941 761.696 326.538 780.179 282.37 786.216H375.87C384.669 782.668 393.229 778.581 401.5 773.98V733.033ZM202.4 786.216H219.45C208.829 784.752 198.332 782.528 188.045 779.562C192.775 781.977 197.56 784.177 202.4 786.216Z" fill="#2E2F2F"/>
<path d="M135.245 441.408C114.422 461.535 97.9988 485.573 86.968 512.069C75.9372 538.565 70.5282 566.969 71.068 595.563C71.6078 624.158 78.0853 652.348 90.1087 678.43C102.132 704.512 119.452 727.943 141.02 747.308C155.133 760.063 170.952 770.895 188.045 779.508C198.332 782.474 208.829 784.698 219.45 786.163H282.48C326.604 780.121 367.965 761.658 401.5 733.033V773.98C415.003 766.543 427.683 757.767 439.34 747.791V786.216H452.1V733.033C463.784 742.975 476.461 751.749 489.94 759.222V747.791C500.454 756.801 511.795 764.85 523.82 771.834C528.304 765.892 530.731 758.711 530.75 751.333V208.495L453.365 133.361L135.245 441.408Z" fill="#2E2F2F"/>
<path d="M156.035 277.939L110.935 234.308C110.681 234.078 110.347 233.951 110 233.951C109.653 233.951 109.319 234.078 109.065 234.308L63.965 277.939C61.0211 280.753 58.6973 284.124 57.1363 287.845C55.5753 291.566 54.8099 295.56 54.8872 299.58C54.9644 303.6 55.8826 307.562 57.5855 311.224C59.2884 314.885 61.7401 318.169 64.79 320.873C70.5254 325.87 77.9456 328.633 85.635 328.633C93.3244 328.633 100.745 325.87 106.48 320.873V326.937C106.692 334.734 104.039 342.348 99 348.404H121C115.961 342.348 113.308 334.734 113.52 326.937V320.712C119.255 325.709 126.676 328.472 134.365 328.472C142.054 328.472 149.475 325.709 155.21 320.712C158.234 318.01 160.664 314.736 162.351 311.089C164.039 307.442 164.949 303.499 165.026 299.498C165.103 295.498 164.346 291.524 162.8 287.818C161.255 284.112 158.953 280.751 156.035 277.939ZM183.04 125.204C183.297 136.659 181.125 148.042 176.66 158.638C172.808 167.554 166.717 175.379 158.95 181.393L182.325 199.318L163.845 215.418L133.925 191.965C130.396 192.508 126.828 192.777 123.255 192.77C112.264 192.963 101.439 190.136 92.015 184.613C82.7198 178.942 75.3373 170.731 70.785 161C65.5565 150.032 62.9428 138.05 63.14 125.955V119.14C62.8654 106.847 65.4215 94.6516 70.62 83.4515C75.1263 73.694 82.4949 65.4583 91.795 59.7845C101.21 54.1841 112.065 51.3173 123.09 51.5198C134.096 51.3246 144.932 54.1912 154.33 59.7845C163.63 65.4583 170.999 73.694 175.505 83.4515C180.712 94.6128 183.287 106.772 183.04 119.032V125.204ZM153.615 118.979C154.385 107.506 151.627 96.0693 145.695 86.1348C143.214 82.5598 139.83 79.6692 135.871 77.7421C131.911 75.815 127.509 74.9164 123.09 75.1331C118.708 74.917 114.341 75.7881 110.398 77.6651C106.454 79.5421 103.063 82.3637 100.54 85.8665C94.6023 95.6843 91.8061 107.009 92.51 118.388V125.097C91.8335 136.494 94.5864 147.836 100.43 157.726C102.862 161.439 106.25 164.463 110.255 166.498C114.261 168.532 118.744 169.504 123.255 169.318C127.665 169.51 132.052 168.583 135.985 166.626C139.918 164.67 143.264 161.751 145.695 158.155C151.557 148.272 154.311 136.925 153.615 125.526V118.979ZM464.31 553.679C464.997 583.11 459.377 612.357 447.81 639.545C438.264 662.018 422.543 681.481 402.38 695.788L465.245 744.088L433.565 772.585L359.645 714.732C347.624 717.615 335.284 719.039 322.905 718.972C296.814 719.615 271.118 712.658 249.097 698.989C227.076 685.32 209.727 665.56 199.265 642.229C186.937 615.348 180.708 586.186 181.005 556.738V531.944C180.399 501.887 186.42 472.055 198.66 444.467C208.803 420.771 226.044 400.616 248.126 386.645C270.208 372.673 296.1 365.535 322.41 366.167C348.827 365.688 374.816 372.718 397.21 386.4C419.194 400.407 436.422 420.467 446.71 444.038C458.87 471.775 464.815 501.728 464.145 531.89L464.31 553.679ZM418 531.3C418 490.871 409.75 459.691 393.25 437.759C376.75 415.827 353.137 404.933 322.41 405.076C309.051 404.605 295.778 407.338 283.754 413.036C271.729 418.734 261.32 427.223 253.44 437.759C236.537 459.547 227.865 489.762 227.425 528.402V553.679C227.425 593.034 235.84 624 252.67 646.576C260.533 657.517 271.081 666.359 283.351 672.294C295.621 678.229 309.221 681.066 322.905 680.547C352.862 680.547 376.072 669.813 392.535 648.347C408.998 626.88 417.487 596.415 418 556.952V531.3Z" fill="white"/>
</g>
<defs>
<clipPath id="clip0_18_450">
<rect width="550" height="805" fill="white"/>
</clipPath>
</defs>
</svg>
