<svg width="550" height="805" viewBox="0 0 550 805" fill="none" xmlns="http://www.w3.org/2000/svg">
<g clip-path="url(#clip0_18_346)">
<path d="M530.75 751.333C530.692 760.567 526.907 769.407 520.215 775.937C513.523 782.467 504.464 786.16 495 786.217H55C45.5363 786.16 36.4767 782.467 29.7847 775.937C23.0927 769.407 19.3077 760.567 19.25 751.333V53.6665C19.3077 44.4323 23.0927 35.5922 29.7847 29.0625C36.4767 22.5328 45.5363 18.8395 55 18.7832H495C504.464 18.8395 513.523 22.5328 520.215 29.0625C526.907 35.5922 530.692 44.4323 530.75 53.6665V751.333Z" fill="#E22521"/>
<path d="M483.395 268.333L470.415 281.75C469.992 282.209 469.475 282.577 468.897 282.828C468.319 283.08 467.693 283.21 467.06 283.21C466.427 283.21 465.801 283.08 465.223 282.828C464.645 282.577 464.128 282.209 463.705 281.75L451 268.333C357.17 171.733 201.41 169.587 109.45 267.85C20.295 363.055 21.4499 514.717 112.64 608.473L285.395 786.109H286.935L142.175 637.614C50.8749 543.751 49.83 392.25 138.985 296.991C231 198.567 386.76 201.089 480.535 297.528L493.46 310.837C493.897 311.284 494.421 311.639 495.003 311.882C495.584 312.125 496.21 312.25 496.842 312.25C497.475 312.25 498.101 312.125 498.682 311.882C499.264 311.639 499.788 311.284 500.225 310.837L513.15 297.528C518.65 291.678 524.7 286.258 530.75 281.106V230.767C513.414 241.304 497.505 253.925 483.395 268.333Z" fill="#B31F23"/>
<path d="M513.15 297.528L500.5 310.837C500.063 311.284 499.539 311.639 498.957 311.882C498.376 312.125 497.75 312.25 497.118 312.25C496.485 312.25 495.859 312.125 495.278 311.882C494.696 311.639 494.172 311.284 493.735 310.837L480.81 297.528C387.035 200.928 231.275 198.781 139.26 296.991C50.105 392.249 51.26 543.858 142.45 637.613L286.715 786.216H495C504.464 786.16 513.523 782.467 520.215 775.937C526.907 769.407 530.692 760.567 530.75 751.333V281.106C524.7 286.258 518.815 291.678 513.15 297.528Z" fill="#C72325"/>
<path d="M156.42 243.11C153.593 240.128 150.165 237.749 146.35 236.122C142.536 234.495 138.418 233.655 134.255 233.655C130.092 233.655 125.974 234.495 122.16 236.122C118.345 237.749 114.917 240.128 112.09 243.11L110.44 244.881C110.319 244.986 110.162 245.045 110 245.045C109.838 245.045 109.681 244.986 109.56 244.881L107.91 243.11C105.083 240.128 101.655 237.749 97.8403 236.122C94.0259 234.495 89.9079 233.655 85.745 233.655C81.582 233.655 77.464 234.495 73.6497 236.122C69.8353 237.749 66.407 240.128 63.58 243.11C57.9897 249.204 54.931 257.114 55.0022 265.293C55.0734 273.472 58.2694 281.33 63.965 287.331L109.12 333.699C109.228 333.824 109.363 333.924 109.515 333.992C109.667 334.061 109.833 334.096 110 334.096C110.167 334.096 110.333 334.061 110.485 333.992C110.637 333.924 110.772 333.824 110.88 333.699L156.035 287.331C161.731 281.33 164.927 273.472 164.998 265.293C165.069 257.114 162.01 249.204 156.42 243.11ZM182.985 125.204C183.268 136.661 181.095 148.049 176.605 158.638C172.791 167.56 166.716 175.39 158.95 181.393L182.325 199.318L163.845 215.418L133.87 191.965C130.359 192.51 126.81 192.78 123.255 192.77C112.267 192.937 101.449 190.112 92.015 184.613C82.7197 178.942 75.3373 170.731 70.785 161C65.5565 150.032 62.9427 138.05 63.14 125.955V119.14C62.8653 106.847 65.4214 94.6516 70.62 83.4515C75.1262 73.694 82.4948 65.4583 91.795 59.7845C101.21 54.1841 112.065 51.3173 123.09 51.5198C134.096 51.3246 144.932 54.1912 154.33 59.7845C163.63 65.4583 170.999 73.694 175.505 83.4515C180.693 94.6171 183.249 106.776 182.985 119.032V125.204ZM153.615 118.979C154.385 107.506 151.627 96.0693 145.695 86.1348C143.214 82.5598 139.83 79.6692 135.871 77.7421C131.911 75.815 127.509 74.9164 123.09 75.1331C118.708 74.917 114.341 75.7881 110.398 77.6651C106.454 79.5421 103.063 82.3637 100.54 85.8665C94.6023 95.6843 91.806 107.009 92.51 118.388V125.097C91.8334 136.494 94.5863 147.836 100.43 157.726C102.862 161.439 106.25 164.463 110.255 166.498C114.261 168.532 118.743 169.504 123.255 169.318C127.665 169.51 132.051 168.583 135.985 166.626C139.918 164.67 143.264 161.751 145.695 158.155C151.557 148.272 154.311 136.925 153.615 125.526V118.979Z" fill="white"/>
<path d="M495 0H55C40.4131 0 26.4236 5.65415 16.1091 15.7186C5.79463 25.7831 0 39.4334 0 53.6667L0 751.333C0 765.567 5.79463 779.217 16.1091 789.281C26.4236 799.346 40.4131 805 55 805H495C509.587 805 523.576 799.346 533.891 789.281C544.205 779.217 550 765.567 550 751.333V53.6667C550 39.4334 544.205 25.7831 533.891 15.7186C523.576 5.65415 509.587 0 495 0ZM530.75 751.333C530.692 760.568 526.907 769.408 520.215 775.937C513.523 782.467 504.464 786.16 495 786.217H55C45.5363 786.16 36.4767 782.467 29.7847 775.937C23.0927 769.408 19.3077 760.568 19.25 751.333V53.6667C19.3077 44.4324 23.0927 35.5924 29.7847 29.0626C36.4767 22.5329 45.5363 18.8396 55 18.7833H495C504.464 18.8396 513.523 22.5329 520.215 29.0626C526.907 35.5924 530.692 44.4324 530.75 53.6667V751.333Z" fill="white"/>
<path d="M464.31 547.776C464.994 577.207 459.374 606.453 447.81 633.643C438.264 656.115 422.543 675.578 402.38 689.885L465.245 738.185L433.565 766.736L359.645 708.883C347.624 711.766 335.284 713.19 322.905 713.123C296.805 713.776 271.098 706.817 249.074 693.136C227.049 679.456 209.706 659.676 199.265 636.326C186.923 609.45 180.694 580.284 181.005 550.835V525.934C180.393 495.877 186.415 466.043 198.66 438.457C208.777 414.743 226.013 394.572 248.101 380.596C270.188 366.621 296.094 359.496 322.41 360.157C348.805 359.614 374.792 366.569 397.21 380.175C419.209 394.189 436.44 414.271 446.71 437.867C458.958 465.658 464.959 495.688 464.31 525.934V547.776ZM418 525.612C418 485.183 409.75 454.02 393.25 432.124C376.75 410.228 353.137 399.263 322.41 399.227C309.057 398.754 295.788 401.481 283.765 407.169C271.742 412.858 261.33 421.334 253.44 431.856C236.537 453.645 227.865 483.877 227.425 522.553V547.776C227.425 587.132 235.84 618.115 252.67 640.727C260.536 651.664 271.086 660.504 283.355 666.438C295.624 672.372 309.221 675.212 322.905 674.698C352.862 674.698 376.072 663.964 392.535 642.498C408.998 621.031 417.487 590.566 418 551.103V525.612Z" fill="white"/>
</g>
<defs>
<clipPath id="clip0_18_346">
<rect width="550" height="805" fill="white"/>
</clipPath>
</defs>
</svg>
