<svg width="550" height="805" viewBox="0 0 550 805" fill="none" xmlns="http://www.w3.org/2000/svg">
<g clip-path="url(#clip0_18_374)">
<path d="M530.75 751.333C530.692 760.567 526.907 769.407 520.215 775.937C513.523 782.467 504.464 786.16 495 786.217H55C45.5363 786.16 36.4767 782.467 29.7847 775.937C23.0927 769.407 19.3077 760.567 19.25 751.333V53.6665C19.3077 44.4323 23.0927 35.5922 29.7847 29.0625C36.4767 22.5328 45.5363 18.8395 55 18.7832H495C504.464 18.8395 513.523 22.5328 520.215 29.0625C526.907 35.5922 530.692 44.4323 530.75 53.6665V751.333Z" fill="#3A992C"/>
<path d="M495 0H55C40.4131 0 26.4236 5.65415 16.1091 15.7186C5.79463 25.7831 0 39.4334 0 53.6667L0 751.333C0 765.567 5.79463 779.217 16.1091 789.281C26.4236 799.346 40.4131 805 55 805H495C509.587 805 523.576 799.346 533.891 789.281C544.205 779.217 550 765.567 550 751.333V53.6667C550 39.4334 544.205 25.7831 533.891 15.7186C523.576 5.65415 509.587 0 495 0ZM530.75 751.333C530.692 760.568 526.907 769.408 520.215 775.937C513.523 782.467 504.464 786.16 495 786.217H55C45.5363 786.16 36.4767 782.467 29.7847 775.937C23.0927 769.408 19.3077 760.568 19.25 751.333V53.6667C19.3077 44.4324 23.0927 35.5924 29.7847 29.0626C36.4767 22.5329 45.5363 18.8396 55 18.7833H495C504.464 18.8396 513.523 22.5329 520.215 29.0626C526.907 35.5924 530.692 44.4324 530.75 53.6667V751.333Z" fill="white"/>
<path d="M63.525 777.468C44.69 759.223 29.6548 737.59 19.25 713.766V738.346C31.9599 753.437 46.8783 766.619 63.525 777.468ZM198.88 254.004C198.88 311.374 224.895 377.062 263.175 426.435C235.127 415.681 205.309 409.989 175.175 409.637C145.286 409.599 115.768 416.091 88.7869 428.637C61.8054 441.183 38.0453 459.465 19.25 482.141V554.967C34.6374 519.147 60.5047 488.547 93.6179 466.994C126.731 445.441 165.621 433.891 205.425 433.787C235.557 434.161 265.37 439.851 293.425 450.585C254.925 401.265 228.855 335.524 229.13 278.154C229.68 167.064 320.925 78.2456 431.86 78.7286C466.655 78.854 500.801 87.9241 530.86 105.025V101.966C494.93 71.5922 449.038 54.7809 401.5 54.5786C290.62 54.0419 199.43 142.914 198.88 254.004ZM370.48 775.536C369.71 779.025 368.83 782.62 367.895 786.27H403.425C406.154 771.552 407.845 756.67 408.485 741.727C396.936 754.139 384.211 765.459 370.48 775.536ZM456.17 741.888C456.642 743.476 456.9 745.118 456.94 746.771C461.945 750.742 467.17 754.553 472.505 758.31C466.785 752.997 461.285 747.576 456.17 741.888Z" fill="#297A38"/>
<path d="M378.235 717.47C350.831 746.681 317.564 770.081 280.5 786.217H355.19C360.69 782.836 365.475 779.24 370.48 775.483C374.765 756.398 377.359 736.989 378.235 717.47ZM425.975 717.684C428.291 740.736 432.075 763.624 437.305 786.217H462C458.81 768.453 457.49 754.017 456.5 746.772C445.528 737.905 435.319 728.177 425.975 717.684ZM73.095 786.217H78.155C73.15 783.533 68.255 780.582 63.525 777.469C66.605 780.474 69.795 783.533 73.095 786.217ZM506 784.553C508.284 783.804 510.494 782.852 512.6 781.709C498.729 774.89 485.4 767.069 472.725 758.31C483.148 767.835 494.269 776.606 506 784.553Z" fill="#328840"/>
<path d="M229.075 278.154C229.075 335.524 255.09 401.265 293.37 450.585C265.315 439.851 235.502 434.16 205.37 433.787C165.575 433.901 126.697 445.457 93.595 467.009C60.4926 488.562 34.6338 519.155 19.25 554.967V713.766C29.6424 737.629 44.6782 759.299 63.525 777.576C68.255 780.689 73.15 783.64 78.155 786.324H280.5C317.662 770.22 351.026 746.818 378.51 717.577C377.637 737.114 375.043 756.541 370.755 775.644C384.488 765.549 397.213 754.211 408.76 741.78C408.12 756.723 406.429 771.606 403.7 786.324H437.58C432.35 763.731 428.566 740.843 426.25 717.791C435.734 728.301 446.091 738.03 457.215 746.879C457.175 745.225 456.917 743.583 456.445 741.995C461.56 747.684 467.06 753.104 472.945 758.417C485.62 767.176 498.949 774.997 512.82 781.816C518.287 778.717 522.822 774.269 525.97 768.918C529.117 763.567 530.766 757.502 530.75 751.333V105.025C500.691 87.924 466.545 78.8539 431.75 78.7285C320.87 78.2455 229.625 167.064 229.075 278.154Z" fill="#328840"/>
<path d="M119.955 337.778H100.265C106.7 331.391 106.975 318.458 106.975 318.458C103.636 322.039 99.6034 324.94 95.1103 326.993C90.6172 329.047 85.7521 330.214 80.7951 330.425C73.8371 330.425 67.1641 327.728 62.2441 322.928C57.3241 318.127 54.5601 311.616 54.5601 304.826C54.5601 298.037 57.3241 291.526 62.2441 286.725C67.1641 281.924 73.8371 279.227 80.7951 279.227C84.5595 279.287 88.2834 279.996 91.7951 281.32C86.7284 275.014 83.8058 267.322 83.4351 259.317C83.2739 255.91 83.8224 252.507 85.0474 249.313C86.2724 246.119 88.1484 243.201 90.5621 240.734C92.9759 238.268 95.8771 236.305 99.0904 234.964C102.304 233.622 105.763 232.931 109.258 232.931C112.753 232.931 116.211 233.622 119.425 234.964C122.638 236.305 125.539 238.268 127.953 240.734C130.367 243.201 132.243 246.119 133.468 249.313C134.693 252.507 135.241 255.91 135.08 259.317C134.78 267.471 131.769 275.307 126.5 281.642C130.521 279.98 134.838 279.105 139.205 279.066C146.163 279.066 152.836 281.763 157.756 286.564C162.676 291.365 165.44 297.876 165.44 304.665C165.44 311.455 162.676 317.966 157.756 322.767C152.836 327.567 146.163 330.264 139.205 330.264C134.255 330.072 129.393 328.925 124.899 326.89C120.406 324.854 116.37 321.97 113.025 318.404C113.3 318.565 113.52 331.284 119.955 337.778ZM182.985 125.204C183.268 136.661 181.095 148.049 176.605 158.638C172.791 167.56 166.716 175.39 158.95 181.393L182.325 199.318L163.845 215.418L133.87 191.965C130.359 192.51 126.81 192.78 123.255 192.77C112.264 192.963 101.439 190.136 92.0151 184.613C82.7198 178.942 75.3373 170.731 70.7851 161C65.5566 150.032 62.9428 138.05 63.1401 125.955V119.14C62.8654 106.847 65.4215 94.6516 70.6201 83.4515C75.1263 73.694 82.4949 65.4583 91.7951 59.7845C101.21 54.1841 112.066 51.3173 123.09 51.5198C134.096 51.3246 144.932 54.1912 154.33 59.7845C163.63 65.4583 170.999 73.694 175.505 83.4515C180.693 94.6171 183.249 106.776 182.985 119.032V125.204ZM153.615 118.979C154.385 107.506 151.627 96.0693 145.695 86.1348C143.214 82.5598 139.83 79.6692 135.871 77.7421C131.911 75.815 127.509 74.9164 123.09 75.1331C118.708 74.917 114.341 75.7881 110.398 77.6651C106.454 79.5421 103.063 82.3637 100.54 85.8665C94.6024 95.6843 91.8061 107.009 92.5101 118.388V125.097C91.8335 136.494 94.5864 147.836 100.43 157.726C102.862 161.439 106.25 164.463 110.255 166.498C114.261 168.532 118.744 169.504 123.255 169.318C127.665 169.51 132.052 168.583 135.985 166.626C139.918 164.67 143.264 161.751 145.695 158.155C151.557 148.272 154.311 136.925 153.615 125.526V118.979ZM464.31 553.41C465.002 582.842 459.382 612.09 447.81 639.277C438.279 661.758 422.555 681.225 402.38 695.52L465.245 743.82L433.565 772.37L359.645 714.464C347.626 717.365 335.286 718.807 322.905 718.757C296.812 719.374 271.122 712.4 249.104 698.724C227.086 685.048 209.737 665.288 199.265 641.961C186.923 615.084 180.694 585.919 181.005 556.469V531.729C180.394 501.655 186.415 471.804 198.66 444.199C206.917 426.872 218.838 411.447 233.641 398.938C248.444 386.428 265.792 377.117 284.546 371.617C303.3 366.117 323.035 364.553 342.453 367.027C361.871 369.5 380.532 375.957 397.21 385.97C419.194 399.978 436.422 420.038 446.71 443.609C458.899 471.286 464.899 501.181 464.31 531.3V553.41ZM418 531.3C418 490.871 409.75 459.691 393.25 437.759C376.75 415.827 353.137 404.843 322.41 404.807C309.051 404.336 295.778 407.07 283.754 412.768C271.729 418.466 261.321 426.955 253.44 437.49C236.537 459.279 227.865 489.511 227.425 528.187V553.41C227.425 592.766 235.84 623.732 252.67 646.307C260.533 657.248 271.081 666.091 283.351 672.025C295.621 677.96 309.221 680.798 322.905 680.278C352.862 680.278 376.072 669.545 392.535 648.078C408.998 626.612 417.487 596.147 418 556.684V531.3Z" fill="white"/>
</g>
<defs>
<clipPath id="clip0_18_374">
<rect width="550" height="805" fill="white"/>
</clipPath>
</defs>
</svg>
