<svg width="550" height="805" viewBox="0 0 550 805" fill="none" xmlns="http://www.w3.org/2000/svg">
<g clip-path="url(#clip0_14_15)">
<path d="M530.75 751.333C530.692 760.567 526.907 769.407 520.215 775.937C513.523 782.467 504.464 786.16 495 786.216H55C45.5363 786.16 36.4767 782.467 29.7847 775.937C23.0927 769.407 19.3077 760.567 19.25 751.333V53.6665C19.3077 44.4323 23.0927 35.5922 29.7847 29.0625C36.4767 22.5328 45.5363 18.8395 55 18.7832H495C504.464 18.8395 513.523 22.5328 520.215 29.0625C526.907 35.5922 530.692 44.4323 530.75 53.6665V751.333Z" fill="#1F86BF"/>
<path d="M495 0H55C40.4131 0 26.4236 5.65415 16.1091 15.7186C5.79463 25.7831 0 39.4334 0 53.6667L0 751.333C0 765.567 5.79463 779.217 16.1091 789.281C26.4236 799.346 40.4131 805 55 805H495C509.587 805 523.576 799.346 533.891 789.281C544.205 779.217 550 765.567 550 751.333V53.6667C550 39.4334 544.205 25.7831 533.891 15.7186C523.576 5.65415 509.587 0 495 0ZM530.75 751.333C530.692 760.568 526.907 769.408 520.215 775.937C513.523 782.467 504.464 786.16 495 786.217H55C45.5363 786.16 36.4767 782.467 29.7847 775.937C23.0927 769.408 19.3077 760.568 19.25 751.333V53.6667C19.3077 44.4324 23.0927 35.5924 29.7847 29.0626C36.4767 22.5329 45.5363 18.8396 55 18.7833H495C504.464 18.8396 513.523 22.5329 520.215 29.0626C526.907 35.5924 530.692 44.4324 530.75 53.6667V751.333Z" fill="white"/>
<path d="M69.245 588.884C68.5941 587.98 68.2448 586.902 68.2448 585.798C68.2448 584.693 68.5941 583.616 69.245 582.712L392.7 136.527L374 110.982C373.504 110.217 372.818 109.587 372.005 109.151C371.193 108.714 370.28 108.485 369.352 108.485C368.425 108.485 367.512 108.714 366.7 109.151C365.887 109.587 365.201 110.217 364.705 110.982L22 583.571C21.3367 584.48 20.9803 585.568 20.9803 586.683C20.9803 587.799 21.3367 588.887 22 589.796L162.36 786.216H210.045L69.245 588.884Z" fill="#1B71A1"/>
<path d="M411.895 110.07L392.7 136.528L530.75 326.937V261.195L421.19 110.07C420.694 109.305 420.008 108.675 419.195 108.239C418.383 107.802 417.47 107.573 416.542 107.573C415.615 107.573 414.702 107.802 413.89 108.239C413.077 108.675 412.391 109.305 411.895 110.07Z" fill="#1E7BAF"/>
<path d="M69.245 582.713C68.5941 583.617 68.2449 584.694 68.2449 585.799C68.2449 586.903 68.5941 587.981 69.245 588.885L210.265 786.217H495C504.464 786.161 513.523 782.467 520.215 775.938C526.907 769.408 530.692 760.568 530.75 751.334V326.938L392.7 136.528L69.245 582.713Z" fill="#1E7BAF"/>
<path d="M182.985 125.204C183.268 136.661 181.095 148.049 176.605 158.638C172.791 167.56 166.716 175.39 158.95 181.393L182.325 199.318L163.845 215.418L133.925 191.965C130.396 192.508 126.828 192.777 123.255 192.77C112.264 192.963 101.439 190.136 92.015 184.613C82.7198 178.942 75.3373 170.731 70.785 161C65.5565 150.032 62.9427 138.05 63.14 125.955V119.14C62.8653 106.847 65.4215 94.6516 70.62 83.4515C75.1263 73.694 82.4948 65.4583 91.795 59.7845C101.21 54.1841 112.065 51.3173 123.09 51.5198C134.096 51.3246 144.932 54.1912 154.33 59.7845C163.63 65.4583 170.999 73.694 175.505 83.4515C180.693 94.6171 183.249 106.776 182.985 119.032V125.204ZM153.615 118.979C154.385 107.506 151.627 96.0693 145.695 86.1348C143.214 82.5598 139.83 79.6692 135.871 77.7421C131.911 75.815 127.509 74.9164 123.09 75.1331C118.708 74.917 114.341 75.7881 110.398 77.6651C106.454 79.5421 103.063 82.3637 100.54 85.8665C94.6023 95.6843 91.8061 107.009 92.51 118.388V125.097C91.8334 136.494 94.5863 147.836 100.43 157.726C102.862 161.439 106.25 164.463 110.255 166.498C114.261 168.532 118.743 169.504 123.255 169.318C127.665 169.51 132.052 168.583 135.985 166.626C139.918 164.67 143.264 161.751 145.695 158.155C151.557 148.272 154.311 136.925 153.615 125.526V118.979ZM464.31 553.41C465.002 582.842 459.382 612.09 447.81 639.277C438.279 661.758 422.555 681.225 402.38 695.52L465.245 743.82L433.565 772.37L359.645 714.464C347.626 717.365 335.286 718.807 322.905 718.757C296.812 719.374 271.122 712.4 249.104 698.724C227.086 685.048 209.737 665.288 199.265 641.961C186.923 615.084 180.694 585.919 181.005 556.469V531.729C180.394 501.655 186.415 471.804 198.66 444.199C206.917 426.872 218.838 411.447 233.641 398.938C248.444 386.428 265.792 377.117 284.546 371.617C303.3 366.117 323.035 364.553 342.453 367.027C361.871 369.5 380.532 375.957 397.21 385.97C419.194 399.978 436.422 420.038 446.71 443.609C458.899 471.286 464.899 501.181 464.31 531.3V553.41ZM418 531.3C418 490.871 409.75 459.691 393.25 437.759C376.75 415.827 353.137 404.843 322.41 404.807C309.044 404.341 295.765 407.077 283.732 412.774C271.7 418.471 261.281 426.957 253.385 437.49C236.555 459.279 227.902 489.511 227.425 528.187V553.41C227.425 592.766 235.84 623.732 252.67 646.307C260.533 657.248 271.081 666.091 283.351 672.025C295.621 677.96 309.221 680.798 322.905 680.278C352.862 680.278 376.072 669.545 392.535 648.078C408.998 626.612 417.487 596.147 418 556.684V531.3Z" fill="white"/>
<path d="M154 301.178L105.16 233.987C105.083 233.887 104.983 233.806 104.869 233.75C104.754 233.694 104.628 233.665 104.5 233.665C104.372 233.665 104.246 233.694 104.131 233.75C104.016 233.806 103.917 233.887 103.84 233.987L55 301.178C54.8974 301.309 54.8418 301.469 54.8418 301.634C54.8418 301.799 54.8974 301.959 55 302.09L103.84 370.3C103.917 370.4 104.016 370.482 104.131 370.537C104.246 370.593 104.372 370.622 104.5 370.622C104.628 370.622 104.754 370.593 104.869 370.537C104.983 370.482 105.083 370.4 105.16 370.3L154 302.09C154.103 301.959 154.158 301.799 154.158 301.634C154.158 301.469 154.103 301.309 154 301.178Z" fill="white"/>
</g>
<defs>
<clipPath id="clip0_14_15">
<rect width="550" height="805" fill="white"/>
</clipPath>
</defs>
</svg>
